<mxfile host="65bd71144e">
    <diagram name="Page-1" id="c4acf3e9-155e-7222-9cf6-157b1a14988f">
        <mxGraphModel dx="1424" dy="632" grid="1" gridSize="10" guides="1" tooltips="1" connect="1" arrows="1" fold="1" page="1" pageScale="1" pageWidth="850" pageHeight="1100" background="none" math="0" shadow="0">
            <root>
                <mxCell id="0"/>
                <mxCell id="1" parent="0"/>
                <mxCell id="69bAGGGIotdK57oAJPZw-2" value="Esercizio OO" style="text;html=1;align=left;verticalAlign=middle;resizable=0;points=[];autosize=1;strokeColor=none;fillColor=none;" parent="1" vertex="1">
                    <mxGeometry x="-850" y="10" width="90" height="30" as="geometry"/>
                </mxCell>
                <mxCell id="69bAGGGIotdK57oAJPZw-3" value="Simulazione di una partita di dadi tra due giocatori in Java, definire il numero di turni e mantenere il punteggio per definire un vincitore finale.&lt;div&gt;&lt;br&gt;&lt;/div&gt;" style="text;html=1;align=left;verticalAlign=middle;resizable=0;points=[];autosize=1;strokeColor=none;fillColor=none;" parent="1" vertex="1">
                    <mxGeometry x="-850" y="35" width="770" height="40" as="geometry"/>
                </mxCell>
                <mxCell id="qnNC03m3wt7iX0uT-l6i-6" value="" style="shape=image;verticalLabelPosition=bottom;labelBackgroundColor=default;verticalAlign=top;aspect=fixed;imageAspect=0;image=data:image/png,iVBORw0KGgoAAAANSUhEUgAAA1UAAANECAYAAABYdQX4AAAAAXNSR0IArs4c6QAAAARnQU1BAACxjwv8YQUAAAAJcEhZcwAADsMAAA7DAcdvqGQAAP+lSURBVHhe7P19jCTpfR94fmny1Ab3on2SJgFKU+CR0eizOkDBVWpqg/BhpoeGqmzsJEWossdrjnxTmcRCM9U4qTleT5YhVdqismy4cnwntWxPz/BumVm0PDQ0nS1QytmzqglzeggLjBXH1YJ4MbIaneQS1RIXORTXHXdz1z4TvD+eiMgnnngi4smMrJes+n6AAroz4/V5i3gifs+T7zm/+FM/eN/D/w+IiIiIiIhocn9J/YCIiIiIiIjMsVNFRERERERUAjtVREREREREJbBTRUREREREVAI7VURERERERCWwU0VERERERFQCO1VEREREREQlsFNFRERERERUwl8C3qN+RkRERERERIb4poqIiIiIiKgEdqqIiIiIiIhKYKeKiIiIiIioBHaqiIiIiIiISvhLwA/Uz4iIiIiIiMgQZ/8jIiIiIiIqgeF/REREREREJbBTRUREREREVAI7VURERERERCWwU0VERERERFQCO1VEREREREQlsFNFRERERERUAjtVREREREREJbBTRUREREREVAI7VURERERERCWwU0VERERERFQCO1VEREREREQlsFNFRERERERUAjtVREREREREJbBTRUREREREVMJ7zi9e/MH7Hr6rfn5kfsL5WfzYwk/h0YWP4v7+1wEAf77/H/An/u+qixIRERERER25Y/Omyjr74/jk5c/hxxZ+Cl//2ufwW5+v4iu7v4r/6A/wYws/hU9e/hyssz+urjaZrQF834fXravfAGhj4HvorqmfExERERERZTs2napPXv4c/vBrn8NXdn8VwYM/iztQf7b/dXxl91fxh1/7HP7Gyq+W6ljVH60AACznElLdqrUFVDDC/o76BU2PHVUiIiIiOvmORafqpz/2LP6j/3v4szDcDwD+xsqvJpb5s/2v48/238JPOJ9IfD6JcxULgedhaLm4vJX8rv6EAysY4V7yYyqDHVUiIiIiOgWORafqrzqfwB9+7RX145Q//Nor+KvOJ6Z8W9XGkg2M7jdwwwtgL7YT356rWMBoH734kzq6ng/fD/8G8vLiu8EWUO968TL6sEJJGH4o/uQ3OCX3tdaFF29XLBtpD6Ttet3kGzplvcR217rw/AHaiWNLv3VKbN/34fsDtKPPN1xYsFFLnFPeuRIRERERzZ8j71RZZ38c/9H/PfXjTNHkFRNbW0AFQ+xtAr03fAT2SqJTs1ABhnda4f/bGPhNOH4HjuPAcfoY2jWpI3MOFSsAFj2s4zocx0HHC2C5l5HVRah3PfirQN9xwuWBynnMYF9tDDZcjG6K7To3PYzuIu681CoeOo4Dx+nAg4v1aLtbA/gbDvztcD2njyEC+G+E3crzFVgBsOStAy+F6wcW3KeSnaMa+uH64rgQvu1rVR30h0DghedVbRmcKxERERHR/DnyTtWjCx9VP4r99MeexU9/7NnEm6n/14M/z10n0/nKOLxvp4HdodxBEB0X0RkB2oMa7GEfbiN6b9XCDS8Yj8VaW0AFFiqj6/EyvfujcFmNtS7WXcDbriLqtvUaLqqbs9rX+Nix2UBjB6h31+FaQ/TdRvj2rYf9eLU2Bqs2hjddNKLQPCVUr/5oBbAqGL0ULSOvH24fHjrV6IzC8Er/drg/0VEd3R+/+ys8VyIiIiKiOXTknaoHD/4M/9uzP6Z+jD/82udwf/8t3N9/C8GDP0t890D5v4n6o5VEeF/rNQ+BvSTe9iQ6FCJMcPzWSuN8BRaG2I07B+H2M8ZkifFaPm6nxhbNYl8t7A0tuBvJcMJLjoXAuxF34toDHzU7fBO1tQQ78HBjM1pe6XRG4ZDD3XGnK+wkBaN78faHt6IO2/j7cScq2VE1OlciIiIiojl05J0qeXIKmZiYQvzJ/qrzidRnJs5VrLBDENq5DT+wsdKtayapkDsDgjzmqv5oBRjuxR2W6PvxWxqNxHgtWfl9taoinNDdSI6nstxmPHZJhAGKt05qBxMA2ou29JkaDom4kyTCA9UOE4C1S3Dkz7STVOSfKxERERHRPDryThXCkL6f/tiz6scp0SyBk4smqZBv3Xto3BrCci7hUuGNffItS6qDlnpLU8Z0++o1XHS8APbyeDKKYTTOynHgxGGAGmtdrCTeIuk6TbpO0lj7KReWHD6Y6qjq8O0VEREREc2/Y9Gpimb1+/GcsVI/vvBR41kCU6RJKhI29zC0XLiJG/t7GKUmZBBjgaqbyOigaTohkt79ESBNjFHvDsJ/l91XHd3BuBM1fusjxj/JHSxsDeK3WOJ4wtBH1NF9ykm+Rdpagq12oBLhgeK4nSfGk16sVMaTVMQSHdWicyUiIiIimk/HolMFAF+68Qv46Y/9QjwxRTQ5xY8vfBQfX/lV/PTHfgFfuvEL6mpmlPFCY2KihGRYWg8NV8xKJ0LnwtnqogkZdB20grc42KzG4Xm+76PpjMLxVWX3dQ4V20VTDvEL121VxWx/0Xf+8mg8hmrzBrwgnOrcXwfu+IA6SYUScpgMGQzf8kXhhYt7uO4nO1FihkVxXqIzV3CuRERERERz6j3nFy/+4H0P31U/PzI/4fws/qpThXX2xxE8+DM8ePBn+I/+YKpxVGSm3vXQrOyyg0NERERENIVj16miQ7Y1CH8/azzdOxERERERmWOn6rTZGsBftaUPhuxQERERERGVwE4VERERERFRCcdmogoiIiIiIqJ5xE4VERERERFRCexUERERERERlcBOFRERERERUQnsVBEREREREZXAThUREREREVEJ7FQRERERERGVwE4VERERERFRCexUERERERERlcBOFRERERERUQnsVBEREREREZXAThUREREREVEJ7FQRERERERGVwE4VERERERFRCexUERERERERlcBOFRERERERUQnsVBEREREREZXAThUREREREVEJ7zm/ePEHn/5vL6ufExERERERkYH3nF+8+IP3PXxX/ZyIiIiIiIgMMPyPiIiIiIioBHaqiIiIiIiISmCnioiIiIiIqAR2qoiIiIiIiEpgp4qIiIiIiKgEdqqIiIiIiIhKYKeKiIiIiIioBHaqiIiIiIiISmCnioiIiIiIqAR2qoiIiIiIiEpgp4qIiIiIiKgEdqpoPn2wjpdvedj7+h68397Ekx9UFyAiIiIiOhzvOb948Qfve/iu+vnxtDWAv2qrn459/yEePhhh+Kce+v+XFl79hroAnRTP/tYerv7Umfj/73z5BTz+S68nljlN2gMftahqBB46bgM9ZRlV4Tq6+vbOm2g9/hz6yU9zuOj82y6qiU5vAG/bRWNH/gyodz00XStcRHM8RERERMfUyXpT9d4zOPPDC7jg1rD5RQ/9f/gkFtRl6ET4y+9VPlD/TwfjEQfLP6d+mOPnGvgY3yISERHRCTfXnaqH7z4c/31f+fK9Fi78nS28vPW48sXptuDWcPWzL+PVWx723uyiri4gmWTZw3btc328HYh/P7z/Jj6/fXrfUh2uR+DWnlU/zPRszcUj6odEREREJ8wcd6qGGHx0CUvR3086WGl0MLgb3mkDAM7A/uRVbPJJeexnnmvi2acex+KjFs6Mo+e0Jln20H1lCzXXgeM4WFp+Dr1vqwvQQTnz11bM6tQHN7Hy18KC8/AhHqrfExEREZ0Qc9ypStv3emh+sobun0i3b++9gI/9AoMAiUoJ9rEfDb00rFMLv/AxXIjCMoMA/1n5noiIiOikOFGdKmEfL37l7cRT8cqjPyP9j4gmdx9D6W2g/dFfgit/neLilz4aTXLxEHfeuqd8T0RERHRynMBOFYAv7WMk/deqnBv/Z2sA3/fDPw/dNQAfeRqdL3nx52/+y6eltYULP3cV135rF97X96T1fex93cPub13D1SeLn9zjg0/i6m/28aYnbeOPPbz52x08/REAa1146rFluPDzbXQHHvb+eHws/p6HN39bdyxtDMJl4tnVAMBy0ZTOxevWJ1xW8pEarv7mqxj8O+WY/ngP3r/r49ov6iYNGe/L7E9KE10+Zlhw62h3B8l098P0+lIX7Z+/oK4Sq3fH5cL3B2hD5OMLrwzg7Unb8t5E/58+jewthbRlYA97/36A7mcN1j9CX7t1Z/yw4oMfQyNvwgp5gop338btO8r3RERERCfIyexULZ7FX5b//58fyP9Lem8d3Vc2UT0/7kCcef8Pjb//4JPY/G0P/X/8LJZ/agHW+5ODi86838LCTy3j2Rd/D7uvPJt9U/zxTfRfexHP/swFPGJJ23ivhUc+UsXmvxqgXZFXyBAdz6/U4NoWzsiz3p2x8MhHlvHsi330f/kQJ+j4+69i77fbePZnFmF/QDmm956B9YELWF5/Ef1uXdOxmsRDPPie+lmeC3j2lV38XreJmmsn0x1hep13UfuVvvlvXX38Bbz6xRfReMxGYnPWI7jws5t49UttZKX8hfWXsfslXRk4gzM/bMN9ahOv/ruXUTc5jqNwvQ/vneg/+RNWyBNUvPNWH6984CykLjoRERHRiXIiO1UL//VCYsaxd/7cl/6XdLb6abg/rH4aeRztl7bw9EeSt4PxjIOJkfdnsPDYVfR0HYcP1tHdehoXlLvKxMyFZ2zUfn6x4MYzfTwPvzPE8O4Qw7v7COIZEC1c+Lsvovvp6Ej2ce+uWG5f7pR8P8B++Pnw7hD3vj2acNnQ/+4s4i5C8E68zPC+PGkIYLlXcW1DTp3xvnR/+4nVH2J4cxNXf1f+LM8C6t0erj62MD42ZcZImfWRp7H1UnaHSDgLd6OBxR8G8DDAO/ffQaDMvnDmfBVXE+coLHy6i94vPo6F6GDk9PzOeCNnPvA4rhYex1Hpo+vtx/878xOXcDXxfUieoAL7+NpOH8keKBEREdHJcvI6VR+so70s/2DpO/C/nDXdtoUL5x8BHu7j1j9rYMURs8m5DfGTo7V/uYWaPb4ZfPjtW9j62854xsElB7V/fAv70o215X4am0pYVP2z64mOW2o7T76A7h8FKJpi7/Ff35SOJ8Cdzz+Hpb9RRfWTVVQ/uQL3U9fgxR0hC+7fjsa9vIKrnxTLvfqnUk/lXR+vhp9XP1nF0//o9QmXHXt438Orv1KD4z4eL1NddlH7vDy+7Qwu/HX57cZ4X6m/37gHuYf58O4A7c03pXXzLWxcw1U5fPF7d9B9YWWc5h9dwsoLXdyROo5nbH2HaOwRLHzwIfZ/fwsrSy4eX34c7tIKtr487mikzxHAB6+ic8WNT+fht29h60kXK9G5/o1P4IXfHcbpdMau4rl1af1jxPvnb+LtqPP+/kU8/svp9HJ/8fHxBBV/8iZ+8w+UBYiIiIhOmJPTqfrI43j2s69i90tNyPfSD//k97D1O/KCivfu49bfW8HVz3uQb42BZ1Fzpfdd3/Nw7Reu4tVvyMsAb//rq/j0P/cw7n6oYVFXsfKT8s29h2t/S9nOt1/Hi596AYPcacGfxXOPjW9gA+86nv5nSifjG6+g9frb4/9/cBFP/3V5gQPyb17A08sNbP2OtO/Q2/+sgzfvSx98YKH4964+WEd3a3n8xu97Hq79YgtecqkcLn7p4xfGb6geDtHffBovvp7M4f3XX8TTmwPsx2/4zuDCx/MnYHj4Rz18+vlXpbKyj1d/6RW8GYfFpc/R/cUnsfj+8D/fH2Lwa1fxaiKv9/H6P+hKoXVncOFx7Tugo/ftLXzt7vi/Fx5X0+tJNNwo5x7izle2lHpFREREdPLMcafKRk2edOC3X8bVpxbH4VUIb8Y/82LuTd3DP3odV7+ifgrg0x/DuehGGMDwK63M30La//zL+JrUcTjzwSU8Gf3n04vp7Yz/K3kTza+kOyWxxPG8g73f0W9l/4196XwXsPBY4uuD8Y23kX3kHobvTPILRQu4un1VerMXwPtcIzPttT5Yw6I0Lim4cwMtXR4DwFeaeP0b0vE9ei4n9C7AnX97TVOe+nj7vvy6soLx1CgLqP2k9Dbn7m20tG9ukts48+iFcRk6Zl7Mm7Di5z4BJ3oW8e7buP3Ppe+IiIiITqg57lTlC+4OsPWp4pvx+396Tf1IsCtS9Nk72P+f0rfSYx725AFAP1yBE/17ku1854H0xkuR2M4jePyfqjPjhX//d+kNj5iL4dBc+PjTuPrZDq51+xh8ScyUuLfn49l4fE2xx7deRj1e/iGGN19AY0dZqMjHK/gr0n/3/0TfAY30/2dpfNh7Kzj3s/K3shH2M47lP/1/s36F6WdQkcfs/UQjnWfhXyKdzpyBybwlM/O9Eb6sfpZFmbDC+Vu1+KvUBBXxN0REREQn11x3quRJBx6++xAPv7ePt70BXvmVGtxPNpUQK50Ao6H6mc4DjIwnSBCzuZ1VPwMm386cWPg7HQz+vY/+v9zEs09VsexegH1ezJRYMEws6ePXsLlqx2F7D4cDdCYYR6UX4MF31M+S9v+L3CE6gzOZE5ccY3EIoyh/cqdS70lU5EL6Xx5q3sBlSU5Y8cjFGp5FxgQVRERERKfAHHeqhhhIkw4sfXQJS//HFdQaTVzTjO0p54dwdpKxSe8+gDzEZuyHcCZvumx5KvJc7+DO7w4wMPi79Za67oz93Mt49R9WYUcdke8/RPCdIYZ334b3+wMMXnsFr/5R5vu3MXUcVeDh2pUWynapgB/CGX0PN7bwPmkKffwnPJDGDM3aw+GbqTzS/r1+OyekMu3eX0hp/P4FXMh82xZxkm/Q8n52QEOdsGLllxc4QQURERGdWnPcqTpg/8sDada6BSw8kZ7lbMzF0oI8GcUIX4v+Lb9BQAULn5T/n+T+5KPZU6on5u4+g4d/2kTzHxT/XcubpKO0BWz+nx4fT1//nTex9eQS3L9RRfWTNTSeb6L5j64hgNxp0dGMo3olewxbobsP8J/i/5zBwkfG4Wk6tf+9FGj37jsYzrQzMEpMvX/mfQ/wm5p8Sv39Wm+CiTmAL9+Xf+76EThP5p/zwi9/bNwBArD/P0/Yff32Fnb/aHxiFz76S3h6kRNUEBER0enETlWWL/kYSh2iC0+2M3+UdeHTz+Fjj47//86f7o5viN/al95ancHikx39RAgfrOO5v57Tcfuij3GkooXF5avp38Oa1PvPmo/b0S77Mzgnnff+/7SlCbms4cKj+TGAyXFUwP7vv4DG50vckv/BmxhKrwof+a8baH9cXkDy8Q6e/Ih0fN/eQ8Youym9jq/dk94ifXARL2QdSwn7/6Of6MQ88thVvPx3MkrIB+toPyn/TPU7GH5lki6c8ErfG5ft81UsR2WBE1QQERHRKcNOVZZvb+H3vi5PPuHi6ueu4emPyAsBF37+Gj7/i+PfIMLDt/F729JvOP3u72FPHtPzwSpe/OILeFLuoH3kaVz73NXEVPAp334Ft/9Emh3ur9XxalfZTmjBraPzpQFeXlO/UbzXxtIvZtx4qwyWXVj8pWSH8YNP4oUvNvG4/EvMqtQ4qj62np/wrUlKH903pcFyZ2zUtl7FC08mj3/hyRfw6lYVC/Ebm3fw5r96MbHMLPR+d0/qWC9g+Z8O0Pl5uVMTuYDaL3ex+8W2+kWxP/hN3JLKB/AIHv+VPga/eRVP/00XCwAW3OXxzw7Iv5v2J7+HrWnG+v3OLfjRiUlvvThBBREREZ027zm/ePEH73v4rvr58bQ1gL8a/bDvEH2nipaySKHENgJ422727HIfrKP7xeQNKMIJMgAxIUByIoYAb+/8Emrbyaf+C5/uov/3pY4XxNijKCzszPvFRoLhPmAvhMtpju3jbQz+rzVIv0csxjCN7mMUAMAPofJoBdb7z+jXB7CwNcBufP5CdD7BW9fw+LPjmfKKl/0yNm/u4umfkBZ49x0M7z8Qx2IvwHrvQwTfA6wfDg868NBxG2Ja+VT6PsQ7w/t4kAiZlD3A3v/wNFq/a5KPj6M9uJb48WbIeSele/gN3vnyNTz+S8mZAutdD824t5td5vKXW0C925e+Dz0MsP/tEf4zxDTsj1YsnHkvgGEfTlW3lwK68lHk4RD9v1fVTzkvp7GcbxL3xV10E53VfQz+uxU01RDKwvxS07CIfhtERERER4FvqvJ8u4fGpzp4U/4NovBm/Iw6s93338Gdz7+Q6lABwP7nG3jh5lAaoxV2yMLtAMDDu3288Jr8K7kaX2nhue1b2Jc39N4zsD5gwz5vxzPuCQ/x8L9Iy4X2P3cD3veSn8Xnowx9Kl52H1v/vI+hfDzvf2R8LO8F3vmDa7j+p/rpxuufXVc6rGfwiB2di+7vHBaMZ+Z7E63qVbz6jeQkGfHxKx2q/d9/EU8rHarZ2Uev8QK6/0GZvuSMhYXo3D4QdqggOspT+UoLz22+ircN5gUBALxzB92sDpWhxIQV4AQVREREdDqxU1Xk2z08t/wJvHD9Fu7cDxKTDuD7Yhr3O19+Ba1PPY6n/1l22Nqbm1U8/Y/78IYBHko3oQ+/N8SbOy/gE59s4c0PnM2eqCK0/2+uYuWTL+CVL9/B/vceJrYVHc/bXh+dxtN47l9L30W+3UPj2S0MvvFOcu6LhwFG/4s82YHhsl9pofr3ruHWN95BoDmvp/+77I7KuUrR2Zb1Jrb+tovaP+7Du6ucA4CHwTsYen10Gp/AyvOvHvDECm/ixb/7ePaxvBvgneEd3PpcC7VPbiW/nMD+61uouTW0Pqcpr9F+7noYXH8BK48/jRdLdKgAdcIKTlBBREREp9N8hf+dcO6v76L7N6NQqnfw5j94HM9NM9aFiIiIiIgODd9UHRsLqJ6XxqZ8f4R77FARERERER177FQdEwufbmNFnhPi7h6+KP2XiIiIiIiOJ3aqDsPayxgMumh/WkxtnXQBT3+2j1efl2cHfIg7tzg2hYiIiIhoHnBM1WFY68LbCDtN33+Ihw//M0b3/xP+yqMV/NCZM+NZ30KB10Gt0WOnioiIiIhoDvBN1WF77xmceb+FhXD682SH6iH2v3oNdXaoiIiIiIjmxnt/9AM//qt/6fv/P/VzmqXvfQffe/e/wo/88F/Bf3XmvTjzv3nf+LvvP8TD//f/im/f+X/g/9b67/Hfv/wVKL9mRERERERExxjD/4iIiIiIiEpg+B8REREREVEJ7FQRERERERGVwE4VERERERFRCexUERERERERlcBOlbEVfObaNbSfcdQvSlt5/hqutZ/B7Ld8VA4urYiIiIiIjps5m/1vBZ+59iQ+nPjsAd56uYUvvJ348ACIff/oW6+g9QVf/XIC6e2sPH8NT/7IW3il9QVkbnn5M7hWTZ75NwdX8Ru3Eh8djQvPoP3cRXw3Pp70OZax8vw1PPmh8f8fZGw3uZyuXKjlx2SZyDfx+tXfwK76sSxMh7PxBxnrqMt963Vc/fXUUgrluB7oy0txGhARERHRrM3Pm6rlz+DatSeBwVVcvTr+e/1b6oIn08pHgNel837lrQf4cPUaPrOsLnmyrDx/DU/i9XGeD76JsxefTb0FizumcfoAF59r45kL8RL4jFJ+Xv/WWWWZsW8q5eyqrnMku/AM2s+dx92Xo+VfwVsPPownr30GK6nlRAdULPc6vvmhJ3Ht+cRSinEnNd42LuJZ5e1mcRoQERER0UGYk06Vg2ce/zDwrddTb2Z2f33ensTv4jeuXtW+acmz++vJm3r/C1/EWw+AD38k72b8kLz9BbSuHtBbs28ob3Fu/QZe/xZw9vxHxx2KC8/gsQ89wFuvjt/ciPQ5i4t/a5w+vvJmb/fXX8c3cRbnf3oWYYrfwVcTb4V8fOHVt/AAH4YjdXxX/tZFnE2U4138xuCbwIcey+z8OM88hg8/eAtfjMtMuO2zF7ESbdswDYiIiIho9uakU7WAHzkLPPjuvvrFKebjO3+hfnby7N5Kvx/a/+4D4OyPYCH8v/PT53H2wV18PdG59vH1uw+ADznhm6Jd7KY6ffv4iwfA2R+NtgTgwgfwo3iAv5i0qL29i121c//2d/BdAD/6Y1GnbQXOh4BvfkM5p1t+TufOwUfPn8WDu19Phvq9/XXclTrVZmlARERERAdhTjpVu/C/BZy9uGJ0c+g808a1a9ekPykEa/kzynf6ELqV54uXgWZfalha2qwmcXDwgR8x6Wg6eKadPBd1UgznmXb4mTg2bbohDF271sYzF8bbbD/jhJ9np1EsXC7rOKYjOh34i++kxhf5f/5dAD+KD2S8ATp0yw4+rO2wJTt3okyFYXsXPorzZ4Hv/nnq7ESn+kc+AGee0oCIiIjoBJqTTlUUqvVhPFnQIVl5/hqevQi8FY9tkcddOXjmcd3YJHnciegwyGNTrl59HaimJy8Q+/rueHsvvwVoxvschJXnn8VFyCFhGZZXcP5uNBYnHMNz9iKeTY3hOY9PXXPgx8tljAkCcP7pTwGviuWMwxiXP4NribFE+nFBxcIOxLf8RDiktnO5/xd4oH4mCzssiTdHCz+CsziLi89Jnb9UWhkKO1F3/1BOo+/iO+obrcK3jrqOWPjGTjJVGhARERFRaXPTqYrGIr3+LeDsxWf1b4WWP4MnP5Se8Ww8HsnHF1rq2KSv4ps4ix+JIsCWV3Dx7DfxemJmtV38xstvJW9OLzyDxz4EfHMgbe/tL+CLbz0wfqM2meQbp8e++wquamZ/S7n1G0rHZxe7bz0I33BIzgJ3X5bTxscXWqIj+1ginc8Cd7844Tg23Zg4zbggAyvPPyvyp3C2vIiUtwkr+Mxz6vgmkV7jDqjoKD/40JOTv1W78Aza1Q/jwVsTpFWYJ/4XWrh61XCsoBQGmS0rDYiIiIhoFuaoUyXs/vr47dPZi88m3iKsfOTDQGpciUYiDE28gYrGvax85MOptyDAeHxMRIxheSs1Tufgwq18fKE1vtn/Ij6l71hmkMMZn714Nn0zrk03zZgj6ELRClz4KM6ffYC3/q2SqqkxR3lEaKLoNBfMxJegecsTziT54Qdv4ZWiztnbX0Dr5ck6f84zbVwLO2zGb/IAbfheoQd/AfX00jRpQEREREQzM3edqsjur4vptfGhJ8OxPGKMUf6NaThmKDH19ev4Zvx9uA0DCz96Fjh7Ec8mxiBdS/2W1EHxv9DCKwZvxaIxX/K05K+8VSYgbIobdF1IndShLXThGbSjTlDGGxy14wdE+01ynmnjWvXDePCW4Zs+TNb5EyGhZ8WU7NoOm67DXVTu9G+aFn40eXamaUBEREREszW3nSoAwK1daVrxonEpwMrz+TfmJtuI7H/3gfgBVjlULP7L2v5sFb4Vu/AMPpV7g29GO1ZnEvt/gQd4kBjnJv/lvs0Jx2Kd/dbrGZ0gecKGJOfHfjQxhknu8OTucyrhWLwPifPUTi+//xd4oO0g5cxumdmhkx8imKcBEREREc3efHeqQtHN6P53p5g+etlJvC3J3IaynP/n3wXOnsdHszo0h2C6G+ZwogeV7lwyZ56b0NvfwXczpwzPMx6Lldcp3P3GNzXHr0xoEY+By+jw5NFOOKFYXsHFs+nxfAnKNOix3O2HM1/Kv8uF9CQbRmlARERERAdiTjpVK/iMZha6aNKCr4ZvHcSPnaZnrFt5Xvxf/L6RfOO5gs8o4Xpi4ooP48nExATp5cRbsrO4+Fx62vHPGI5zMnbhGbTVGeiWPxO+dckZXxS+5ZBv4p1nPoWLmj4VcBYXn1bO+bmL2nFjkxOTY5y9+Kwy7bqDZ57PmQAiayyWKsoL6fjFeY4ntMgaA6dynvlM8kd4wwkn8K2vZneW4rF4+csAPr7wphyyirhsyRNaJKZUB7D7b8WYrk/F5crBM08rk2wYpAERERERHYz3nF+8+IP3PXxX/fyYWcFndONvHryFVzQhYSvPX8OTH5I+kN50JL/7Jl6/6sO59iR+9K1XpJAwdX9Zy6nbi5bN6eiE25a3s/J8OIW75lwEB8+0n1U6QwVvRSIXnkH7uYvxuJoHb72CL+JT4VTw4jidZ9p49vxdvPLmj+BZufOoviG68Azaz53HXXW/4T6+G78FSp8jEIbyKZ3T3DdHyrGrHiS2r6ZRMh+cZ9pigg6tcVrqlss9xlC6HMiUMqGkQ/I8omNAMn/VtFDzBihMAyIiIiI6GHPSqaKDFHeqMjt1RERERESUZU7C/4iIiIiIiI4ndqqIiIiIiIhKYKeKiIiIiIioBI6pIiIiIiIiKoFvqoiIiIiIiEpgp4qIiIiIiKgEdqqIiIiIiIhKYKeKiIiIiIioBHaqiIiIiIiISmCnioiIiIiIqAR2qoiIiIiIiEpgp4qIiIiIiKgEdqqIiIiIiIhKYKeKiIiIiIioBHaqiIiIiIiISmCnioiIiIiIqAR2qoiIiIiIiEpgp4qIiIiIiKgEdqqIiIiIiIhKYKeKiIiIiIioBHaqiIiIiIiISmCnioiIiIiIqAR2qoiIiIiIiEpgp4qIiIiIiKgEdqqIiIiIiIhKYKeKiIiIiIioBHaqiIiIiIiISmCnioiIiIiIqAR2qoiIiIiIiEpgp4qIiIiIiKgEdqqIiIiIiIhKmJtOVXvgw/cHaKtfHCH3swPs/fEeBp911a9Kqb/yJvw/fhMvr6nfEBERERHRcTM3napJPPubu/D23kT3gDslj5z9IZx5r/ppeZWzFvDeMzijfkFERERERMfOiexULdgLsM4cfJfk9edX4DhLqP4jT/2qlBc/tQTHcdHYUb8hIiIiIqLjZm47VQtPbuLVf+fB9334vo+9f9/Fs6ij6/mo2QBgwd3w4Xtd1AHUux5830P/lT68Pw4/X+vC83143fp4w4nPxPaifYz/PHR/HsDWAL7vY7A1Xv3Cz3cw+Pd70nENcG39wniBaJ3ffAHdW+Fyf+yh/8uPx4tEx3rQb9qIiIiIiKi8Oe1UPYvOZ5/G4g//J3i/dQ1bn7uF+++rYAFv4/brA9x5BwAeYvjVAQav38bb8XoWLiwCN/7BChy3gZ68SS2xvcHvhn//4R0AwMPhLrr/Wl1WdMh6v1KF/f4R7vz+AIPfv4Pg/TaWf/EVvPxzyUXtxz6ByvAWBr9/B+/8FwsX/u4mOn89uQwRERERER1/c9qpWsDZ9wP43tvo/pNX8OpvXEX1qefwCjz0fq2Jew8A4D9j9AdNNH+tBzk4b3jrKl58fV/6JI/YXvMfNNF86T4WfuIR4OEQg3/SwpvqoljA5iddWHgHb/7aCp5+vonm80/j6c/fwUM8AvdvX00s/fD/+a9RfVYs8/k7AYAFnHsssQgREREREc2BOe1UDbB39yHwgWW8/MceBt02nj67j+KuUoDR3eKl0hbwwm/Usfj+hxj+bhutP1C/B4CfwblHAQT38LXfGX+6/8/v4T6AM9Yj8sK4/61X4n/37o8AAGcsaQEiIiIiIpoLc9qp8tD65NNo/dabGH7vh2C7NWz+qwHaBxQ+5372ZTz9E2fw8O4A7RlPSkFERERERPNtTjtVC1j44Nvo/5PnUH18Cc99+R3gjI2l/0ZdzswP/eW/Ev/78YvnkHhh9NfbaP2sjTMP38arv9hKhBImfRn7IwDWOXxMGj+18Ivn8CiAh//rNG/IiIiIiIjouJvTTtWzePm1AV7+5Wfx5C9sovF/sMLQPvHtvVEAwILz5DVc+5dtPK2uHtnxsf8QOPPXnsbglQ46rwzw4mNymN7jaP9yFfYZILh7D5UrHXT+aQedf7qJeuqt2D5euekhwCN4/B/u4tVf76Dz66/i1U8v4szDIQb/wzjcj4iIiIiITo457VTtY/RfHsXjf/cqXvzM03B/OMCdf/NraIW/69T7wu/h7e8B1keWsfyTFXVlyYu49q/v4J2HFuzHqqh+BLj9Ox6C6Ou/fxVVW/zelfWRKqo/G/19ApfOy9sR9j/fwAuffxPDdxew+DerqP7NRZz53h28uvkcWl9RlyYiIiIiopPgPecXL/7gfQ/fVT8nIiIiIiIiA3P6poqIiIiIiOh4YKeKiIiIiIioBHaqiIiIiIiISmCnioiIiIiIqAR2qoiIiIiIiEpgp4qIiIiIiKgEdqqIiIiIiIhKYKeKiIiIiIioBHaqiIiIiIiISmCnioiIiIiIqAR2qoiIiIiIiEpgp4qIiIiIiKgEdqqIiIiIiIhKYKeKiIiIiIioBHaqiIiIiIiISmCnioiIiIiIqAR2qqiEOrqeD3/QVr84emtdeL6PwZb6BZXVHvjwvS7q6heHqo2B78PrHu1RzIt61zsGeUbZjnFbOhHWS5rC1gC+76G7pn4xjRJlMLxv8Kddf0r1rgffH2Deaz/NU6dqawA/LOzy32EWfJrO8bgJp+mUuEAdqsM/zvbgJNwE03FVut3kg6VT7PDbw+PLMC3WuvA2XIxuOnAcB26jpy5BVGh+OlUAgADetijwjuPA2fYAt3msb2yynhBnfU4ERDdEs3pyR0RTY12kY8z4XoLlOFf9CQcWhtjbVL8hMjdnnSrFTgPXvQCwl/ja9BhrVR04bgN87jOPWqjOxVO7eTlOIjOl282dBlzHQZU3iacQ28MxpgUdnvnuVAHoveEjQAULfPpCRERERERHYO47Vap4nEM8Bkse/BcOBpbHZWWEDrYHyeUGW/q4XDHAUDPGK4xnb7oWYLlo+r4YiPkvMj6POoWasWOJmPj4Ff74XORjyjyeAibrpZc5py6ipY4NiMMVpEGh4/NU8kgJaxiHOoj8GB+P2SDP9DkkzzNdfnwpf5R96sqOck7q8cfbV5YbH0d4/hsuLFhwN9Tv1fNWj0N8P9iSyrD8fcHxpenLvZmi+lb0/Vi6PqaWyDjOdHollpk4PfJozkfanloPYsrYF7WMmg/g1uw/lZ4GZVhdxrBuFe+/6PtkiFIyz9PHkEonNW0L8rZ8XUwfQ7r86aXXS7elmeUlIZ2m6jVoXFc0bYOcLsq1J1nHsuqXyQQbanlKL59ud6X8LsjHNNNjHadHMj809a3ouqyTWZY16xZuX5N3X30j515CToOCcly4bz21DGvTTUstD+m6jQm2X5i2meUhIr5vuhYAGzXpmNL3KtExpOtdcbkMacpzsvar5XRM3yaYpScdjrnvVIk42BH2d6QPKyvwFvfCsVdVtBAV5CbcUX88JsvpY2jXlEIqCnSt4qEjLYfVGmxpFwgLeNMdoa+M8fK69Tj0ouMFQBBty0Xj/5zx+U6472WMtxcuZ6+mGxPnyjrwUnJAZe7x5DBZL7WM04Hv1OBaiU2Zs1w0rwDXw+31h4C96sHzmqjckvLHctFMNS4O1v0l7EnH4gU2agWNSeocNOcJALBr8OPy04EXWHCvePD8FYyiMX3bHgK7llx3awBfGujqOB14cNFUG0G7Bl86d+fmEJbbDC8GPTTccPvSGMIoj+vdFSDefsZxAKgse1i6Ey5TbYkPTY9vJtoY+E24SNajYfT1AdTHlLUuPL8GeyjtY9vDKPp+1umxdRmO30mej1R+W3eGgOXgklKXk7H8bVx2fOlcHfSHFtyN/LJdmN4I65xcb3RlJ0yzijc+j/6wuG4V7t84vwGEN35x+Y3qt7Rcveul2iMvztgJ8rZEXTRuTxSp9aZuS+voekqayuU7g70qpe22h8Byse558JdHcd5lXXemYdpmaa/bpvlYgr3qYx3X4+NL1zfz67KOc0Uuy9G68s2/+fYT7fpjT+TcS8jyyrH5vpOmbKc07YtzE6itqq25yfZLXBsSRHhgxwsADMO0CMsfIO434jYiTN+Ctj5Tqjw76PgOapNXfkGTnmbtNR2U+e5UbQ3QdC0Mb8oVAIA1wm50IxlqP+XCGvbHN5iAqEzhReVy1MBtXYZrDdFPxLKHy8X/F4V5xUZy3+EYL8u9PGWB7qHhJs+l19jFEBYq56UPYQH+9WTjOe3xmKy31sWKHcDblo+th4ar3LRNJID30jiNW695CGDBGvWlMQAt3NCNmbMAX3ssNlbUC3XE5DxjQ/TjctJD49YQsCzAk9J8p4HdIWA5l8KLex3dZRsYysffQ+MlpXwBYvty+dq8AS8A7MXMXIr1Gm5yjER0HJXksy5rtKuMpZjk+MprD2qwAw8dtR6F6Trz+phSR/eKZh87DVTjm4kZp8dmVYnbD8tvZUGUkc09DGHBeUIuo3VcciwE3o2wXLZQVcbRiLqRH+JclN6CUodTZTjMl8DDdek8WtWCumWwf+P8DgVeJ5kvt5Id0nMVCxjuJduAarTvSfJ2yro4UXsimWlbeg4VCxje0ZXvHHK6RGXAQqI9jq47ybI6HdM2K33dniQfSxj2E/VW1DcbS/H2Ta/LOhbgy2VZpEd/CNjLUcfQfPvpdr0s830nTdlOhe1Aop3crIYdGpnB9qe+NkzIAnypbgAGbb2WKM/Jtm1cHqYxbXtNB2fOOlXjV9e+78NfrcDb1gzEDUa4l/igjSVbufhEdm7Dly6i7UVbsz6Anf3EE8D6Ew6swMMNZd+9+yOgoGEplHg9LJ66VB5NVpDR/eSFc9rjMVlPLOPjduoJ2D2Mpm291O2F6RuMUimfpq4LxMeSulCHTM4zlrhZA3B3hECT5glrl+BYAbzXlDIWnlci/9Tto4f9EQoaZFky9KBmp9dNpeMkx1eaqG+BfztjkP2E9TGVXun6mLJ2CY56wyk7wPSQw1FEaE4lDO8QF97ETXd4HP4bSkrJITlh2E72TU5Reoc09eaeqDTh8YX5ckudHCG/bhXv3zy/BU163B0hkNLg3igAdG87MGHepsqWWV2cqD2RzLYtFesUv1VIUvPh3igA1GiPmStus1LX3UnysQQ1PTK3b3BdTtOU5VS9CxlsP9Wuz4rBvrWmaKdS6R3XG42c7U99bZhYdt3Ibus1str6uA5Oatr2mg7SnHWqlCnVta+6AYz2k4VsbQEV+f+Z6lioaNbXOFeR45ilv9Rr7EmEsbEbDvz4PHVPMAOM7iY/mfZ4TNY7V5ny1fQxYnKepZyvJOLVx3+ThiLkE414MxF6oHvKleoAHtLxAeP6ljqGyKT1cRrnK7A09SR2AOkRjQGoYRyOpT6BFRPrjJ+CiyeN0k12dHOzKoXkFD15LUpvU+F27FU1TZr5oWlF+zfOb3O9hhuH6vm+Ms7gAPJWNW17Mtu2VIR1ibAosX9tJ/OImbZZqevuIeSjGdPr8rTMt59Zx6Zmvu+EEu2UkcLtl7g2TErt7Bu29SnnK5hl7Z+6vaYDNWedqinN/MlF+GQhjmNW/zI6ewXiEJop1p/2eEzWm+4pytHIepJncp6l3B0l4tXVv5lM57o1QM0W+5h4e4dxfJGi+lb0fSx8azCN8O1iptLpoVzU17pYdy0Mb0pj2HQSb2bUJ41SyGIipr+AcXoWCLczlMe/yH9Z51W0/6Lvp7VZDY8tHM8QjSMonbfFpm1PDqItbVXD/UadzKJxHVOZ5k3aUbVZUx5rhjLX5VzhzfqBbd/AdPs+6HbKZPslrg1lmbb1qqJrUszw3KZtr+lAnY5OVRQmoYuTT4QJ9XDb14zhAYCtpcTTsd79kXbQ+cwp+80y7fGYrJe5TJh2hy7nWLKe5GWew6zs7GM0ozEIkxE35oUO9fhy6huQ/70StifCvIrrY0rR+RZ9X0gzniVFjJdKCscH2Utoby3BNvixSTGRRZ6c9JzItNspWi/n+6IwTSPROIow7K503habtj3JXG8WbWk0NkUNq5uhVEjRVMd9OG3WbI41Q1H7E9Mdf9guqG/mZMbbPwBT7rtMO9VeLN6juv2prw0HQtfWKzLLc8a6qXqs1pvs9KSjc0o6VeHgVruWnn56QzwRicZliUGayZmmgDYGaljH5g0xK5w6281aFwMpBCPrIqr7XMRZy59p9pvF8HhSTNbTLhM+TRqvcYgsuFeU/NkQAzbVMQ4x7TkYpI+xaLxMNHNYpI7uYIqZqnQNcDiuRP6sPTANhZnx8eXKqW+Ddv7309bHlBaq4ZN7dXY7kd/l0qPeXUl2iMKnhvIFrt5d14dhbO6Jc1q1pQkqgPgJpXyjED4VzZeTnhO9tYg6fOmxSu1B3mxSRfvP+V7Jb1Pq8SRngS2Xtym6ujhte6Jdb9q2VM1fg5v1qUUPHGvJWeuKjvtI2qwpjzVDqesyAMtdT4x5aw+acKWxYmW3r7uX0NKU4+n2XaKd0rUvWwMxxk5azmT7018bSpqkrU/Ql2fdumKmWBfrUjql601GemraRzo8p6RThXCK83AKXyk2u+J10jNSxeEk0XJL2EvFGUfx7NHvGoR/GxXsJWa2iS6ifvJ3FjSfi1lg5Bhy3X6zGB5Pisl6PTTcaNryaJl14KUOisKID0TgoXOrIuVPOG22MltQksl5lhON80jGODdRuZN3XFnGDbAfjZXYacCVx5H4Yqpe7fgEjdkeX4GM+obojUTG99PXR43NajzN9Ti/HYzCgcKTp8f490DElNhyaEr4tkQ6n3Vcz4izb2FvCO0g9lZVqWdXgOtFYxWQnZ5xepvSpZnvY2Ukd/40ivaf8X06v00l67GaH5PnbR5NXZy6PZlxW5pIz3B69anSs1g8a12cpgbHfURt1lTHmqHcdTmAt72LijQurGYP0ZfC7cptX38voZcux9Pue+p2arOaHAvp++LnS24m92i2/RLXhlImaeuTeg03nlI/d93wrXNhvZm2vaYD857zixd/8L6H76qfU0obA78G3NTMNkiHpt710HR8ZepmIiKiY2StC2/Dgb89yXglIppnp+dNVVlbS7DzZhMjIiIiIqJTiZ0q1VoXnjoOYa0Lb9VGIP/4KxERERERETtVGjv7GCXi1MWPzo1u5k3hSkREREREpxXHVBEREREREZXAN1VEREREREQlsFNFRERERERUAjtVREREREREJbBTRUREREREVAI7VURERERERCWwU0VERERERFQCO1VEJ93WAL7vobumfkFEp0W968H3uqirX9D8OQlt+izPYZbbOiTtgT91fax3Pfj+AG31i2nMYdodZyevU7XWhef7GGypX8y3cpWojq4n/Zhx+HcoaTTT/Ghj4PvwutM0QzR2mOlYfl/lyj4dSzNtF8ycrHJUvl7R4SpzE01HSdQ19f7J9334g5PRmszc1uDw7jGPmZPXqTpqa114x6nXvzWA7zfhjvpwHGf8t+2hsspGfjKicT2NDQXRPGkPeMNDRLMTeJ3kPZTTgVepndrOQ67NKpybQ9irJ+UhlrmT16naacB1HFQ31S/mW6/hwnGqaKlf5Fnrwlu1RWNQVdbcacB1+hhaLpoHefMx0/xooeo4cBs99QuayGGmY/l9TVX26Xibabtg5mSVo/L1ig5Xq+rAcRtgjp0UPTRcBx0vgL16jB6kHxebVXS8CmoHeX95DJ28ThXF2k+5sAIP1zMvvC1Ubw4Be4UNAhEREdEEeo1dDGHBeYIxP6pew4Xz2r1TFQ01Z50qNbZ1gLY6yC4rVj+M8Rz/ZT1ZUPchx61rxibF4XPhdxsuLFhwN9R1i7YtxIOJw/OIjnPy8QBtLNlA4N/OfzK2uadpENTj1KSzFAonji0jXbPyQ6M9SKbNYEsdN6D+P16zMF0FTf5JT1GS55E8F3FsNdgA7NX0ukXbBuTQ0PGy8nGmzz+xtiE1LXRlJisdNbLqTao8hFL5bbiv1H7Gx21e9ovyoOj7ZPhuMj/S+0+VFyWUVv1eTYM4RC0+96/iDU9zTEint7ptbV4oxhMVKGVEtz91Gc3xp9sq8SfyXklrNcxYLSdl0l0+9zAtazYAW4TmRNtIlKOs8hsddyJNitMik5I2qXTQiMuFsq7uWpI+jsmONUrraBmzfevqq9peja8PifyMzl9ZX9fWqfmcOoYimWVKvz/1mPTlI52+8rbUY5bzWz+mSt1eurybLSMYnacks21V60dmWmrW1TI7h1T6GeWBfluAaZ6W1cLeELCcSxO1/8Y0bcg5dRm1vQ2XS+/RPO3U489bVpUoIxtNXC4ohyfJ/HSq1rrw/BoqclzrTaC2aqtLprQHPvzVCrztcTxsxwPcDaXRCfdhD6XxR9seRtH3W5fh+HJcrRw+J14FO9seAgTxvuLwjK0BfPX4tz3AbWpuahysXwGuOw4cx0VjR/naxNoCKgBG93O7VADuYRQAViWsphOms73qYx3X42X7QwvuhnnlE0SDUKt46Ehpi1XRicllnK5tDPwmXCT3MZS+v+z40nfJc2lVx8sPb4bLRCGVa114qXFrfQztmrZhc66sAy/J5UNz/jeHsFeLL4oJE+ZdkXrXg79qj8/XcdDx4towO1uDVP3sjzPGUEH+TpRH4qHI0p1ouQ68wEZNWq7e9dB0R+jH2+pATpr2wE9+H5bJ1IW1sgJvcS/cxmPo+QFgL6XqT3vRBgIft3dQWFZzWS6a/hL2pOMK7FryuIzrVLi9uK0S+WavevC8Jiq3pHQ2CjMuTvfCc9+sxseBuB3XhPxpHyYBWLsExwKGd8I1JkkL1dYA/oaLUVx/OvDgopkqbxp2Db6Urs7NISy3md8eFF2/FO2Bj5otrlWJMMLCfdfRXYZU9rNDoOxVKT+3PQSWi3XPg788ivNQt65x/THgXJHLVLS/ZNtqdo/QxkAtCzfHDVVRm5Ciaa/7Qxs1+eZVs4y+TZ/RNSSXSf3UMD6HgrqNSbZlmqezcU/cRMWdnZmV31Qb4qDjO6i5lrJc3r1pyDjtRFlKluWobKbreNJhlMPjbW46Ve2nXFjDfrLx36yi4wXyYmlrXazYAbztZOek13DFDcCy9KbpithHYvzRTgPVaJ+bVSWGvYUbXgBUFvIbFdTRXRZjmxLr7zTg6sLvLMB/6WhirydOZ2XZ1mseAthYmqQCbV2Gaw3RT8Sbt1Dd9pCx15B5urYHNdiBh466jzivW6gq8e7iXCpYyG1ExmmWHLcWHr/lKk9pLMC/nuwob12GawXw5DzfrCrls9jEeZdnrYt118LwZnLcS69Rna6Tn6P+aEXqMAitquZGOEdR/k6WR2JQ8vi8e2jcGgKWg0thWThXsYDhnnSMPTSq4b7XulixgeFN6Rx2GrjuBbDcy8mOjzXCrnRMvTd8Tf0Rb52Ht6Jzm76sAgG87eRx7SaesprXKSFZbsVxWLBGfSn9wnZS01lUFaV7uXOXZTxdfsKBFXi4sYkp0kIm1sVQToceGi/py1ua0h5u3oAXAPZiVgoaXL8k4w6V7qFd0b57aLjJ+hmFQFXOSx9CXB/i84/KmoVEmUmFT01SfwpZgC+XKc213/QeYW0BFQTw30i2r9G2c9sEDV14fqvaxxA2VqI3h6Zt+oyuIUWK62ea8TkY1G3jbZnm6UGYWfkdtz+68ptgcG9qnHbR/ZjyMKpV7cALLLhP5ZzBIZXD42xOOlVhKNvonvoFevfzHgVFF8nkDVukdUdqENQnlDnkV5tN10o8odBauwTHUhrjiPaJ6Qj7muM9SCJtJ0/nVHrt7GMEoPKoefURT+FHSO013FYm43Q1DIWEEi4QhnKmbhQSwhteNR0AYOc2fM2NkPr2sL1oA8Pd1M2N+vQrX/ZxZOVdnvoTDiwMsXcIEwn07o/EG4+iJ/+ZivI3O230eaQpU3dHCKSycG8UAOobnlDyxnxM5INy86+W+/DGM3EB2lqCrcuLicsqUp1XqOXMuE6F1O2FdVbXhhTT7FdJ99g0565ovaZ2cOq45FjjcjRpWsjCdb3XpmwfEzfnANDD/gjZD/AmuH6d63o5HaoJ9p0ISxJRBep5qcdzbxQUXt8mqj+F9Pknl3nje4SdfYyQ/UY4r01IUx+UROTIkex2S23TZ3MNKaJJy6z6GTM/h1hm3TbflnGeHoCZld+c9kfUo7Tse1PztBNlSW0DAKCH2xmRFJHDKYfH23x0qoxD2dLOVZTXpFnOV2AhwOiu+sVYFGNawzi8ItXL1zlfgeFRCOqN1jRML944h4oVpm2JdJ5eHQsVAKP9jBviHKbpanJe0Q3CqhTWUvimbLxtc2oZC88/Hv+hNIqmJj6OfOcq1mzKoYnNahyGJs5df9OSqSh/Z5w2CJ8WRmFRvp+MXz9XscIwu2R++qkwC325T170ozce0kVu2rJqwrROHZVZnrvaoQ6fssY3MWXS4nwlMbZ2/GcQ0jwNg+sXIMI1a66FwFPelk8kHJex4cCPQ6vkUOpyJqo/M2B8j4AWqlHIW3hMckhTXpuQErZJ8fjc+K+JuNk3brdmdA05CMbnYFC3J9iWeZ7OhvyWcmbld4L2p/De1DjtwrI0lWNcDg/RfHSqSsjq0afcHeVfmKVwqNT05EWKtn0g9OEtKVlPweeBaboWvfGSQ2d04y/yFG67SPgUWB4HkfgzPJ7Sx5FUWG9M095UOMV2HKdfGLstKTr3ou+nFY7fiePXw87gvVEABPLYLvkv4+2ATH4LknrjUaKsmph1vs7UrM89+eQ19ZS1TFrcHSXG1qp/yVCdGTA91sBDJ7zxN3ujkhaH2pqU5SmUrj+mwodGhW1dQjh2WhqblUjHjDYhJWyT5PGqib9qa4J2a/priPqWYuaMz8Ggbhtva9I8LSv5Fmhm5de0TpvcmxqnXViWpjJ9OTxJ5qNTpT5RlLQX83v/IrRI/6o3Mfg7fLWfGc6hJcJFCuVte2sJtu61+gxE4S3rmRfPNgarNgLvhijsJdJ5ejmvlLeW8p/qGqerCKnQnVceEQJXJGfbhiE5ImxEc/4TyT6OafIur96MpcM+zNIsTw8Nt68fn5Ep+9yFnO8N8yhfNP5PhHaYpV0eEQ9vOZfQzgljkZVP95BxnTo+ypy7GM9jY2lLEx5TJi3y1j0Ik+wv/GHOMh2rlKK2egLl649MlybhdTt8S5y3v+QEMUnR2JZ4kqeEZJuQltMmxbKXUdv0cteQ9DGq25+e+TnoJOu2+bamzdPJ1dH1xEOGKNwvb98TyazTJved6jLmaZddlsJtakMDhex1T4/56FRFAyLVeOWtgZg6N89mNZxBJvnkux7FlccD6sRvNqUuNGtdDLr1uKcvF8p6d338qj6irQjZ2xY/zjt5KIZ43VvwND8cUG3pZqqSZooaPzUtkc4lRDc26ixfg8LX5abpGg4Qt2vpGQHDmRv3R0g2BuHTnyRdw5Sz7Q3x5K3oB0715y/SPQ4vWevGU9rqzTjvMuvNQPw/6oDLv5iuTbNi8TYj4Q1rYShTLCcPopk5s743zCNVe5B8Ai0u/uFYkc0bYkCvOvYiaksM9N7wEYShWslxF6ZldVqmdeoomJ+7+cVdvNG3V5M3RtF306dF2DFOzdhXR3eQExY2texj1Za5cIB6ankDYnyEfNNo0lZPwKj+iFnGTI7dcteVmQWbYjB99PY3s61T7hFSaZkcg5zbJqRktNeJ7WQso2nTja4hOuFbcfeKPIYzvf3pmZ6DSd023dYEeRqFsqr3RybWwhlloUyQZFR+TejbkNR9p9G9qXna9RrXw2iR5PGLejNEP+ttWJlyeILMSacq+XQtjtVc3EtMaZqlVR1PpTmO8Ryh7yivYsOxHZD3seFg9EZv/ORJihddx3XNmKpxRfDl3ybQbltMlTnzUBDZZlWEVFWUONcoHl6tICXSeXotVONwiegYl7BnEqdvmq47DbjRFNrxPmpA+GRazGwzjpX3rwDXU2M1xg2T70sNcca2K14nnb5aYaw+lDjs5VF8k5c38DY247zT1htnFB5D9EapKM1MVJJjT1Yr2YPos2TkQZS/Wd+b55FKOu+4PYnCG0SIkJiCVjqvjQr2TOt62GmFJjTXrKyWYFqnjoDpuccXd98vHKPXuiPqh3aikxJpEY2xSY6baaJyR52cYEa0xxpdv9J6DTfuWOWO/1GINzTyeDHDttqYQf3JGcSfFMDb3kVFal9q9jB17de2dZp7hIqctmH7MS4HeW2Chi6/fB8rozByJFrGqE0vvobohfc18rVXu/0SDM/BqG4bbgsT5KmpxD596R5KmbHQqPwaiuqo3Iak7zsN702N005//GKa9JzyDJQohyfHe84vXvzB+x6+q34+P7YG4cDGosymUo4kncXvgkCZ1vs0ag98rIyUqZ2JiE6jrYH4ravUDa1krQtvw4E/6QMaIqIpzc+bqgwiPvaQZik7xY4knScOAzup2liyh9hlh4qICO1FWzMdORHR0ZqbTlW966ViMtPxsVTWkaTzWheeGtNsNG7htGiheqhvCImIjq9WldELRHT8zE/439ZAM89/+lefqaQjSWcR5pfaK8P+iIhoGgz/I6JDNj+dKiIiIiIiomNobsL/iIiIiIiIjiN2qoiIiIiIiEpgp4qIiIiIiKgEdqqIiIiIiIhKYKeKiIiIiIioBHaqiIiIiIiISmCnakbaAx+++gO2Jta68Hw/9YO7J1J4rr7vw+vW1W/nRBuDQzr+9sCH73Vx8HsiIh226zQfZnldmuW2stW7Hnx/gClqFx1Lh1Nujjt2qqYyfeE5FQ2J7oZirQtvw8XopgPHceA2evORFrpzoQlMW1emXY9MsMOuM32ZO/i2TBxb1MET+xMPqJJ/B3QMa114U5eX8NjjPw/dNXUZooN18HV0dtT6PfH9x9Ygsf40bdqhKNWuHE/sVNGhqD/hwMIQe5vqN0RElKc9qMEe9uFUW9KnQ/Qd8ZBq/FeFvMQs1Lse/A0XlvqFibUuPL+GiteRjtFFY0ddkIgQ1remOxrX7ZtD2KvmHat614O/WoG3HdW3PkZu89h1rEq1K8cYO1VTaaEavm2ZVK/hHsiF71jZacB1HFQLOlBzkRaG50JZpq0r065HJlpVB47bAFNXNn2ZO9C2bK2LFTuA99qBbD1b+LS76U5729PGYMMFvM5UaUo0SwdaR2emjcuuheFN6Tg3q+gPAXvZ5I1OtL784KKF6s0hLPfy8XhLV7pdOd7YqSIiIjqm6k84sAIftw/57U790QoQeOg4DjpeoH5dbGsJNobYZYeKyExYZ9SIntadIWA5uFQUNru1BBsBRneVzzf3MISNJcO3XQepdLtyzM1Np6re9cIxAGp8tj5GVo1J1S6nxJ0ml6mj68nfyXGpObH30mQMvp8et2Aa16sev3ZfCnUded/xgOuC4wuXLpfGiXFIYlviqYSNmrRcVlpkblf7nRKfv9aF53voro3zT0679kBe1+CV+qRjqnKWT45jSZcvfV6oNOupA+kL0kBNw8KypdmevN/k9tTxEum6klUWk8eRs16i3kb7U8qsmibQLJPaZx513XS5VZU7Xk0+p8qHekzJcqfmc6o9kP4ft69KnojtKceSOg7NMtpzSmO7rtlXQh2XHAuBf3vyt4qZ6RCmgTYfx3oNt9TbzPaiDQz3ZvRmIJ1vyfJV9H3JdmxrkP4MmvY+3od6rdGXjYmvRyGj9VL5r1/OaFuAtr0pLr8hTf05py6jy8OCMhrTbL+t1MmsOqrWSd0ygC49dWUk53sD7UUbCEa4p35xd4QAFirn1S8mU3m0KDU1eaDWo5B5uUkq264cd3PTqRIcrPtL2ItjszvwAhs1zUUzEZPqOOgPbdTkQr41UOJOHfSH8jaacEf9cRz4todRvI8MlRV4V4Dr8X77GFoumqYNQ6g9UI5/2wMKYmLrahyu04GnHrDJ8a11UzHwIu2SDY04RmSkn0yE1IgnEtEYgOxX8PnbbeOy46MTH7+D/tCCu5FuBJ0r68BLYhkReiLKRa0inpA4zuSxykZ2bsMPAHtRPaI2lmyMb462LsPx5XEGYV5kNGBAlDdKuXT6GNo17cUnnQbTlS3Bgrsx3p5zcwjYNXieh2ZltzA/UuwafLks3hzCcpvFeWHX4C/uhfvrwAssuFc8eP4KRlGZ2fYQ2LXkOW0N4KtjO8Jzz7poxAzrhNbUx1tUPtoYqOdzc1wBjdoDleWiKeVJfwjYqx48r4nKrazjmLxcprFdz3YOFSuA/8aEtyC56XAY6lioAMHoXuqmtbCOp7Qx8JtwIbXdTh/x6UxU/mbcjmlZcDd8LN2JjiUsz4ljmfZ6pFnP6QOrNdjqcstI1JWOF8BelW/0TbdVsv3cGsCXJqlyHAcd30FNDf8qbPMymG4/xbBNiTpeqzaG8j6kBrU98FP1reMB7kZRfmqM9tMdjp394nYKOZ2vtQVUlI9SjOvRBOXmFJqvTpUF+NvyDXkPDbePIWysRBemrctwrSH6yo17qxre0DwlKqh4BZkMqWhVo3XOoWIBwzvSFnYaqBaFMVgj7CZ64C1Utz0ElovLphVrrYsVG8mY2p0GrntBbkzsuYqlPBXsoVFVngYYHF/7KRdW4OG6dK6tqprGA9TsAN52csDxOP2mVLjdFqrKE47Wax4CVLCQeCJkAf715GDorctwrQDeS9L6E8Uqm+rhth8A9lIyr9RQmM2qMs6ghRteAFQWMo+l/ZQLKzVYPZ2HgiYNpixbkcCTtrd5A14AWNYIfel4RH6YhBkM0ZfzMtxeujOqGkr766FxawhYFiAf204Du0PAci6FaVlHd9lGoI7t2GnAvTkE7JXcJ4pGdSLTNMdrUD7WFlCBcrO9WY3H/hm1BynJ+iHy0oI16ktjCsPjkMr3ZOVSg+16dt3LvRmK3vynnyrnp0MPDfegx9SJtLbcJtZxXbrRDAw6DkntQQ124KGj5kFY3iYtf7Ntx/QCryPVmajeS+Fb016PonqgpsW2h2QgVQ8NN1lXeo1dDOUbbuNtlWk/x+vK45J7DTfdyS9q87Qm2L7KsE3BWhfrroXhzeTY6l6jKspRNOZRuW+JjiE3PydU+KYpvJakOs9XHCiZmmJcj4zLzek0X50qbVz5PYwCwKqIl8nZIQfJm93e/ZF4Mqt9CiK2mSyYBnT7DZ8wFFaGkIif93BDiant3R8Bqc7D2L1RIJ645d3kFR6feJsyvKVebDVprM2Lcoy3K79m33BhaZ7MjO4nz0CUi93UrFP3xIlpQhGmJy5eyRvurHIpv0JvulbOsYR5I98QRjLejqlpMG3ZEtSn5T3sj6APVTCRSotwe7kXUM16d0cINOeasHYJTtbT/s09DGHBeSJrr2Z1ItM0xyvJLB87+xgh+2m6UXugUute2DYEo7wcnrxcpqj7BVLpm1V/Tnq7Loywn0of6Gf/C2+I8tNhVjShQurbW+VhRK9xXTw8Mb7RVN7wp0xa/tR2oGQ7pqXuI/0GYdrrUWY9yHqTkQiLE28SojJrvK0y7WfOuvdG+lvwzDZPZ+0SHEvfnmZtP5J5/kqbUjRzcd6YR+OxUIbEeabDMOU3Sa1q9KY1+n4deOk6fGVbSeb1KDPd1HIzNYN25Ribr05VIRFyYGSzGofdpDNNPMmTC+ZENyclnBOP99BUK81q/ovVXsONQ6jUSmYsfCpqr6oFuonxm/QwjXWvqEsx2G50gViVwhq0T0fUgZrhtuO8Hv8dzAw0LezJbx6ip9RSgxWFxNQwftWeO2gz94m1jpoG05etuXe+Mv20rUZ1YvaKy0cL1ThMThyT/PR/Ju2BiYnL5TROb7s+tdx0mJXwjVeiY5d86p/uDIU3rHk3yrKwfOlumoHDKn+zNu31aIJ6EN14bzjwpam1pQBh822VaT8nWLe4zdM4X4GludYVMz//cxUrt9N9rmJ6hoZ0DxYT5VwMqUjUOzWCpyp/76KxI94cl69H5uk2veJ25Tg7MZ0q8TQ1fOpkKpwuexzDn3yCGRfM6OakxFO/zMKsuDcK4plRkoUqqhzqGpLN6rjxtFw0J7iQju734icNctxw4q/amjyNjRVtt47ulfD19MQVLNz2UI4Vlv8m3V4x+QlV6im1FE6QfNWeYwZPgUqVrXkWvh2ailGdmDHj8jG++ERhVYlOQon2wNgMymUetusweJOVoSAdDlbBm9ycm9SEovJV9P2slGlDUqa9HpnXgzhkMrNsmW+r1Lmbrmvc5s2K+fkXvfEq+n4SmW8qp+48hjJmFYwZ1yPzdDut5qtTpXuNqrz+FWEvyngWAAhnUdK+toxj+NNhZIC4OekUxvZCv9+sKS4ziLANzXlOJIpvVS7GhccXhscUhOtkp3E502xXvJovNs22S9m8AS+w4DzRNpy9KyyfmXLyJqwD2lf3ktmUrTkUhsppQ1TC8q8LTxFy0v1Q5ZePKH5ffxOb0R7MRE76GJZLbZlkuy4Y3+zkKUiHA5ExtjTKr7yIhISc8gXkf29a/oyl08/0+qPKLs/5MtfbWiqeJEBZxnhbZdrPzHXz2zPBYJnM8MPidTPPX2lTiupu3vfGQxpCvTd87Vi+SbeTJMad6dvIiHk9ykw3tdycUvPVqYIF94ocxiJ+XFB+CyBittWZo4D2oCkG14VPQerdgTIdpnyRbGOgTNdqdiGwUVNnxVrVx05nCm/GU2Ml1roY5ISqtAfJ5UVjr8biFx1fOKBWMxZD3n52Gpd7Ep6/3fAJiVyZw6dbJqJxTskZmMT4rEkGTZsTNxWWW4NrKb/VEt4oyQ1YvbteEE7WQ+OlMJwnUTbDOjCUJxPIMGXZmn/Rjx8qM62F5T8xcD3FrE7MlEn5SOVZOPYkHP+kHpu+PZiFGZRLtuvyJ4p7GAW6m8Z8+ekQjllQ28IZi/NMSjtRjqUfMpamINfLKV+Ddv73xuXPQDSuZFXKvwmuP6ppr0f69doYKGGk4o2HfKOfXsZ0W+XaTzHZhDqza6o9M2nztAy3r2HapogJRCy4G+qMgGEdy/zeExNvxZORiHqnXkcS4okmpGOKJvCSJzXJobb9qfPRMq9H5uXmdJqvTlXgoXOrIsWl12AP+0o8aRQ3n5wZSUz/KL9Wr0gD+aLpMKVX5Yl453CaydxCKV7nd0Yr4/XCX5MvXC9Bf/z+RgV7ubNUJZcX04QqYQQmxxfG4iMaixH+rYxuSNvSH2MNeU9CTORvV8zKI313BbiuHVOlE45BgTKuYXmUGjw+K+Kpk26ge/jmQCpj67heHD++04AbTXEan0M4za1RGdOnb3HZOgF05Tqchjc545SGbt1UnZgls/JRSRyPKAfjczFoD2albLlku64uLAkfzsgzQ8aUbfm+9Ns4BelwKHpouB14lXGai3I4Po68Qf6xjPKF6A1UxvfG5c9I9LZv2uuPatrrUQvVOJw3Wm8Je4nxUtGba3mygvQyptsCMtpAw/az13Dj8ORo3XR7Ztbm6ZhtX0dfJ9NtiggZjqZIj5ZrOqO43Gq/V8p63qQdMjHRhHRME9dd9f7JcMiEcT2aoNycQu85v3jxB+97+K76+bFT73poOr4yrSqZag/CyjWziwwRUTls1w2sdeFtOPAnurGaD+2Bj5WRMlU30Qwcu7ZlawB/eXR8jocOxHy9qSIiIjpNdhrYHUq/m3NitLFkK6HRRDNhGtp7eNqLtuanOeikYaeKiIjoGGtVw7CcEjMVHj8tVE3CkohytAfpMXlm44gOV6ua/PFgOpnYqSIiIjrWwt+mOUY3iUTHwb1RcixT1rgoosMwN2OqiIiIiIiIjiO+qSIiIiIiIiqBnSoiIiIiIqIS2KkiIiIiIiIqgZ0qIiIiIiKiEtipIiIiIiIiKoGdKiIiIiIiohLYqSpQ73rw/QFm8ZOLs9wWUVobA9+H162rXxARERHRAZqrTpXolEg/8pbx6/LqcoMtdYljYq0L79geXx1dL/mDevGf1wVv2+eV6Hil8jSnPlEkrBMs/0RERKSYm05Vveuh6fjoOA4cx4Gz7SGwa6kbwXrXQ9MdoR8td3MIe/W4dlzmwLAv0lH6649cNPlGZK4FXkfJ1w68Su14P4Q4cj003A48uFhn2SciIiLJ3HSqcH8XHbeBXvT/nQauewFgL0nhdG1cdi0Mb1bRij7arKI/BOzlY/h0eacB13FQ3VS/ON5aVdFZtdwmb8BPjB4aroOOF8Be9dBdU78noYfGrSEs9zLDeImIiCg2N52q3mZr3KGKPrs/AlDBQnQDuLUEG0PsKZ2U1p0hYDm4xBvF2dm8AS8A7EXeWp4kvcYuhrDgPHHsHkEcH5t7GMLGEh8oEBERUWhuOlUm2os2EIxwT/3i7ggBLFTOq18owjFO8tihc+oyurFGujEWJtsyGVO11oXnizcH7UFyv7r11PFkaoheexCOndkahMtMO3FGD7d9+U1h1iQJYXpJYZrxMShplF5Xdz7t1PYEdayQ7rw0eaduJzO909tTj01bDmRxmo//Enk4wb4RpWPWtqbWwt4QsJxL4bmIdB1sSfuL00xNc016atIpOw9nmT/pbenK13REGvGBAhEREUXmulMlOlE+bu9IH472U2+0sLOPkfqZamsAf8PF6OZ4nEnHd1BzLWW5y3B8eTxKH0PLRVO++TPd1gScKz6W7kjb84LUWLH2wE+OJ9v2ALeZvpmsrMBb3Au3JYVKTij1pnASdg3+FeC6NPZNDSdMnY/Tge/UkErGtS48v4aKNE6oP7RRk2+017rw/CbckTxGrI+hXdN0hiy4G3J6d+AFNmrScqmxe04HXm4hq6O7DGn5rFC74n1HHYZaxRuPMXT6wGoNtrypKd0bBYBVSTwEqCx742OqihJT764AUhmPxjnK5W2yPJxV/tTR9ZRtbXvFbcAE7o0CoLKQ34kmIiKiU2NuO1X1roeaHcB7SRpnVaDyaNYtUB3dZRuB10mMb+o1XPSH8nJijJbbkPfYwg1PvsGaYFvGLMDXby8eK7bWxYqN5HiycNxZavyHNcJueGN8dIboy2Pk1HDCtS5W7ADettzp66Hh9qEmY/spF1bg4bqUL61qH0PYWAlv8NtPubCG/bhDEC6F6raHwHJxWXnLk8w/MY5GDiE9V7GA4V7y2Kp5ZbGHhpvswEahduob1KJ9Y+syXEtJv+hc4v/PljXaTY396zXc5Gc7DewOAasSdscmzcOZ5c85VCxgeEfa1k4D1US9Lad3f5TqeBIREdHpNYedKvGUvulaGN500ZDfUhUY3c+4qVq7BMcK4L+R/v7eSH+bKoceNV1rfIM1xbaK5Wwv3G/9CQdW4OGGeuOre5ukC5E8bIkOCQD0sD9C3DmtP+HAwgj7qfy9h2QytrFkA8NbaodGLCdu8MNl5JvsyM5t+KmxYZr0VkJI740CQHkrYyQR8ijeLCU7+8X7bi/amvQzfCM7pWCUVWKSYXY1u0Qezix/xPbTbwFn6O7owDqwRERENH/mrFPVxsBviqf0WbPm6UJy1hZQUT+Tna9AjUbKEo0PqWEcWtTxpNurCbY1S+cqFmCJqc4TY1JWNQFhuhDJKdQfraTDL2fkXMUy6/yFeWuvKuftN8chZkX5P4Vew41DFn3fYDxVNP5ow4G/LYW3qYsVqmNh1iejSL+F0z+QEA8WmolwWPlt7KR5ODtiJsP+UIQJznY8FREREVHa/HSqwnEzduChkzEOSDcWBIg6OgFGd9UvQqZPnde6WHctDG+Ox5WkmG5rVsKb1nujAAjkMTby32Rv9MzUccmxEPi3ww6a+vbhkIRvZ4by2B75r9o6uDc4m9Vx58hy0UxNljDWHkRlt2xehG/0DkzOWyPZ1kCE3247SjjsFA4of1rVsAxEnV910osyjujhCRERER1Pc9OpisbNJH6rStF7w0egmepYO6GFbGcfI+000qLjkE9ZptS2suRsL3zrJMZ4HN608e2BeGO4q9xQx+NpImuXMM1pZ06Dn9peGOqVOxNbzjLh9go7Ebmi8UwTTtqxtTTVxBIi9FD+fbbQlNsbq6Pric6fGkZqRnTIIjPJw1nkz2ZVvE3WvcUuw+QtHBEREZ0Kc9Kpyho3owgHytur0huD6Il67oQWYrIJdfa5enc9OUtZ+ERdvvlLLWO6rQlZ7npifIjo1ATwXgtvNjdvwAssuBvK25K1LgYzDX0SYWw1e4h+4o1hNMV6TTrvOrpX3Ome6GvPR7e9cJICzfim9iBat4fGS2JmuuTbijYGG2KCBG0oaY7xtoXs8UOCeIsqdzDaGOhCMw2ICS7UGQGn3x4QvQluwkX+g4tYOIZJ7uy3B8rsg5Pk4Uzzp41BYjvJBxDytOxAFNIb/T8cIxanbRi2qbzlai/aUhitug4RERGdNnPSqRLS42bCP+mGp1WNptOOxhRV4G0Xh1z1Gm48TXm03XVcT46Xit5I2LWcZUy3NYkA3vYuKuH4ED/u1MjnFY0jkc7d9+FvVLBXJjxLOlfxVwun0U6HYMYzEsbnvQ681MF0p91Dww2nyo73nbG9zWo8fbx8rCujG4mZEN1oim7pXCpeJzuUM1cyncW04ek0iYi0GY/x8f0l7E01pgqiHMYhh9NtLx4LFv1FY71MOlQI01MeU+aLKc6TM1xOkIezzp/EdsLp1aOp4J9wYOW9uS5kGCJJREREp8Z7zi9e/MH7Hr6rfk7HxVoX3oYD36BjeDqI3yBy/E75sTx0RI42D9sDHyujEvveGsBfRW4nmoiIiE6XuXpTRRSNsdHNRkdz4kjzsI0lOz0W0Fz0O3TSW1AiIiI69dipomOqjUFqjMq0Y2zoaBzHPGyhOvUbJvGGzUXyh6aJiIiIGP533J3a8L/wBlaZ5SLwSoRt0SFjHhIREdHpwE4VERERERFRCQz/IyIiIiIiKoGdKiIiIiIiohLYqSIiIiIiIiqBnSoiIiIiIqIS2KkiIiIiIiIqgZ0qIiIiIiKiEtiposmtdeH5Pnzfh9dN/rTrUat3Pfj+AG31C6IytgbwfQ/dNfULooNUR9fz4Q9OS4t22s6XjtSJatfbGBzDe7LTZg47VWGjG97UR3+DLXW5g3D8C2174MP3ujiwI1zrwttwMbrpwHGcA/kR1wM/h6MQdkQPp5weHnZiiQ7X8W8fZ3udnGkbMyft8PHP41NsTsoQDMuRyTJkbr46VVsD+H4T7qgPxxE39Y7jwNn2UFk9ZQVjrQvP6AmLuMDNqgGoP+HAwhB7m+o3dKwZlxeifO0B3yQce6zvRESHbn46VWtdeKs2Aq8Dp9pKfrfTgOv0MbRcNA/0Yt9C9YDezsxKq+rAcRs4vkdY7CScQ8pOA67joHrCOqO9hgvHqUKpkUR0QI5/+zjb6+RM25g5aYePfx6fYnNShmBYjkyWIXNz06lqP+XCCjxcz2yoW6jeHAL2Cp/OERERERHRoZmTTlUbSzYQ+Lfze9ObexjCgvNEMgiwPVDHX6kx3+MQORG/HS2rhk+o6+lkbUu3nlg2MT5MedMWh9psDcJlvoo3PB/+hgsLFtyN5Lbl+Fhx3jXYAOxVdfvF+04SyzddC4CNmu/Hce71rif2GU9gEaWbZvybQYimcYyvNGFGtO1ziQWyBz3r96GmiWkcv2Y9dQBsVhx2nK/Rn1rmIuo+0uU3sZ34nMM0yCgvWeurZTUrj03GO8TrpvajrBeHLI3LjXwcmfUpK221+VxwDMbLCJnHlCEzvbTlRfw/2X5p1tXS1L1EPSg4R11e3P4qfN9HzQZg17Trqemhfq9leK6maZcuq+JPlA8lXVJtAKZLm5xymlo/h7qu1022aNCWaVlefc+6fqnt5PgaFudH+F18PVLSVteepPeTZnK+mfmeosk3bb3StBUzaYdNvjej5nFmG6q5tmmZnp/mmtpW09+ovqplaqzcuZVJX3Xd7DKVvmeUvswqQxrp8t3W1rX0OWjSL5WHxcegprWOyTJkbj46VWsLqAAY3c/tUgG4h1EAWJWoYRYFs1bx0InHYPWBVdHRUNmrPtZxPR6r1R9acDeyK16eyrKX2JZzcwjLbSoX3xUgnPAhGhsW2LV0BauswFvcC5d7DE+44bII4G1nTxjRqorzHQIYRvsJQyeN9x0TIR0dLwAwRN9xlJAMB+tXgOuOA8dx0dgBsHUZjt+Rxr/NMERzawBfmjDDcRx0fAc111KXNLPWhefXUPHGx9sf2qjlNLyAfj3nJlBb1ZWwpPbAh79aifPQcRx0PMDd0DXiNdhDaSzhtodR+HV+XvbQyCsvWwP46vFve4Db1FzUNHlszMG6v4S9uCx04AX69HWurAMvJY+zPfDRdEdhuRsfo9etAzu34QeAvahuSXkYo8mrVB5rlsnKz9xjmglxU7x0R0mzwgtgGwO/CRfJdm8Yfa05x1Q6hBJ5cemxcFkAcVmM2gDR1ibSI95uxg1cwrTnmsFy0YzLqjhme9WD5zVRuSWlidoeTZs2jV7pNEiVJ6cD36lhsiatoL5PoLLsjfNDDrm3a/CltI2ubUU3eKrZnG9Ik29Z9VY1q3Z4srZ0CpaLptyGFl6zBePzm+iaegD1tejcyqSvcfnQ3DPeHMJeLe7AqGZavlFHdxmJdqXjBbBXi9sVOlzz0ama1tZluNYQ/US8aAvVbQ9BYsHQsJ+4+LRe8xDAxtKElQkArNFu8kK2WUXHC2C5l+OLc6/hJuNydxrYHcqdwpA1wq46jqwk432bsgD/JSUud7OqXMxbuOEFQGVhuoY3Vkd3WYyvk8+h13DFDd8UdOGlrWofQ9hYyblotZ9yYSnlJsrrXGtdrNgBvO1k5yQ6B3s5ujjV0b0i9pG4sdlpoBruc/q8HKdj4vh3GnB1obS6PDZlAf623AnvoeHq0tcC/OvJDttaFys2MLwprb/TwPW4PvVw2w8Aeyl547u1BBtD7EYdM4M8Ns7PwmOajWQZ76FxawhYDi7lXEjbgxrswENHbffC8mOSDoImL7JEba0y9qVV7cALLLhPFafINOeaLYAnlVXRlluwRn1pH2F7JJWbUmlTJg3i9kBXR46GNdrNGDeiXFM3b8DTPtTIMePzNa63qpm1wxO2pVNR0itq551L2dfTSc5vwmvqzOtr7rmVS1/j8rF1Ga6VbDuwWVXSysCMy7dYN9mu9Bq7GMJC5bz0IR25E9mpCkb3AADtRRsIRhD/k+zsj58uSYZ3lI5LuFzlUeOqFEttC0Dv/ghABQuJyp8MR6nZSHc6dOcwEwb7NjbCfsbNl/wqvelagFVRwvQmtHYJjhXAfyN9e39vVHAR1RJvNIa31A6D+uZTFb4JCcubTOR1tvoTDqzAx21NmrXuSBentUtwLH15SpoiL3PSUR9Km53HhbTnqk9f9Y20SCsPN5QbPLk+iQtM8sa3vWgDw73wQmSSx+EymrRW89PkmMrT5M3dEYLcC2lRqLRJOoypeZElmdayjA5vyjTnmkMtb2FbrqurY+XSpkwaZLcHYt9HITOtUufYw/7IoL2RzPZ8j0E7PHFbOgXNcd4TBTPzejrp+allGpnXVM25zrK+qudWKn3N23VRh3dTD5KK0lmVne7TlG9JIjxTRFxNc39KB2c+OlXGnZtzqMQNQx0LFQCj/Yybi6MnOhvNRIic9qnQAZyD8b5NaTp+UTxxDeNwidSToWmcr2CqN+hZwvDSeNxZ/NfMf1VvHJaadq6St2HJ+QosBBjdVb8YmzovJ01HTR7PXvpcz1WsMDxEyZ9E6EYLe/KTzehNUnQhNcnjcBkTZsd0BIrKpEk6xNJ5oRe2tfOuVNqUSwPj9uAQZZahGZjp+RaV+RzGx1HUDk/alh6SmZ3fUSuTvsbteliH4/Gi4z8xltyccbobC8eDbTjw4zDOad960UGaj06VesOUJQz3Od6/oRQ+7d8aoGaLmPdp4t1LOYx9r3Wx7lpiLNeMQxfFEzET4RPUImGnPR53pv7N+vgzn/5pFJ1rmbws2vYh0T1hlt0bBUAgjw+S/8ZhLfKT19SbJJM8zniDrWN6TCr1yejMFZ2DSTpMzLCelXRYaTdd2pRLA+P2oJSST8ln6HDOt5jxcRS1lUXfHxHj85u5cvUhpUz6FrWJsfCY5TFziT/zaf3N092sTsYh3TnXFjoe5qRTFcbEWy7WM8e3tDFYtRF4N8KCnxNysbWknahilnTx5ZnhiDHxmvpoHMa+67jkzOAJzs4+RtrX/RnbT4WlqOcqGjZdnuXKnCAhzOscvfujzPhzUU7C0IHMc82jnl+GvG1vLcHWhXhMS3euOSEnsry0Sti8AS+w4DzRxiXHUkLgTPI4exk1P42PSSsdHqhuf3rZ5yAUfT+de6OMtjaqk6mQsWkdZdrlK5MGmeUprCOzpIYxHsQ+isz0fI9DO5z3/azb0gkYn19mCF3GNdVU4bXXUKn0za7XavnIrsOTyUz3jPI9VZ08hPtYmtzcdKqiAYmWbqYXaVYe+Wl9NM4iOSON6HwdOLuWmC2m3vVQk+P1w/hjuZFoD/SzEmrlNTIJmgal7L5NhE+H5P3Wu+uaMJppiAHm6oxTuu2LtxfJznj6XMNBtupsQwDag/SsX2MZ620NxJimPJvVcHbJ5Ow9opzIA2XF76+pM0dirYtBt26el9rykr1t8UPbhpMUGLHgXlHq4YaYFEAdl5QSdpZSM3FGaRATD1IstwbXGk9QEX2nzatEHmcso8tP42NShDcvibTQbX9qPTReEjNnpaZQH7Szz7GwrI/pbjx6jeva2Rzbg6aYvCH3LY+hw0i7EmlTKg205SmcHCGxoCFtfY8eNMrXphL7KGOm55uRbyZlY1btcM73alvajqalPwwTnJ/pNdWU2bXXlHn6ppmXD/09o1h2otn/jMu3WZ0UY7rkTtoh3cfSxOanUwXRQDhOB15FiXmN4kxTF60WqtG0ufHyS9g7hFjU4c0ORstyTC7gbUu/wi13EsNllu4YjoUBEo2gr/2dg8i4QfH9sDEvvW8T4SyLUnzyOq7PZkwVxKxEYkrRcRprtx/PulhwrpvV8fSsUtlaGUVvPjNsVuMpheP1Fvfg3FR3kNaqjqe2jdYVU7Aqr/h1x7bhYPRGb4K8zCgv2m2LaXUnDifME3jo3KpI9TCcmtjol9zFNNFiaupxWvkbFewpx9h7wxdhIrq3ArpzVfPYOD/NjykprBdym6Tdfgk7DbhOH8PE2IAaEI0vM0mHHPGNh+9Lv/WiTw8xNbF52Ey+Q0i7UmlTJg16aLjRzwxE664DL3WgNmlm9PU9nvUtbjfL7KOMGZ+vcb1Nm0k7nPm92pZmT5pwUEzPz/iaasr02mvKKH0zGJePFqpOBx6U8bLLo+KHfwnm5dukToplxr87d1j3sTS595xfvPiD9z18V/38hGtj4NeAm1InZ2YOcts0N7YG8FeRml75NKp3PTQdX5nim4jogB23dnitC2+jgt3jcjwG2H7PUh1drwl3pEzNTyfGfL2pmpUwBvfYznRDc694/BwRER2k49YO159wgHjc9zwIx1QdwAzERCfRye5UrXXhqbHLRjG4RGbqXS8Va52OVyciooMyL+1wr+EWh6odkfYgOe5KfGYwHpCIYie7U7Wzj5H6mwOmMbhEBnr3R6nftdHFqxMR0cFgO1zevVFy3JVvPB6QiCKndEwVERERERHRbJzsN1VEREREREQHjJ0qIiIiIiKiEtipIiIiIiIiKoGdKiIiIiIiohLYqSIiIiIiIiqBnSoiIiIiIqIS2Kk6QepdD74/gPJzx3TKlSsXbQx8H163rn4xhVluy8BaF57vp34UlA7BWheen/4x0RNhXsrVvByn1iG3FZS2NYB/UuvwpOa6Lh21OrqeD38w3R3IvDl5naoTWvjL3RgfghOa7vOoPfDhe12crtuRg264eZNHWY5J2TjgNljfroT1LvU5nTgHXL4OxDwe88wck3ZpSsf+njfDyetUHbWT/IT2VBEN0ulsjOn4YXlMKp8e7cFBdsJPix4abgceXKwf9M0br62U4zjU5+NwDHS0Tl6naqcB13FQ3VS/mG+9hgvHqaKlfnFcnNB0n0etqgPHbaCnfkEltFB1HLgNpiqpjknZOOA2OLtd6aHh9jFy19nhOckOuHwdiHk85pk5Ju3SlI79PW+Gk9epIiIiokPUQtW5jtvqx0REp8icdapEyIcf/w3QVgdTZsXQbg2k9fycAZjqPuSY1DB+XP4+jiUPv9twYcGCu6GuW7Rtod71xDbD84iOc9r4UrFeznlLIRXtgbycfl/p7YXL6dI9lebK97Pad4H0ell5L4hjqcEGYK+G6wzaueN21PEGcRhAnAbiWOP8VcuCZpsm5UVHPZZJJPNBU49gkK8ho20BU5/nLKWPVY1HV/8fr2l47Jq2I85zzXdqWdKWR5Nth+K6Nl5WPs70+SfWzpSuW+k6aVK3J9l/6fQIy2/NBmDXUseVPqf89kItG+q5qNsp+h4wr2MJuja40DiMUj1vtRwn2xVdW9hDb0ddLku63qTKbGw211aduJ2Or7e6dbPqvpoG47RM5HGUFkqeavNJOQ41HbOuK+G3U6WBoK6rqacm5Svzmq67N9DUq9Q+sspnuq5o63Nqe3pq2dceW568Ywjlpkdm+1ymTKXLrVl5F9Q00S2jk17vnLpIKL/MTXvPe9Tmp1O11oXn11DxOnAcR/zdBGqrtrpkSnvgw1+twNsO13McdDzA3dAV7BrsYX+8j20Po+j7rctwfGn/Th9Dy0Vz0A5DIMTyAYJ4X/Gr160BfPX4tz3AbWouJg7WrwDXHQeO46Kxo3xtrI3Ljo9OfLwO+kML7oZaUMWFaulOtFwHXmCjpmnQmy4S6dgfSgsk1NFdBvrSvjteAHtVbaxM9i0amqY7SmyvP7RRK2z8TNNgrFV1RN4CGN4M16tO8RK6sgJvcS/cr/Qa23LR9JewJ5WDwK4lG62JysssiDSuVTwprfrAqrh5TSxXmK+m2zqK81RNcKwq42NvY+A34SK5j7jq5LYrBeVxrQvPb8IdSW2W08fQrqVuyADAubIOvCSWE22T5vxvDmGvqhfotOL2wLxuT7L/0umxWR0fa9zWR/Vz8vZCJY5P+tv2EAAIvOto7BR/b1bHZquy7GEd18fHdHMIy20a30hNqt5dAaK8i9JAbQNjs7y2atg1+PH1dnzuWeWviL0qlfltD4HlYt3z4C+P4nKlzc+tAfwNF6M4XcRYtaZaj3XXlTJpUOLeKotzRa730flm1+ki9qqfKJ+JOplbn02Ur/P5x2DexqXbZ2HqMqVjUN5F2y7db4VlSV8/x1LrOR34Tg2upSyoKXPifm6CND+m5qZT1X7KhTXsJ+NDN6voeIG8WNpaFyt2AG872TnpNVz0h4C9LD15uyL2kbiB3mmgGu1zs6rEp7ZwwwuAykLq5iWpju6yjcDrJNffacC9OQTslWRFsAD/JV3s+qRaqCox8K3XPASoYEGpeIHXkeKOe2jcGgKWg0vS06CaJh1b1azGq4eGm/yu19jFEBYq56UPjfZ9Ga41RF9pKFvVDrzAgvtUXjU0T4OZs0bY1XbGAnjb0rnsNLA7BCzn0rgsTlJeZiFK40RatVANb/jGDPLVeFtHcJ4q42NVmR97e1CDHXjoqPuIysbU7cq4XUx2+sPjt1xcTly0LcCPbtxDW5fhWgE8ub3ZrCpto4Zhe2BWt6fYf4bJ0kNn1u3F+LqiH9ug+96gjs2YNdrVXlst9/KB3OT0Gm5ynEvUBlaynmpnMa+H2ZT6v3kDXgDYi1Oe+bA/PrfovCwkyniUn84TUQkX55FYFz00XtKU29R1pVwaTH1vlckCfLne6+63JqQcn6iTNpYK67OJWdd5hXEbp2mfI1OVqSwF5X2tixUbGN5M3qNcL2oP4nttue0S4y3VZ+/tp1xYgYfrcp5W+xjCxkpBx+24m5NOVRtLNhCM7qlfoHc/fo+kVX/CgRX4uK0pqK070gV+7RIcCxje0d0EJ8mvYZuuBVgV5F4K1i7BsQL4b2guqpt7moowwr7meKcmvyIOQyiSF2fNsd0dIZCWay/aQEY65kq8ZhZP/yuPyudquO/hnqbz1sNtPwDspeyKHilMgwMQjJAusdCm471RMC5HE5eX8jLTeGd//KZWlpOvxts6gvNUiXKtySf1WFXGxx62Xf7twockE7cr4ba1bdbObfiaG8PR/eRRiLzaTV3IE+VRw6w90KSPtm5Pvn+9ydMj04zai/agKTrt2ocrBd/n1LFZ06WZuLbO6MZSKxmmWbNh9CAhwbge5ki1VT3sj6Y4lpCalvdGQfE1PTwP7zUlH8J2KJHvantVKg2y60zRvVU2/bFMV6eF1PHp0qWsGdV51SRtnNo+R9TzNypTWQrKu7hn9nBDmdyjqD3Ivte+h1Gifx6WuVvqiwOx3OQPVo6X+ehUrS2gklPg8pyrqO8dM5yvwEKA0V31i7EoVrSGcWiJ0dOc8xUYHoWgNprTii7Kq1IoSeETeJ06FioARvuFN4ZjYbzshgM/Dg9KP7EoFu57WjNLgylMlF6SSctLaZOkcVG+TrCtQz9P1TTlOmR67AZt19TtSrhtc2r7Fp5/PAZA6dRlKpFuCdPuP8PE6aExy/Zia4Ca+sRXlvl9UR2bf+IBQjMR9podSp7DtB4ed+crifFi4z9NGLJa78qkwSzqzLybZZ1PmaSNU9vno3GuYoVDFJSyWBAOanyvHZa5eDxs/NdMhwnOofnoVJUgevQG7o7yK9FaF+uuJWL4dU8V8xRt+0BI4YwTxRfrhE8yJhCHPJUaE4ap9j02yzRAyWOZwKGXF/PzKs5X820d/nnOkOmxF77xKtGuFG27UJhX8hjSxF9WnZkgj3NNu/8MpdNjlu1FG4NVNZxLlv19cR07TFlPw0uUgTh0dAbTPZvWw1LUJ+0H4O4oMV5M/ctNpzJpULrOTCh6YFzmmGdqlnVeZ8Zt3CG4NwqAQB7/K/9lt0nG99phmYvHw6p/k14Hj5n56FTlhG60F/N7z737o2QMvyQRwrKzj1Hua3KdOi45Bl3rvG1vLcHOeF1+EOpPOFM91bo3Mgyzy7O1lH7qZiB732H6p15n55s2DWKpsBDxOntmjqC8ZKaxSZ4pyxhv6wjOMyknfFQ9VpXxsYsbMl3blc2wXcnbtmE4c2ZeFZh2PdWstiOUTw+dadqL9qAGGxlhfQbfpxSVx5J0aZYZGiubWVs45XrG9bC8VFhSWKZmIu88iuStW5gG2XWm6N4qm+5YwjYt8ZYtHV43TV07CLM8jtm2cQcv7545T+Z6qXqSXeZOgvnoVEUDnNXZgcLwiVyb1XAml+SsKPWuJ56WxQP9WqjqZjxa62LQrce9a7kg1Lvr6deV2gYue9veqi3N+jRL4RMSuTKHT8Wn0WtcFzN3paYJ1c/WIuKF5QoWPpmdQva+c8YjACXTQF/xxTg8F+uJaUo1IRqlHH55EYNc1ZnZ0nlmkq+m2zI/z3DsRWJ7s2F+rCrTYw8Hm9u19IyAg7Z5u6Itjznb3hBPX9W3ICr9+Yu2VZ2ZSpZdJ/XtQZZp9z+L9Ejf7JRpLySZYX2hgu9N6tjM2bVEeovro27cw9jUbWE4rk6+Rhqtd2TX1ujhi5xG4RuO5IIliMlp1FnYgDq6g6J2r0walLi3ymEpPwQtrtXSmLHoQfmq1F5MU9ck6fpsYkZ1PqQ7hunbuCOyeUNMAKbOfhjdC2fRrqerJxllborrx3E0J50q0TmKpn6MYzAX9+DcLA7EblXHU6iP41lH6KuvMjer42lIo31sOBi90RMNVzjta/TdOq5rxj6MG0dfnttfu20xfWruq/0SxOx4NmrR/q4A16eOFRbT2oppL8fpWIP+LZGY7UeOEV/C3tTjAjL2XfHQKXh9Pn0ajCu+70u/RRLPijXOx6U7U44HyHPo5aWFajSVd5zG6Twzy1ezbQFHcZ6qCY5VZXrsOw240bTe8T5qwJ3WBO1KRnnM2HbF6xiGUbRQjaZujtf34S+PUgOVkzLqZEZ7kK3E/kumR3yz4/vx76FM316EwhtZaMcMeOj+i4Lv10zr2GwNb3YwWh4fSzRVfm6nfNq2MJyVbuL1jvDaGs9eF+fZOvBSB6lqWkKv4cZTbY/LRBOVO9kd21iZNChxb6UXwNveRUW636rZQ+V+K5oVrkRdU+jqs4nSdV6iP4Zp27ijom/b/Y0K9nLLUg8NV0nLrHqiK6++j5XRjQmvH8fPe84vXvzB+x6+q34+P7YG4QDD/JtrIiJzbQz8GnCz4MaSaK6xnNMMrXXhbTjwlZ9aIDot5udNVQajuG8iokmEYxGOw2xMREREdPzNTaeq3vVS8afpcVFERBNY68JLjL8xHYtARERENDY3nare/VEqBl07LoqIyNTOPkbqb4iYjkUgIiIiCs3/mCoiIiIiIqIjNDdvqoiIiIiIiI4jdqqIiIiIiIhKYKeKiIiIiIioBHaqiIiIiIiISmCnioiIiIiIqAR2qoiIiIiIiEpgp+oYq3c9+P4Ayk+TTqCNge+nfjSZiIiIiIhmh50qQ+2BD9/roq5+kVJH1zNddjLlO1kZ1rrwTkHnyzwPJ3Ng+UJEREREc2GOOlXz8talh4bbgQcX691Z376fHPWudyAdnOOiPfDhD9jNIiIiIjoN5qhTdbRaVQeO20BP/UKrh4bbx8hdR3dN/W56vYYLx6mipX5R1k4DruOguql+cbJMlofmDixfiIiIiGgusFN1YFqoOtdxW/2YiIiIiIhOlLnoVLUHPny/BhuAverD96PQqnD8kibMSh0/E4djbQ3E+uEYmHEYmggvFN+lt6luL1M4Pklsp4nmFYN1oK4n9nVOWSRr7I74XFq3cBkv+QZNN6YqTqfxXzL0chyOKfJHSrO8dcN9NV0LsFw0dceTWl/5XqU7/pCcb2oemuZ9uLQoa5rlEvkSHnvNBmDXwmWT+VGcXzlpq1nfY5gpERER0ZGai05Vq+rAcfoYAhjedOA4DpzqFMFWlRV4i3tifTlcy3LR9Jew54Tb3vYQ2LXJb1a3BvA3XIyiY3TE2KpmUWcstZ6Dju+g5lrqkintgY+mC3jb43X7w+Qy9qqPdVyXvrfgbqg38rI6ustAP0oPx0HHC2Cvpjs3lWUPS3fkPClYNww17HgBEHjoOA4cx0VjR2yvPfDhr1YS59PxAHdD32kCAOzchh8A9qJ6Rm0s2UDg384O+TPK+zYGfhMuouN14vKYslkd58GwHy4blTXRMWu6o0T69Ic2apqOYzpto/yW1t/2ALc5eVklIiIiopmZi07VzFgj7Go7YwG8bamTtdPA7hCwnEv5naGEOrrLNjDsS2OTemi85CGwXFzO6hCE6wVeJzGmqddwU52jlK0BanYAb3vcKQGAVlUZ3zPsw22MuxWt1zwEsLGUeUw9NNzkNnqNXQxhoXJe+hCANdpVxmKZr5uy1sWK5nyitLCXszqnPdz2A8BeSnYUt5ZgY4hd6dzTivO+PajBDjx0EuOxWqhqy1KOrctwrSH6yvirVrUDL7DgPpXsFKbSdq2LFRsY3kwe73UvgOVezukkExEREdFBOl2dqmCEe+pnABD4uC3dxAPAvVEAWJVUCF6mtUtwrADea8qN9s4+RgAqj+q7A9F6/hvpG/97o0D9KKG9aGuPXTW8M+ExRRIhiSL8Ul0nGGlT1GhdVf0JB1bG+bTuDAHLwaWMMEDRcbOxIr2xaS/awHAvfwIJzf6SeW/wtstQ9vHoO4Vq2or08XBDmVCkd38EoIKFjLQhIiIiooN1ujpVo/3SN8aZzldgwYK7oYy7CTsUmc5XUBzkp1PHQuWgzikcY7ThwI/D8PThbqP76t7N11Wdq0yXEkILe/IbpuitjtqhnNTaAira85xUmF8TUPd5riKPQ5P+VnNLGBEREREdsDnvVPWwP1I/OyJ3RwgQJMYCyX9y+F3C3RHy30dlObhzj8PdpLFOpsqsW/Rmroj8Nivrrc7Ewrd65ZXPr3sjeRya+jd5ehMRERHRbMx5pypUWVDG2oiQrUO1s48RLDhP5Ie4pWSuV8clJ//Nzb1ROmTswGwt5b9xy2O4bu/+KDPEzyjUcfMGvMCC80QblxxrJiF7wD2MtJNgTC47v8K81oYGjuWlDxEREREdnTnqVOlvbsXbCRfr8liaQUHI3YFo4YYXwHKbyix1dXQHWRMsIHO9encdRZP/9RrX4QU2asqU3O1B3sx+xcSYIvnmvY2BYYiZ6braDsJmNZyZMDkTXr3riQk5Xir64V4xNslya3CtogkqTIWTjdg1Zar1NgbaqdcFXQcqO7+aYgKLookvwk5jaubGtS4GcfkPwy9zjo2IiIiIZmuOOlU9NG4Nx7/9E900blbRCTsl0RiTpTvpacUPQ6/hwrk5HP+Wlu/D95uo3MnvDPQabjjt+Hi9dVwX047n6qHhRlNyj9etIf+NRxEx2548PmwJe4bjoozXjTsIfuJ3qFrV8RTq0fmIKcTNwtt6b/ginLLgrc9EdhpwnT6G8e9O+fD9GpAzXiuaOEPkS9QJysivioeOMiOgnn59f6OCvZl0IImIiIhoGu85v3jxB+97+K76ORERERERERmYozdVRERERERExw87VURERERERCWwU0VERERERFQCO1VEREREREQlsFNFRERERERUAjtVREREREREJbBTRUREREREVAI7VURERERERCWwU0VERERERFQCO1VEREREREQlsFNFRERERERUAjtVREREREREJbBTRUREREREVAI7VURERERERCWwU0VERERERFQCO1VEREREREQlsFNFRERERERUAjtVREREREREJbBTRUREREREVAI7VURERERERCWwU0VERERERFQCO1VEREREREQlsFNFRERERERUAjtVREREREREJbBTRUREREREVAI7VURERERERCWwU0VERERERFQCO1VEREREREQlsFNFRERERERUAjtVREREREREJbBTRUREREREVAI7VURERERERCWwU0VERERERFQCO1VEREREREQlsFNFRERERERUAjtVdHJtDeD7Hrpr6hc0N9a68Hwfgy31Czpwx67+tDHwfXjduvrFMXCcj41OkvbAh+91wZI2Q7zO0IzMT6fq2F3gTx825nT0ePM6n05fvp2W9rLe9eD7A7TVL0L1rpdMh60BfN8sbcS2k+WmaH+mom0n/gbjrc5L/s0qPYiovPnpVJFC3KSkn6xkfU5E02oPkjdcRFSS5eJy7nWqjcuupX44A3V0PR9Nx0fHceBEf9seAnVRKi3VqZ5QVtub9TnRUWKnioy1qg4ct4Ge+gXRoWmh6jhwGyyF8+X05RvbyzwBggCwF3NuireWYIfLzdTWZbhWAO8lJW92GnCrrfi/85J/vYYLx6lifOREdFTYqSIiIqJD5ftDwF7JCOmvo7tsI/B8jGb8sqr+aAXACPs76jdEROWcqE5VOka6eAzW+NW0CJsbr6vEKK914fkeumsidEAf552zfsZyXrcttqe+xg4HTsbLSq/P2wMfvl+DDcBeHceCZ30ujI9bt804zl3zF52nPsZcs13tuYi8EMcY/enSqCAfMpmvlzwGKVQyZ7Bq6txz8idX4Xrp9EyMQ0nlk66cZm8/Lu/xcnIdMU/DSNntqfWhuM4mx+aoealup+h7QJemUhkIv6vZAOxa+P34PCY//jB/1TqiK2MFZaFw3wdV71LpVXTOSOVbrom2rx63Lm3Ty8h1PJWOqTqZppYrozZDk5/afWnqcFsZN5NX71Lno6Rfel35HJRj1B3frLyxhyEsOE9o9hC+TfLf2Fe/Ka33ho8ANlYKymI6/2TZ9Vg3/judJ/r6pS6XeX8gEeukt6duK73MeKhActmM+jZRvRyX46ZrAZaLpryOJo3kdQZbOW1v1ufSZkzqp4lZbYdOjxPUqWrjshIj3R9acDfUhkTHwbq/hL143Q68wEYt1QgBzpV14CWxnAhlCeOz3RH6iX3bqCmNRnugLteB79SQChvfGsDfcDG6KR0PXDTDBr5VdeA4fQwBDKNlqq3Mz8U2L8PxO+P4caePoeWiGTXWm1XpuygNAAQermeF7Kx14flNuKN+crt2TXMxsuBu+Fi6I2/fRk1ebq0Lz6+h4o2PU6RjOh8SNOs5N4Haqq0sKPKqVvHG5eTmEPZq2Fju3IavDUlpY8kGAv+2CAUpyJ9MhevV0fWU9Nz2MJLXX63A2x7nU384yfYjDtavANcdB47jorGjT0OjtAdKbK9MnRVEmZf+wnERgXcdjZ3i78UTcSTqbscLYK+GdTesF/0hgGGUL1GoTfnjz1ZQFoz3PV2909ef8CZDKYMdD3A3ZnPDUe968FftcfvlOOh447NW1bsrgLSss+0hsGtS562NQercxpWm3vVSbXLO7vRtiNMHVsXDrFxFbTB0ddhBx3dQS10koK93puXCctGM1xXl21714HlNVG7lHN9MtXDDC2C5l1P1pb1oA8Pd8JxmbKeB614Ay22mbsbN9XDbDwB7KbV+e9EGAh+3o/Zl1vcHhcz3ifAB7Dqu55aXqer9TgNu2J4iiOpLVE4NZLW9WZ8D+vopX+ONzWo7dNqcoE5VC1Ul/rn1mocAFSyoT0NUFuBvyzHJPTTcPoapp1kW4Ec3Y6Gty3CtIfpKTHOr2oEXWHCfCpumtS5W7ACedj8yEfaAYR/VTWm5lzwEhQN7c2xWlfEM4oKGyoK2I1Dvrovzyokpbz/lwhr2xx03QOTDtv5YA6+TPKdbQ8BycCnMn/ZTLiylE9eq6vIhKTqOxPltVkVjLtPF0m9WxQ3Fchf1rAvl1hJsDLEbdaKnyh+T9c6hYgHDO1J67jRQDc+r/mhFulgLrap0MSncfsgCfGU8wbRpD5TZXok6q1VH94qmLOR+30PDTdbdXmMXQ1ionJc+1Jr18cvyy8Ik+zaqd2qa6epP3IYlb4x6DVeqQyWsdbHuWhjedKTjBXqNauaNWK/hJpbFTgO7Q8CqnBP/X1tABQH8N5LnFq1zrmIBw71km1zNbvPi9j6R9mGbl1hQo7ANjkLe5Pwap2+Kpt6Zl4tkOyiWsWCN5PYjPD61PZwhUdeUNmatixVbKfsz1mu44QMWGzXNmw4T0RuvpUSbLx7ADW+FaTvz+wMDpvuMKHVflAXpvA663s9S4TXe0Ky2Q6fOCepUheRX1BsuLJObI+VGVbiHUSBdnEOj+8lLmHiiJl+UI8kb9PoTDixtHLfYT2ztEhwrgPeassWdfYwAVB4tV53l19nitXwFyTMUadh0LQxv5g1+DS8euguf9o2PcmMDAHdHCOL8US5GMX0+jGUfR+9+8pFz1tPPe2IHOJdxkU/k8bT5Y7SeONf4LYmid38knjDrnhwbbT+ilsNp0z5ScnvT1FmN9qApbiYSnfyx3O8ToVDirUNmXqpmdPxJ+WUhVrhvw3pnUH/qTziwtG0l0LqT7KhNQ7SRQ+zJnSQjyZC1mo1xR2VnHyOkn7xH7o0CIPFmK19mex/WMxOZbfDaJThW+hqD6DhT1HonKSoXaj6Gxx+M7kkfHoYW9oaA5VyKb1RFOfNwY+JyMKHwTcq4c1VQ11RhBz5xkx0+gIvKcGZ5mfb+wIDpPiOpuq9cMw663s+SyTXexKy2Q6fPyelURTdFq1Ioj8nTw4kEGN2V/1/HQkX+f7ZzFQsIRii8ZJ2vwApDduKLonSjN60oZrqGcThR6kk0AKCNwaqtvPHQWFuA4ambCbcXjwWL/5r54Q/GxxHmVRyDrdzYxJSLvPrUdNr8MVqvh4YbhV+I7xM3e5vVOLxJrCvdKBptP6SWw2nTPjLt9mZZZ7cGqNnIfhCQ+X043mbDgR+Hthg+HZ7l8acUlIVZ7du4/oRt2AEybiMlooPSTITVJd/qtFCNw7lFOsrhO72GC+fmMAwFyxtDg4nae53CNvh8BVbqGpNDl1azKheHqPWa/DZdTKOefiBzgHYacJ3wLc6VvPxPS3YqomiBqENjXl6mKft65vs0ddD1fnZMr/FFZrUdOo1OSKdqHNYz66lF85/c9bBv+njS1N0RAgSJ2GX5Tx/WVEAKq0mG6qW1BzXYyHiaL5vgyayRcHvyWIrEX9bxGB9HmFdxDLb6Ny438oUy9dR02vyZYL14HFB0sye/mYqersY3iuHT1Qm2nzJt2mcx2t4s62zRg4Ds79uDGuzAQ2eSWH+gxPFP1mboy8K0+9Ywrj9Zb0tmZ+Ltbw1Qs0WZzy3fYQfVicfLaR5WOM54DFFmKNhkeZcwQRs8vRmWiwmIN5pqeOHYuYoFjPazO0lSZEO9u5J403N40mGxRjalyTZS0QIlysvUZr/PieulibujA+jom1/j881qO3QanZBOlZ54pW5A15DmhGLIRPiILua8jkvOOF4/8zV5uJ9YGK6inRFppsLjk2U+zdcJw5NSkzqMzykVVpArZ3u5stdrLybf0WTnlWLzBrzAgvNEG5ccazxBBUrkzzTrReNatOPeonj7MKxnmu3HstNwOtNvz7jOSooeBBR9n7K1lH67Z8j4+FN5KsLwMuWWBcF43wnZeaXWHxF+qmnDomUzQoRM5W3fXH46RuNAUiGogHirta0bfzSW2YZMVWaUNli+QU/QtNUTmK5cTCDzuBHnR/61IOzQ2CtYdywE3g2D689B0YXg5Qkn23Auoa0Jk8ssL9PeHxgw3aepvHpZrt6rocrly2r2uU9mVtuh0+eEdKrCJwtyJQifDJpRX/u3MdgQA+2L4rp7jevamQJT4zfCG/VkbH/4ZHG82riRdpvKLDN1dAfyMWbdDGk+D59Gy5+JiSjGi+Q9zdcLJ0Gwa8p0r2HaGW8nEl1Y0+Mb2oOsJ8fIXi/sIMqi8VKJmc8glk2mtYg9t9waXCuaoCJimj8qk/XaGCTSMrwIhk95691BMuY//HFMES5ksv0sGWlYmPZZTLZXts6Gih4EFHwvYuTlG4awHijSF9npj1/cQLlYl8ftDdQwzbyyMP2+0zLySlN/xEBtC+5Gerromq35MdVJZW5fKfeRcGyYfDOfSse1LgaJMhjO5BlGIKjlO3tsi6BvQ/RlJsGoDdbX4fRyWWZZLiahP26gjq4n3gQXXUej66NlacYATiQcX6e28ZJ610u1S1jrwlu1p+rQ9d7wEVguapqwxdnfHxQz3qepzHppVu+1nbLo7eSqdIwZZTXd9mZ/rq+fumt8vllth06fOetU6caMiBh5MbPNOG7evwJcN40lDzx0blXC31HwxTiUYd/w19SjsQ/Svv1oKk51Jh/lGP114KVw6nJJFOefHJPSROWOfDzjmyHfl3/HQvd5+ARWihFex3Upnj+8+EEfR5y6AEV2GnCjKdSltKt4nelCXMIxQ4jGN4R/K6OCC91mNTkuwvfhL+4lpk4WwvEViH4zI/xbHqUu+mJmJ2if6pnlT5rReom0DKfUjtOykiz/q5XEjExG288ybdpnMdheqTqL8Y0QtOO3PHT/RcH3a9GbC7ldWcKeZkxVfJH1/Xgs29THH751ksvr0h11LFB+WZh63zrG9UeEI0ZTKUfLiqmbJw2f1NNu3xnpn4TvNOAqx61Lx0qiDIr2aRwumGy3xbnoO+BCC9U4TDBaT19mkoraYKHXcOMQxbzlssy0XEwgq+1x/I7xdfS2H2gnB9BL5pv4M59oIlHWfTGZx+hmURhphrCDAG3Y4uzvD4qZ7tOctl6a1vu4wyjn0XiG5aKyqmt7sz83v8bnm9V26LR5z/nFiz9438N31c9PjXrXQ9Px0TFq+A+C+D0ax5cv9ERERMLRX6foaPD+gGiezNmbqhPIcOwWERGdRskwYDpFeH9ANFfYqTo0bQzU+Nypxx8REdFJ0x6kQ9imHgtDc4T3B0QnATtVh+YeRmp8bpnxR0REdKLcGyXHrZQdC0PzgvcHRCfBqR9TRUREREREVAbfVBEREREREZXAThUREREREVEJ7FQRERERERGVwE4VERERERFRCexUERERERERlcBOFRERERERUQmnp1O1NYh//2GwpX5JJ1G968FP/aCiiTYGvg+vO/maM7U1gO+nfwz05BHpPU29rHc9+P4AbfULohOuPfCnbN/KOCZtI9Gc47XrZJqbTlWpArg1gL9agbftwHGcE/Hr5Ad+QV3rwpvyRveoTJ0mBuc6ybbbA3/6sjqXJrzRMkjvLIX5MNG26+h6BdubUuFxZpno+OfMQZzbQWxTMXVenhKTps9k1/KDq6NE05qsDM+J8MXDQbalp8HcdKrKaC/aQODj9o76DdGMbQ1Qs4foO1W01O/oSGS/seyh4XbgwcW6aYdQtdaFdyreJtLxN/0b36PWHvjwB7pb1BnUUUrITms61TarcG4OYa+esM7iIZubTlWv4cLhjWqsVXXguA301C9mZacBd87e6k2dJgbnarbtOrrLNgLvxikrpy1UHQduIz91YgbpnaUwHybedg8Nt4+Ruz7TjlHhcWaZ+PjnyEGc20FsUzF1Xp4Sk6bP5Nfyg6mjRNOavAzPic0b8AIbK3yAMbW56VQRHXtrl+BYAfw3TG8v6Hhooepcx231YyI6JlhHiQ5eD7f9AJZzSRPZQSbmplOVimGVwm7EGJboT13GR80GYLlo+kpstjR5hfhLh/HEr8rjZcX245CicB/JSTDCOPDo81TokfK9uoyyzcRf+NpeH8eu2a76mt8k3eLlCkJJMreVsZ5BekchLFnbEuVA+l5KA32aQLPNyc81e9tj9SccWKkwU02eaLdTcIy5itfNTLeiOOrMyTLC8xq04/0nx1SpxyTtIye91eNUx2kV5oO87fDfTdca13/pXJL7aqK5oTvPLOH5b7iwYMHdSB6vepzjEEQ1XSYvizpquqXzLF0OE2mbqptqGUqvn2pbQuljCbelO7fUfpPfq+3K+C88P902oduumh5S2660txOXuZRxGF7i+JU6pzvfmMHxy8R+arAB2KvhOon8MSl3E7TlEn36ZJeXxLU8PM+aDcCupY6tXB2Vqeev5nPR9+Wu+WXWjeTmS2b+SflckNZIpXf6e63MfevLjroPXT4k6k5GOxMzrStK2vteF23lvjKznVaOIXU/mim7HuioaaM7l9QyifKSLsfJPFC/T59D7w0fgeXgki4NqdDcdKr0xM3M0h0xAYXjdOAFNmpRIQtDQ/pDAIGHjjMOU2gP/MTkFY7joOMB7oZaCAFUVuAt7oXLSa98LRfNK8D1cP3+ELBXPXheE5Vb0Xb7GFoumnJF2roMx+/E+00tEx73+PvwHDBEv5rxwnmtC89vwh31k9u1a5pGuiDdJuRckbfloOMFsFc1N0eF6d3GwK+h4klpc3MYb6Pe9dB0R+jH59eBN4q/zuBg3V/CnrxOYKOmaUzKOlexEPi3k2EwRXmNKO/U8wZqq7a8JT3Nuv1h8vymS7fQ5h6GsOA8oZSMtUtwLGB4R1ce8/MxS2XZwzquJ9ax3Gbq5sZYWI86XjCu/46Lxg4AtHHZ8cPPonSz4G6YloseGq4DZ9tDgCAu1/khkAdVFovOpY6up7QN2x7iIqBM5CPWlzY/QdvSHvhousjeVkId3WVI5TJqO8Y3Eq3q+LvouAMAgXc9zMc0s7YmZNfgS214VOZSy03BXpXaxW0PgeVi3fPgL4/ivFLPF5Mef0ikUx9DAMOb4XrRtcKgjYiYtOXF2hj4TbiI6tz42FI2q+HxABhG5Su6xhaVa0Ph+dvx9jXlX22vtj3AbaZvgKe95pdaV9yY1ypSet4cavKl4Lqem9ZiH8nrRFRO0jf2OiZlR7QP0j7CdFbb+MqyN95W1j3PJHVlawB/w8UoqhuOg47voOZa0kIhy0VTbqe3PQR2LXWMxSaoB4BRec+/lhdcd03bgZ19jGChcl7+kEzNeacKCLyOFE/fQ+PWECjqZa91sWIH8LajGyyh13BFQ7esdC6sEXa1FTuA99I4lrz1mocAFqxRXzqmFm54AWAvjQvuZlW5+QqXqSzoOzVbA9TsAN52dgxv+ykX1rCvNEAtVMOL+WXlojhVumlZgC9vS5OOpum9toAKlPC5zWq87XMVCxjuSWnQQ6NaEMtvAX4i3UR8/hCzjhuuY6GifmaW11HeJZbbrIrOQIH2Uy6swMN1ad1WNXl+uekWXmizx6S0sDdEKhxAvJXzcEO3XkE+ZrFGu9o0sNzLk91EGWmhqowDEfW3goWJ64ChAyuLRedyDhW1A7zTQDVM6/qjldREPq3q+DiN25a4nUrWc3lbST003OR3vcYuhpkX9Dq6VzR1RWba1sSG6Mtpt3kDXgDYizMocUPpOrDTwO4QsCwkrhnR+cYPLSY+/mImbYRg0JYbaA9qsAMPnUSZbKGqvYbmKSrXJsZlJlF+4/IfjYPtJMvUTgPuzSFgrygdiimv+cD0625dhmsl18VmVZsvU1/Xty7DtdITLLWqHXiBBfepovpgUHbWulixgeFNaR87DVzXtPHWaLfwemFeV8Z5rDu+NOVeK6q7E4bETV4Pist77rW84Lpr3g7cwygAKo9OcrYUmfNOlWb8yt0RgsyLsqAP0xJadzSNUDDCPem/MXUbO/sYAQhG2qVT5FflIkSpgnPqQmtdeKt27pNZoI0lO+Otwc5t+KmbhOnSTU+zLQD3RkF8PsbpHT4hyXoSeW8UAJM+MdLuVzQaViWV2qWN7qfTArl5nZ13vftFr5PCdW+pHcvk+U2VbpLWa2rHvI5LjuatXKQgH7Nkp8EkN1ETkkNHwlC+yeuAoYMui5nnIvahvhGJ9O6PxNNZ9ck6kFs+1bZl6llWE2E5IoRNd0FvD5rixi/zpmSCtiaSuEEBgB72R8h+wDUBNc3ujQIAI+xrji0y8fEXMmsjhOK2vJjYX2bbMI3Mcm0g94169L3+vLVv6dW8meSaP+W67UUbGO6mrv/pfNGch+F1XexDrQtANMYm3UFUafatvQ9IP4jTtfFFaYJJ6kpYBnTXZlEnFZptptO6SIl6kFPec6/ludfdSdqBsA2kqcx5p2o65yqaV755RvuTV4wcUUxsDeNwBP1bifApm/J0IWVtAbqXJMeFeXq3UI1DotLxwL2GG4fn+L4aS3w8FeZ1mbwL143HUMR/TchRDaXTTe2Yh09OdRdRIT8fj4XoRn5VCj8LQ8vmTuG5iFBFEUoi8iNxUd6sxiEuovxIF2Xj8hm+qZ2orQzj+zcc+HH4TkZ4zNYANfUpt4Z5W3M8zfz4DduImQn3p7uBnVhhuTZwvgILAUZ31S9C5ys4iGSYnbBexXVz/NecWQZmRFnM2LmKPLZV+tOEuZuUH+O6UlQGDsI09cCgvOdfy3Ouu4fdDpxip7JTpX06cVjWulh3LRH3nvPEFQDq3fX0a3+d8InXsRO+4ZssvcOxKlJMduoGMLr5slw01XjgCZg8DZtU4gm7SV6Xybtw3XgMhfon77NUuiWfVmY9OU0qyMeJ5D/dn5wUEnRMpsWdviyan0s8Pim6KMtvpuJxnNFFOXyrZVw+J3+6GYfHOMnwnbQ2Bqt2Mpwuw2RtzfEz8+OfpI3IkxWtoTIuL0XMy3Wuu6P8TljR90curFfyeLDEX4m0iU1edyci3wfEY1vVv6I2IG3mdWWWJq4HE5T33Gt5xnV3onbgcDrZJ9Wp7FSJcBd9GMXUISyliHCqhPCGPD/sLxKG9+jGARSFP5SmmcQgOp/wqfW06R3FPOtDo8IxHUWhYbr95oQDTM/0wqTmdXbetRfTT/CSstfNZphuCjH2w8bSVk44WIb8fBzTnYcoH4Y3dCXVn3AO9qn1oZXFgnOJxutpQ9yicV5K6KAmb9S2RYSmFIUJFdhaglrq24Ma7LxJeiTTtjXHxeyPPyf/Uorb8mKT7G9yueVaJwyJSp9XKO/7rSXYGWFth2km9apA9j7C/NeGBsp0aWh+HzCNvO0l6ooujBPQXItnaTb1IL+851/Lk9fdyY9n1tek0+JUdqrEIE8LrjI9a73riYHWRW+GygifGMiFW7yRkhcyDPuL9dB4KQzfUafR3RBPP4qe8JZhKT/KKMY+BPBeC5th0/Re62KgTK+6ZI+f4rcHybcrosEpeothwb0ivyIP00QT213WvZHy+w5GeR0OJlbjpMNwp3wZ6ypplZtuYfx2cXiemLDCXhVvF3LTriAfM9m1xHGI8qGLA59M+uIbdoDlm4jwIUbC1kA75WxC3k1ZyhRlUZquWM/kXNoYKLOJyTc79e4guf3wZlKEy5i3Lb3Gde1shmr5i4hxCnK+hG+kZIZhfzHTtqaE9iB/WuRSSh2/7sbJrI2IFLblhXLKS06apW/qTcq1SV60UNXNIhq3UdnfF49lPhzRA63U7LxbA4N2Oy2d1nl1t3gcY6Sw7GzeEJNeqGN+UtcLQ8Z1RUz+oc7qmb4Wz9Kk9cC0vOdcy1PpKF93J2gHwnGGcbik8T0C4dR2qsJQmGjqzXGM8gj9KV5DTyZ8uiDFSK/jemKcjWiMoI8/1lbIKHwnnOY4Xj6cPtOgQZxeAG97FxUpHWv2MJWOpuldiWKFpeMfz8o0jhUer19wsxV46NyqSOkYTq2rzLIzC+nfdyjOayB8nS/HSfs+/MU9o2nIo/EwSKSbj5XRDSldpkg3jdYdcTwmg2/z81FveLOD0bJ8nGJq7tIPBOKLuR//7oeY1UpKlyvAdSV+PXvwtmx8wfbVsUqqKcpi3mDsiMm5JMdkhNOjx+1CJVEvxRTFUr00bluisVvJ8laDPg3Fk9TxOC/fX8KePKYqvLGFdixAdkfTtK2ZzuRvaic1/fGPb5x8X7pWGLURMG7LC2WUF+SkWdxx8P34QUZxuTbMC935bzgYRW+gtN+L6beL2qzDEY6VgXI/sDzKfhiTQ5fWmXW34qFjdK0wKTv6ffgbFexNmc6mdaXXcONwuGg57bV4liasB8XlHYXX8tzrrq6ca9oBk2sOZXvP+cWLP3jfw3fVz4mKrXXhbTjwlSlNTy/xe0COX9yBoONO5GXl1gw6deHT06bjK9PrFmsPfKyMWJ6OjbUuvI0Kdo1uNOfIPLblJzUv5s08lp3QtO3yycV7mLJO7ZsqotkTT4rV39ygObR2CQ5ywvIORRtL9hC7vLgdG/UnHMBT3/DQUWBeUDmTjhc8BcLfK+M1Z3rsVBHN0mZV/yvlNF92GnCP/OllC1U+hT9Weg2XT3CPCeYFmWoP0uHCk4wXOxW2BvBXbfPxq6TFThXRjImpq9kwERERHbV7o+S4K3+i8WKnRDhV+yzC3U8zjqkiIiIiIiIqgW+qiIiIiIiISmCnioiIiIiIqAR2qoiIiIiIiEpgp4qIiIiIiKgEdqqIiIiIiIhKYKeKiIiIiIioBHaqiIiIiIiISmCnioiIiIiIqAR2qoiIiIiIiEpgp4qIiIiIiKgEdqqIiIiIiIhKYKeKiIiIiIioBHaqiIiIiIiISmCnioiIiIiIqAR2qoiIiIiIiEpgp4qIiIiIiKgEdqqIiIiIiIhKYKeKiIiIiIioBHaqiIiIiIiISmCnioiIiIiIqAR2qoiIiIiIiEpgp4qIiIiIiKgEdqqIiIiIiIhKYKeKiIiIiIioBHaqiIiIiIiISmCnioiIiIiIqAR2qoiIiIiIiEpgp4qIiIiIiKgEdqqIiIiIiIhKYKeKiIiIiIioBHaqiIiIiIiISjjlnao2Br4Pr1sffzLw4XtdjD+heteD7w/QVr84UnV0PR/+4Bgd1dYAvu+hu6Z+QTQf2P4dvcPKg8Paz1w5hDa8PfDh+/6xuaYez+v78cK6Qqbmp1O1NQgbovTfYEtdmA7ScW2E2fARHUNrXXhsp2lK4nqTvu4fdOfnILQHPmoVDx3HgeNU0VIXoOmxnaFjYH46VQCAAN62A8eR/rY9VFaPz1OfQ7XWhTeHFxY6fO3BMXurR3RiiIgH3swdpCH68nXfceDcHMHdmKcHaW0s2UDg30ZP/YomwusZHVdz1qnS2GnAdTrwAhu1uWlc51uv4R7Lp2ytqgPHbfCCRXSc7DTgOg6qm+oXRCVsVuE4fQwtF03eYBPbGToG5r9TBQDooXFrCFgOLvGtDRER0SnQwg0vAOyl0xepQkTHzgnpVAHY3MMQFpwnku+qxoNCpx1/FU6IIMdyF74RG4eDqPHg8qQYQvH241fd8biyr+INz4e/4cKCJUIg1G2H8cVZ28ykWe+csoj5mCrNuSlPFNX0ydquupzXVY8qa0xV0TGIvCraf5r5euqxJ5bNiQOXz6fe9cS/4/yRwz5zjiUsMzUbgF1Lf5+3bq6idC04byCnnqRDWlPbUvNZU25T5V2zTFsty1JIbbLtUI9dc/7KPqfOs1zF6xWmVWp8ajq9hezJYNJ1TT0uqUzLZdywvOu2px5Hul2Uz0VZX3MOuvKgzb+cbYkyUoMNwF5Nf1+0DzPFZS1bOh3T16CIyX7Sy8jbKyx7M0mPpN4bPgLYWIrLVPoY9ftR0yZdlyKp88pZVkesL8qJ5TaT6Zaqj/r6kV4uWW/VY9Tmsyb901dS6NNQV4cUmXVGk17q8arnM26Lx8fi3f4q/KzrWVbbUpBuhd9radInq/2YaftPx93J6VThHkYBYFWiJkIU+vGgUAfOzSHsVU2ly7N1GY7fkWK5zcMNKsse1nFdigEfwnKbycbOdPuVFXiLe+Eyj+EJV4wnC6RxZm4jDHzbGsDfcDG6GW2zAw8umtoLiyS1noOO76DmWuqSBtoY+E24kNLf6WMYfy/yp+mOErHy/aGNmtKotQfqch34Tg3Fh1VwDGtdeH4NFW+c/mL/BQ2cZj3nJlBbtZUFDc5x5zb8ALAX1T3q4u8drF8BrjsOHMdFY0d/LIlz2KyGnwEY9sNlwtDNonUzFaSryXlL7FU/UU/6QwvuxvgY6l0vlf/eSNpAqtxqyntqmbyyLR5ULN2RtqeGF5vW22nyLIvBekVpVe968FdtDOV0SCTmNNoYpOrDuDQkGJb3encFkI7R2fYQ2LX0jaJdgx+3ix14gQX3igfPX8EoGn+rWzdVHjRlBgAsF01/CXsZx9GqhnkPjNO0GgZGm+6jiHFZU4TlxY7rvTj+zNwu3E8dXa8Jd6TfXlHZm1l6qHb2MQJQeTTqpBSdh74uTd2GGxAh86KcBOE+xfW6ju4yEtvueAHsVU2HKafepq6R2x6QutdQ0z+jDVzrwvOVfHb6GNq1VMdBz8G6XGei9jPRvrVx2fGl60e63Y84V9aBl8Qy7qXHwmU11zMNk3TzVyuJsfodD3A3Cu4TTcoYMNv2n+bCCepUKbYuw7UCeC9JY2w2q+gPAXvZpGEIbVbHnRVgHG5QWSjchjXaTa67WUXHC2C5l8eVx3T71gi70cU6Vx3dZRsY9qXY4h4aL3kILBeXMxsKsV7gdRIxyb2GKxqwCbUHNdiBh05ijFML1fiG4zJca4i+0iC2quGN0VNhCq11sWIH8Lbl5XpouPJNvF7RMbSfcmEFHq5L6d+q9jGEjRX15k3SfsqFNexr8zbB6Bx7uO1rwle2lmBjiF15Hxbgy+W5xDmgxLpF6Wp23hIlLVuveYknz+cqFjDcS+Z/Ndq3SXmfvGwnl9WEFxvX29nlmcl6uWm11sW6a2F4MznuoNeoiov9tNYWUEEA/41kfdCPbTAr772Gm1x/p4HdofzQLDJEP24Xo3yyAO/6+JyidZ1LYd6YlJmI0vaktpVlkn0UMC1rCXV0r4h2Ku7kQRx/NbEtSeF+zqFiAcM7+u3llr1ZpkeRwvOYdRteRg8NN7ntXmMXQ1ionA8/KKq3a12s2MDwZrKcXk/ca5i3gVHaJMoNWqhuG+aVBfja67XcvrVQVcY/i3a/goVER9UCfKkuT8Io3QJ422FnJ/5epEnufaJBGQNm2/7TfDixnar2og0Md1OV8Z54nZXxyjubHArUdC2jbSQuPqHe/RGQajgMth+McE/+f5a1S3CsAN5ryr7Vp3mqcL3EjVHo3ki50BTSvWVJEvkjX4AjyZuu+hMOrMDH7VSjKt5MZis6BvH98JY6sYX6xlMVrpeZt2Om5yguoskGVb/uCPuJdJj2HFBi3aJ0zTp2pM47kkpLpazeGwWA+qYhYlLe1y7BsYDR/fQR68u2ph7cHSGQb3RChfV2Znlmtl5eWtWfcGBhiD1tZ6eEnX2MoH/KrGNe3pMhNjUb6ZsWdZ27IwTQ53XMpMxENG2P0TVkkn0YKi5rkrDMp+qWgez9iLKmvkWJ5JW9g0iPItnnMfs2vLREWJ4IE4zSpKjeimukhxvK94l7DePre3baZL9lVmjqjNpOxeTQu3A4g9rG5tblHGbppjtWoHXHbIx+dhmLzKr9p3lxgjpV8lO0OhYqcsytUvAnEMX91jB+FZ56mlWC8fZH+5k3sQnnK4lxVuM/0VBnOl/B/7+9+w+S467v/P8yNohg2gdfe8zZ3gM8iiDuJKCFmOagQA51UkwxmGRHpvIlVO1MUt+A9K0UpOq8m7rv7vfqvrP1rWj54yCpr4VTFWZVR3ypSCsO31AhUg5sc+bSMWSVkGuH6DQmzsouPPaReDBYEJ+/f3T3TPenu2d6pmdXO6vno2rL1kz//PSnf7z78/58ZrSSGWB+RqWBF8Pg+OSwtzTmVg3bhuD7Xj+I3t/C4LTCYL7h8u+jtKyN6Nvv8M2jeWMzA+tx90EF5h1WriPtdz5rdaeXOut5Ru56nvq+ryRLXXXO9xZZWO7zdlLHLOd8g8pqb8lKbs9ELKvSS/Hxt2tg6kyO+u4/rCzEUmzMN+pjy1NniprgOnLXtagx6vzw9ayp7oRpWv7+RAOoQXVvkuWRYLSUDt2PLbmGjyvoW7Noy+uloMWzMIadt3tLVpCmapRtNJUx7/09d9kUFAaRc5HUx2OukrV6tDoclavcxjS0joXM9ee8jmN67Z6gKkgf8d9KrGmzE825Nf+yc3BjIs3H8abwooK3F1ux/POdWD8r8y/eZB0RvOGdiODtY7bg+OSQ3pKQw7BtCL6P5lrH/rKOx7Dl9uTfRxlvxrLePCaMuw8qMO/Q/R9tv3ML+ob1ctfD/PNx63sRRc7bguWea76Mshr9XBrlWPoP3HavT0hGR/nAwPq+0lK17B/TLTl+21FnJrWOcevaqNfzEdbj9yPr9xGODWCQUfcmVh4pYi0OefZj6DUsNEr9H08vldqOp6BFDTtvL3S6UjfavzX6Fyw3b33IXTbj6XYuKJaamvdZbAy5ym0ceepYllGu45hKuyOomm/KnSur657qnaB+KsKEmuZjajpg53ulkNZM3thfTr69iMm//FRBKo45CuJQmfONsz1BmkjK/oeyj0+wviDlYu1iJ70ZPkhvyTZsG4Z9nyV7vsb++DvXvPsoSVo6Jbdryb6joQO2NTC9ri97W4Ybd97h84203yMLcvvDtJbMehuRMTLoeHU7S95lDS+/dOPMFy+rzHNpGDPlLkhhyRL2SRiYyjJyfR+8zpHkqTNFbek6ctS1iax/yHrCPkiJ+qFE3ZvM9qRYaWnBsVLSqaLM/cg+lwpdwydlZTbWejfsvB32vTSo/POXTe6U0rRtGZCCHfLT9SZnWLkM+t5/TktPDUxnlmOWAeWLXWHqg6pa05W36EjuauxtV5i3n/hB4JXWkNSUiOCtQvQEqDWP5G+mLVdj66o1XVWj+bRFl596ofQ7TFrOgrGfNTVbAzpeZsw30vb0BB2Qy9Xk8OXBv9fqx1NGBJIarQW/Y3D4xiZ4+Ir31wjedPVnSzFsG4JO7Sl9ABqtQX1DMuZbafl9PiJy76M/tR7yurKcqhzLGKAiU8a2pOxD8uEg/7xxw8p11P0eztwe/+Yb5qqn19t4fU+fZry6XfS8LVDuOeYzlxErq6VKkLpljizWSu0jo16LkqMj0f5PLSNla76pVmybgn53nexXRwPre9B/LXpdS6yzkPT6MPwamSXtQWlC6xi7ri2rkjbabOJYBXKtp3+O+4IHySA1fWDdm1R5RPgjt/kju/UGIsi1HxnnUpFreG/478hEOfj986IP9g21zBEIh523qfdI81inl39q2WRd3xf91qX0AWiiLDlHo8c0mLfXGh20AEbvR0HrT17J+1mKoeWW9b3rt5QbA0z05KpjWTLqXsr5g+k0ZUFVMid7IRiWM5k+EOT5y8g1PtgZnlbVE7xti/TNOqLj6bmzKdqnV9U5GNlWR3KPRUeiKbb86IXSi+S3h7nt8bzdBZXOZVwkAmt1p5e6M972RJyoywmHYe1tQ1XqveUK8/P7/TA8LxwC3xw5KN5fw/OOSPeuauhmDduGpUpv6Nn+954OdfotnqmWKvG+A57nD+ucGEY67z4GUz/o+Skao7z9zLkPvZcMntf/TYyc8yYMK9cR93u4+HL8oYP7y8lT3ydat4uet+OWe675BpfVcqU/ZHBvGruT/Ua2N2Jpf52z55L9m0qxbfKHC05ek+My6/uJuhzj/EpbZxF56kx+/Qclz+v/ns9k1lGgrqXVl0VbnZTBCnKvJ3bOB8Nu916SDK57xcojvmwv0p8l/pCfcz8mfA0fNOjBIH6rbvS5ZlYbRp8qDT1v07fRWyxpI/aiOec1MOP6XnJX86WndV2tni1FnruCYf0jo/35oydGtveodDy1T1W61PtZisHllvG909H6gHTM3HUsS9p5mbiOY1pdtW//21+65tIPzM9RiP+7LTKG8gSws9Sarv9ixhjeFwDyarQ8HeoMf5Gw23E9xZVuylqqAGBS4ulLADC6hmbLeVO2AexmBFUAdr1GK9nfIdEvAgBGtqzKWGnNAHYbgioAu96FTjxv3kvpFwEAADAu+lQBAAAAQAG0VAEAAABAAQRVAAAAAFAAQRUAAAAAFEBQBQAAAAAFEFQBAAAAQAEEVQAAAABQAEEVhqo1XXleSw3zi12hpqbryWvtzr0D0mzfOd1Qy/PkNmvmFzvHSkuel/xx6IHmm3I9T60V84uoKdj3gsaqR7nKLssky5Rr/8TNN+WOei4BuwhB1TZptDx5blOTuBVg59qJx3kS2zTWwxN2jEnUAUyTSQYfGFsQQEZ/dDx6Hd1J19WdtC3AtNplQZV/I0m8AePtya7QaPFWEVcArlfA1Ks1XXmLtrxjtmw7/FuV2zWn3H7cS4GtscuCqp1ruWLLdupaM7/ArrITj/Mktmmt7si2K1o2v8BUmEQdwDRZVsW25dQ54pdHQ4cdS133uOonop+vqe70r6M76bq6k7YFmFYEVQAAAJMyP6OSpM5FglrgSjJFQVXQqTSamxzpI9BoefK8qsqSynPB960/9OdZdGTJkrPofx7LMzdzno1+B7WmG3zmpxb2pos2na+0jJzp/l+4rvQ+DSn7ZDbJR1KB/H0M/9Jzn+PTpKRCJqRsQ2I7h+uVk1Ge/vqNdaQu3yjf6P4F5VstSypXk9/38sEz5h8wndvca04SMLcnX/8E8zjnqj8DZW1HVp+JZOdrc5viktP3RDrwZ+XbD65v/XTceLmnp7Ylj036FpuS25BRNkPO9V5KjDFdYjkaYVm9a0NYdoPOt+C7QderzPow2OA6kJQ5vTnIQMq1b/g1J22+ZJ3ILkOllEOybqbLP1+yXplTjMNcv3nujXbOZJdjxjmQsv7kNBlS6nz61dNcR3YZD5PrGCTKIH265PUlfeuT2z9CGYVOPCSvK5UPppxDEVnX1ajR7iEp15eUZ5W0e2mebfENWUdg+POKWc5p08RllkXGvIPrT/9c602Xsh/AKKYnqFo5LNtbjeQmr6ttOVoIToLlSvCZpPbpYJrKL6vu2LKPueqqKzfIbe6lRKy05C066oTT26ty5WjBfJiwHC14s9oI133MVbdc7V9olyqR7YrkTXddHc9Kv5hvyvUW5HTW4/tUrqY8zPgPWLPnossvqxqbzr/QVUuuVsPlnW6rPGdeSAxDynUklqOFo9LxYFnrbak858p1F1Q6O2D58025XlUlt78d6+2yquGFMijf9bakdlheYZqCv98LTkfrkWPgzx9/EGm0zOlW5dlVOVZ/Gim88cS3xz7mSs7CeBfdYfUnS1Au5d4++/N2zOkKWdNDXlcqzyZuSo39Zanr6aFY+koof30rz3k6ouORY2PJWYzfBBPHJijvwWWUsg32ujTnv1yJyXuul6vyInXYPt2W5SzE9ynvskqH5O7fCKYJ6uvA821t+PVqkvVygOVzbcmydcB4kK/dYctSWxtL8sv/oGLn3arbVXkuIwAINFqevLlSb//8+SRnMVl3Ustw2PUiS8p89mmpOmfWlpR6lVG3R1VrHpJ69Sb7WpDnnKk1XXlz5f79zra16g64OhSpP4k6b2vVs1U1L54pZZzr2CSkHIPUcztfHUxcX7b82r+m+r2uupajhcTD/Bjy3EPyPFMMvJfm0VDLW5Cj+HFpx6bJ8bxSqJ7YOhIti3D5sXlT6k/GOVw66Pa3tZK/JIA00xNULVWM/PBlnXK7Umlm4JugbDU1D5al9roqS+Fn/Qvh4diJ15V7LHLhOVHXmbZk2QdS111rHpFjtbU+oA9D425HVnvdOImXVTmWtn6p667Gt/Os8dCzcliO1ZV7b2SdSxU/sBn0tmyi5Rpf//JJV11ZsjrRMg6WH3mIb9ztyDIC0OXKutoq69DAh+pwv9taN24My5VVuV1Lzt3BWuabOlQ2jqPWVHfMG4JfL7ruarxcTtTlnG5L5UMDHxjTjVZ/fDU1j6bUkRN1VbIC9TGtPeipq7Jmjbd4s2WpfTajDo9S39rrsbL060VkffNNHSpL7dPxMjrudmU5h7NvsuGxj51nwTkUm3CUc91Y3tIpuV2pvD/cihGWZXV0xrxJj32+bUW9HGBpQ21Zsu+IblVNB2xLXfdUcJzi/UMkaa1+Rm1ZKu2LfBjVOw+dWF+TtbqTXndSynDc60V4zY2V31JFq+bIAaPU7RGt1Z1IvYlcC0pGq0mOc+aIY6l92o4tb61eMfrwhIrUn/688XX5xyxq3GOTkPvczlEHL9e1/0RdTvCCNcyeMR/o8xt+Dxn1mWIcjVZV5a6rVfO4GOfosOeVQvXEkrzUYxmZd4Rz2OqciZ+TQAHTE1QFos25C44lWaWMFIQh5g/ItrpyTxoPPSc21ZFUuiVy2qW8rb/Q6aave6WlBceKPyAmBA+s51KmCNMGeg9xktSV92D0QUzS+Y66kRtHY39Zap9J3FAzt9MwkXI1yykoy27nQuRDU9bD+wX5mz54K/z93kgp63gLTO0OW5a5fVJvPT1BvUiUt7IeNHNIWe/Q4zJ/QLaVUUcmLbhBx242K7Mq91okkkapb4l9MM4x/9i4OmWsa+1iR1JJMxkPMn5LWkeJ2hUsv2eUcz1Rl9a02VE/6BllWWnbFhj5fNuKejmQH+zFgtqsbYilhfktCbFyiMg+DzNaxxJlOO71Ivua69ezvlHq9nji6VPVcqR+BRLbmXbODDg/E7KOnXLUnwHzXohdPMc9NkmZ13Xz3A4NqIPZdW4brv1h63MkuDJbJXNJ2f54fcyu3+nPFOPw19H1Hkp/0daTUoax55WC9SSlLMx5RzmHBz+fAKOZmqAqzIeuqt+0nXjDOIp9pVi/hf6fmV4wioZac+Zb7BRBJ9bJqWmmFM2RNh7YBph4uY4qKIteP7je30IyNSMh2O8c9paGLsy3r6ScU26tfSVZ6qpz3vxia8QfaMPWmJSHGqlQfUuzt2QF6S1GHUikZUUF29DZHHKDn/C5PsqyUrZt7PPtMtRLswXTf7scfaAJ+jXEho023/7H5T4PQ2YZjnu9yH3NnWzdNvnB9EIsBdRs7cljb8lKCTgHKFJ/8s477rFJyH9dz1MHc9e5vPs5Fj+4WnW7spwjo7V45ZG7fhcwqcE3JlZPsox2DhfeHyBiOoKqSKrDxHJez3di/RbMv3GGom20qiqrrfVh25j1tm1swdv0aN+b2F9Gq9lWlOuogrKI9guI/Q3crmC/c4i/UR3gfMdIL7lMhm6H8Za1qOib2KzWmJ4x61uGC52u1I3m6Ef/4mliY5nkuV5kWUXOt6H1YQvE3nAn3y73UoFGOEa5z8Ms414vcl9zJ1u3Y1Zaqpb9ujOwnuQwcjkWqT955x332CTkv67nqYO5yyrvfhYQpiaO3uI1RO76XcCk1jGxepLktzpt4TkMDDEdQVUqP79/bCc21ZnkxW2lpWrZ6BeSyX8gTm2OHzPt60InfbCB0RUs15ENKIscsvc72I+gtWXtYieZWqR+efcMqhcrsyqnpTZshUHbEZFIlTD3J7cg3cs+oEZmukxfdrmPLvPYDJQ9wIZ/nCJylmUuk1yWlP98G7TeLauXQV+I8qwaQ9JBe8yyNww61oMHRgmNe73Inq+xP77Fk6zbw/nB6qgGlWOqIvUnc16z7maX8agyj8GQ+iUlp8ksK/NambmfOcpoRJNvHRlQ9mM+UyQNWMdICi5nwLEMyzWz/gBbbDqCquDNRvQk9AeDiE2VfbKmXizDPgPGyF6qqdkatTNyzrS/nqBje7maHE530e9smm85ff4bMHNEQD/Yy+wcm7tct1L44JYcAavRio8ElHahXKsfTxn5R2q0FvyOzuFbr6VT/sAVsRG0gsEg+rP5nW6DEd8SIyvNlVN+zHGrZG9Hq1mLBBXVyPFN25/81h701LUcVR0rJd89bqz6liX12ET3NV36NgTnYswkz/UCy8p7vmVcr7Lqw5bWy6UNv4znypEBKnx+/4ToA05a2RuWKsFIdvHR2WpN12/FiXYsT5X/ehGXMV/wMiwqvV6NWbejgn4l0ePqZzeMIbMcWxmpZUXqT3qdT9bdjDIeemyS0o9Bsn7lqoOp15e0a2XeMgr6xJn1I2q+KTfxfU1N129ZM/uPFjfaM0XavXS4AesYdWTEQvXEknPUqBeL/sAXYbmm158JnMPAENMRVIUj2ERyZI/oeEpfhP7J6nnR3xzo3xS8yG9OrNWd3jCb0bze0rlhN/ao4EKp9Bxe86LRc6IuJxzutDd9MMToWM3fy6qEQztHt+FgZ8AFPG+5brGlSn/Y2si2H+rEH+J6F0rPi/wuhZ+r7g/H2p/XH0rVHCEoHHo1nO6IdG8w/H1U2vYEwwkXTdsZSep22OoEb0t7I6b16m/G/uQVpHspT4vEWPUtS/ox9BZL2hhY3suqhEOS9+ab1UZKv57JnOu+8ZeV93xLv16l14etrpfL2mgrtfO5X/+i/cvSy960XOkPoR7uhz/cdXYKV0xaOaRcLxKWKr0h8nvz7d+Qfdrc4knW7YhgFLno+mfPjdenSlnlaHeyW/rSyi1n/VmrO8FQ5f11pdbdtHXkOTYJ+c7tfHXwMl37E/1Eg+HOB4wKXMgIzxTp99IcMtahUVvB0so5bz3pulo9W4qUbfCzI+aIhFtxDgNDXLVv/9tfuubSD8zPAWBKNdTyqpIx3DQAYHrVmq4WbM8Y0h3YOaakpQoAcgr6P2zXyIkAAAAEVQCm03xTrpnLn+j/AAAAsPUIqgBMpxOb6pj9GMft/wAAAFAAfaoAAAAAoABaqgAAAACgAIIqAAAAACiAoAoAAAAACiCoAgAAAIACCKoAAAAAoACCKgAAAAAogKBqoIZanie3WTO/AIBtV2u68ryWjJ88nrjtWs/ustPvFzU1XU+e+YPZV6r5plzPU2vF/GJSxivvRsuT5za1U2tRMTv9HAGKmZqgips8sL1ynXMrrfiP70b+0h9W/JuqOa0X3miD5aXP6/O3y1VzftD6g++xq/l1wTz2PLTllecBPtd1YArszP0gyJhu4wXOecTuc1v+AgCTMjVBFcbhX7A5ETPMN+VO28P3jtzmrtxjtmw78nfMVWnOy3yI6bqr8eltW059TVraUFtSeX/aXJJU0wHbkrqeHjoRfpayfttRvfc9dre21o26J2dhSx50MA247xVHGZpqTXfoC4jRDCjj+aaOOJJ7rPh9bPLbjUGmJqhaqzuy7YqWzS8AbIlC59yJuhx7VW63rOpIF/RlbbQllWdTgzHNH5AfUz2kNfM7QH7dO+52s+sQepYrtmynPvBcKnQd2EF25n4sqxK+UAICjbsdWe0z/YDqRF2ObauyZEyIHWdqgioA02ZN9bNtybJ1YISWteVzbUllzaa8wavdYctSV96DPIQg29rFjvkRAEyBhmbLUvvczgr/kc/UBFWJfOheGlSQ0xrm0wcpH/FceyNdKpJC1WjFc/FTm2JNQX5rbz7jTXyvudWYzl+2sb2pb/HNfidGClXm9ven8z+vqiypPBd830uHMbYhZTuS+xAtwyHblyllvpVWbNmJ4xwypgsNO36JPhduU7Vw/xcdWbLkLPrf9fPaze3MkzPdb8o315nMlx+2/P6yevvX+sMh25xnvSkSfZL6ZZ95LEaxtKG2LNl35NiW0NIpud20FMAg9S/6Bm8sWf0YUvLjB5TP5TuP4szjnnaepDPXn1YmfcPXkyyP2PIGlqVStsf8Pr/aLSWp29GF6GfDtj/HdTVq2LWnJ7HfZrkFy2o1jGnD6YxyGXot8pn76zb3mpOM3afKXHZ0nzKXafYLSZTLgDJMOzcD0fUNuu+l7UdeeY61WSZp5Z2UdS0arHB9GfAMM6gMfcnzPHUdOctNSqsLyXMkKeuemz5v8vgY93uzzob9e//QL6sFx5IsRwsD1iHlu44MLOOVWZXV1ka0Vco8d/LsezBP7u3GRExNUJXOkrN4RLo3yKU/3ZbKVbmuq4XSmV6O/XrbkrOYvJjaRz3Nnuvn4q+6XZXnBpz4Ck60RUed0+F8q3LlaME8IS1HC0el471tkMpzrlx3QaWz4bzraluOFqIXpPmmXK+qUqTPyXq7rGriZuA/WPe3P55qtVwJli+pHW5rJXjzsXJYthft05KyHZIkW0d6+xDk9ubePkPKfPZpqTpXNqfMyb+wV0uuVnvLa8eOX63pasHpRPpbrMrtyG9Bcfy+F91If5wwBaPWPCT1jm8wXbma68ZXOujqiI5H9rEty1kwgp98yy8ddPvHt/LLA7e50fLi+xr0KzGXGbPSkjdXivVHWm+bExV1QZ2uZJXyPGCE1vSQl5K+FaT+bdsbvGHlcznOo4SGDtte/xwYcL2LCdZfbq/H6mF2+86w9dTUdBfkdDKWN6wsJ1Ye/roWHEvts9G0tmHbHxp8XfWlXHvsdWnOf0iKarS8xH6vupKzmHKfKVfl7d+IrNeSc9SV6x1SJ5w/41phSlwP7FV5dlWOZU45jsFluXwuvXXab2UOHxZrah5UrC+cf/8t9tA38L43lpRjbdxntOXlnWHc+jLkGWZgGc435XrGeW6vq12uGkFJSrlN4hxJUZ7zYvfctPM6cXxi98dlVY656lqODkeDlrmyuu6qKr/sp96tul2pG+7PsL5Og68jg8q4dktJam/kSlMduO9ByuBo242ipjyokrru8X4lCd5wW1ZH65EL6fJJV91EOpEleauxHNW1uuMHPwdT3rJJwY2gLLXXI/OtqX6veUJKUlfuvf2bur8NlqxOdN5lnTJy/xt3O7K6ro5HcqyXK+tqq6xDxo2060a3f4RUq6WKkcMdbEdpxggMJS+yDxpx+6L8HOH1+HqXKv4JP46Vw3KseBlrqRI7fntLlnFxWlO9Mrj/gIJ6EMtdPlHXmXa+wMDqnEndR8s53DvGeZdvdc7ky6Geb+pQWWqfjvQXCPqVRNdr8t/mRwd8kJYr29PnwHIWBr6ZXHvQS5yz8YeyqH7LXe/PfMkxhqHlcxnOo6RlVYw+Mf61pqSZzOtATc2j/vkYe+A8UVcls2/HsPXsVckMeCPLG1aWxcqjrGr02AcPmvFzZ9j29w29rq4clmO1tR5bXvBg1vt3eF52E53Ns+8z7ch9K1yvJUXvceG1wj6QXb97642ey2uqO/5DXHFDyjK1ddpvZe66p4JtWlPdiV9r1upn1Jal0r7Ih5dbjvvM1pd3lnHqyyjPMEnhfTweqKYEJVt2jqQwnisSz3t57o/Bv8tzfkBSax5S2bgejWrodSTD3tIIkfiwfce2m/KgyuxbsabNjhJpH+nMeX0X/NfqSn18nj8g2+rKPWk8dp7YVEdS6ZbI6W88QITTdDuDtizIpY29YVXG2/6U7T/fUXeEm1K0adpvIjb3u6PN2FuNUbYvKjtHeNy+D4395dQ0sOjxu9Dp+i2XQx/K0sRTHKplJR+WU2Tvo/nwNnz5g+tKX+0OW1bX1Skj2Ehfb9/axY7foppoWdl6ydH/jDdoJx6SF0sBDFP/0t7gpYz+N6TzfR55y2f7zqMBoukzQYpo5nWgSItf5nr8bc9qaRhclkXLoz/636rrn/OZb7gztz80/LrqX3tS6mFwjQ/556VxHwiktuaYyzzfUVdS5+JoNTl7vX55TkxmWfovF2IvdIJ7Z6JsY2lofitG7D56meW5z2xbeZvGqS+jPMMkZN/Hzev1lp0jKRLbY+xL3vvjWv243G5Zh1otf+Q940XYaFLq+gjPZ3nv/cP2HdtvyoOqbbavFOvP0v9LNmmPZX5GpWiObe9vYaJpBGEOblX9JvzUFiMzOB13+4L5JqemmVKQ/hDbjuChNrBWd3rpd56Xv/XCf0heiKV2TTItLu/yB94cI/aWojnTkb9hqZVLlV56iD+PmQo1CSktGLkYKYBFAoFxDSmfbT+P0oQPpXORVCrzbbBpX0mWuuqcN78YYOh6/JRaP/3E35/Yy4xBZTnB8ui94Q7eOPcM3f68gmtPDiO9cZ6gLV9vjrI0W5r9lsjow3PQj2XRltd7IbLVLTujynef2fLynqQizzC57+M76xzJf3/0W+xULsdb+4AREFSlMR+CQuc7sf4s5l/hYVGDtwy9HFvzr1BueGC+qSOO5a9j1OWNu33G26lB8rVcBS2S0f4gsb94ipb/WdDfZVjgsNJStewf48LHMyZordiC5V/oRHOmzb8hOdRB3nUv53vSHVnTOt3mFH0wy079G8cIb5CzyudynEcJkTS+UYaKDt5o55d/PX5fgX5fwlgH9qyynFh5+MIUmH7aYP7tHy649uRwIXclm6ytXW/Osoy1XCRbIhutqspdV6vDrk89+ct9cvLdZ7a2vCesyDNM7vt4/mO1HWWX//7o1211u7KcI5O9D45oeOs8dqqXSS+Zn10hzJxvqZdi1NlMb/Y9salO6nyTEqTQJEY922rBfg817vZlz9fYb74tUmrKmjmdn9o3yu/QhPncyWUP5z8U5JG5j1mBujTS8tP4qVXD0yQGC/sA5EtPyGW+KXeuHOlHMaLeg1lzQOrf+BI3rqA1LF2e8tnq8ygfPwAdYELXsYHrCftLpqbMmmU54fLo9ZcY/GA0cPsHyLz2rMzG3vYPOi/9a0J62lNRmesdWL+LSZZl0IekPKtG3hcrRvmlStSnYtfOYTKPdcTlKO+xFTr3B5ynRiZBZrldhnNk0Dqias0jcqy2zjiO3+J+NF9my6RtR6CJrXNFt1SZN91Ga8HvlGrmG/eEueILRs5+Tc3WJE7A8EaU7AfUaA1pYUmVchEM3jZFP/MvJv1Jso27fRnzrbT8vkRRQSfn2AUtZTq/U7M5Kpc/bXhszG3yb/yR/i1pN5gg7zn6WaOVIzUiZPTnqDVdVaNvaYsuP22bl075Iz+ZI5nNN9Ua0J+s1mzFHzpXZlUeNS0sQ63pylt0JHd18NvPgcIUQGfIeTmqcLnRYxW8gY9MNbB8Lst5ZAreCEcfXoIWtMGWVUkZlTK7vuRZT0MtY9jl6AuqgWU5sfLoCwc9cO5u5Nz+/NKvPf5oYTFLlSAdMt76618TjMEPJin1epCs3+MZoSyXNvxySnmx4vdJij7oJsvPT6/tl53fx8bRkUgdSb92ptz3xpR+rOP3ma0t70nL+wyTVobBgBblavInQBb91stwYIb0ckse4205R1KPj3G962Ue+K2PyxU/syVa1/IGZ/mllXGwnrSAdEyT324McgUHVV25x86oFMktrpbbWh+SjhD204nn/y+odG4CJ7/6fQ9kjI52qDPO2/7+w4rnhb+DELTYRPLEj+h4el+QNONu31Il3r/JC0bpOm1m0fdHEurlQGdNFw4FG82TPtiJdEiNjwrmD6kaTVnp32C8sA/IibocYztnz6X3eUrTPr2qzsHoOiX3WGQksoLLT93mXn8WYxS0xZI2BgY0pXhu/VwpMQpTPskc/YVgyOWsgCo5+l/6b534KYAa8sYyuX5v0G+iBOex3/cmnP6IdO+q4qfBoPK5TOeRYbkSptIFyzgqHc/TVyht/Yu2Ombn6kCu9cT6ngTDLvdS9waVZcb2jFEefeHIqn7gnGv7c1tWpZdOHG7rrDZS+gQtV/rDQ4f75F+HxjnP8lpT3TH2N7V+jyd/WS5ro63UTvv++Rc9b9PLL6Y3kuqwa2fafW9cee4zW1vek5bvGSajDE/U5YRDqPfmDX4KwRwRcMecI0Puj/NNuUZQmBp89oIzLzFa7Xgyyjh4GTGxEfwmvt0Y5Kp9+9/20jWXfmh+vrvNN+Uu2vLGeoDERPV+v2baj0VDLa8qnTaHcgaA6VVruv5LkgmMqAlguEYrGABpxP6kuPyu4JYqAAAwyN7SgH7GACZu+aSrbvkQrUpTiKAKAAAkhT+cup0/ZQBc6U7UddxVoq8Zdj6CKgAA0NP7QetFRx1SmoFtt1Z3hv8kCnacK7NPFQAAAABMCC1VAAAAAFAAQRUAAAAAFEBQBQAAAAAFEFQBAAAAQAEEVQAAAABQAEEVAAAAABQwNUFVrenKc5uqmV/seA21PE9uc/q2HAAAAMBwUxNU7Q41NV1vSoNDAAAAAGkIqrbVmurOqlw5OkLLFQAAALArEFRtuzXVz7ZlOYfVML8CAAAAMHUIqi6HpQ21VdbsivkFAAAAgGkzhUGVP/CD1/trpbb41JpuZJqU6VZa8jxXzfnoh5Lmm3I9T61ewOOvr7ViLjNlXkmNVnSd0eVELWujLZX3p205AAAAgGkyZUGVrSPerDZsW7Zty7ZX5XbLqsYCJn8wiAWno/XedLbW22VVMwKhPMpzno7oeGR5lpzF5HqrJVervfWuS3NVlWNL8l3odKXSDANWAAAAAFNuuoIqS/KOVbTc+2BNdWddbZV1KBz4YeWwHKutdTs6nbRcWZXbteTcPWbrUHtdTn2t98/lk6660RS+cL1OXZGpVDnmqtv7d9/axY5klbTX/AIAAADAVJmuoKrr6aET5ocX1OlKVskPTxr7y1J7IxZQ+db0kNeVyrOp6YLDtM8ZSzyxqY6k0i1+MJe53mC6hPOd1GALAAAAwHSZrqBqqJpmSuZn2+FyrRcAAADA5bZrgqpu54KkNW2mNgulmGhL0QjrDe0ryTI/AwAAADB1piuosmwdMAeamD8g25I6F/2eTBc6WSl+NR2wLSNFz1JpX2wi1e6wxwp2Mte7Mps6UIUkqdvRBfMzAAAAAFNluoIqWXKONiMj5jXUWnRkdV2dWvI/WasfTxkRUGq0FvyBJCpBSHXiIXldqTwXmW6+qSPOOCGVtFY/o7bKqrrG9s2lh1SN/WWpsxkMauGPHOjF5gUAAAAwDaYrqOq6Wj1b0kLvd6CqKrfXZcdG3FtT3QmHUO//XpQ/1Hn6yIG96Y5KxzNG6xtuWRV7XW3LiWzfrDbsdbXNSdXQbDll8AsAAAAAU+eqffvf9tI1l35ofo6ttNKSN6fEsO8AAAAAps90tVTtCjU1D5bVdU8RUAEAAAC7AEHVtqqp6S7IkavjkR8SBgAAADC9SP8DAAAAgAJoqQIAAACAAgiqAAAAAKAAgioAAAAAKICgCgAAAAAKIKgCAAAAgAIIqgAAAACgAIIqAAAAAChgqoOqRsuT5zZVM7/YdRpqeZ7c5mh7ujPKZ7xtn4Rt2f+VljzPVXPe/AJXpPmmXM9Ta8X8AgAA7GbTE1Tx8LpLXL4ga1vwUL1Ndnk9AgAAU2V6gqodqNHy5LUa5sfAZeAHGQRzAAAA24+gCttsWRXbllNfM7/YHU7U5di2KkvmF5isXV6PAADAVCGoAgAAAIACdn1Q1UvRW2nJ8zx5Xku9hL2g/4v/edqgBjU13cj3YR+OYFnVsqRyNblcSbWmG5vP/H6QRiu+zsyUrqHbn5efOpbYz55kOWSlPQ7f9qy+MEO2YWL7mn9fksxtTDmmaX2qenUva76sbQo+T9m+6CAcfplXVZZUnkvbp8HbXWu6/rJ6ZRzvuzjwmM435XqumvPGPgTrj58H6X0ixztXkvWod64bdSVZ15KS2xDfVv/7lO3K09czcfzTzgsAADDNdn1QJUkqHZK7f0O2bcu2K1pW8KCz6Khz2g4+X5UrRwu9h/Wamu6CnM568L0t+5irjiQtVWTbttbbktrh98FygwfhBaej9XA+29Z6u6zqsIevYN5qydVqb951ac5/YI4Zuv05zTflelWVe/sR2c/e90Y52Otql6tGYDPCtpuGbcNE9zXPvqQItrHkrvbnPS1V54bs3UpL3lxJ7rFwfUG96Wmo5S3IUbzcYpMMsVzpz9MOy6ji18a07fbrohkg2DpyVDpu27JtR/UTSj+mp9sqz5lBgSVn8Yh0b38alatyXVcLpTOR9VpyFqPrLXKuZChX5fX2w98Wy1kYEsQ0dNj2IuWftq3jqql5ULH9W3W7Ks+NuX8AAGBHujKCKqujM+FDphQ86JSl9nqk78ua6ve66lqODq9I0l6VLKl9LjLfiboqw/pwrByWY7W13guyfMuVVbldS87dAx7TwnmduvprWVblmKtubMI8259HTc2jjqz2ev8hXPH9bNyd8n24TdF15d5207BtmNS+jrAvKcJ5Y314lipadYfs3S0lqevpoRP9z5Yr/brRaFVV7rpaNcstto3ja9ztyOq6Oh7Z7uXKutoq61C0BceSvHuj2xAe067c6OdLFa23pfLBeBDadY8HgZikpVNyu5JldbQe2Y/lk666KmvWrDPjnCuZjDoYbEt5/6BlLasSK/9wW0uaKRz4rKnuxPdvrX5GbVkq7Yt8CAAAptqVEVR1O7oQ/ff8AdlWV+5J48H1xKY6kkq31CRdUKerkd8oN/aXpfZG7CHKt6aHvK5Uns18+505b7BdPbm2P4f5A7LNwDGmodlyxvcnHpIXeVjNve2mYdswqX0dYV+Ssudduzhw7/zvLUcLKSl84XK73kPxYGZigu0+awRLQd22Snsjn3W0GQn81DumZ/rBUuCCP7P6c3flPRhdw5o2OynnnSGzzuQ4VzIllhdsS2lmcEukjDS9RUfWJAOfWEqi33qbv+4CAICd7soIqjqb8YfKfSVZsuQsxvs5hA87vjXVnTANKG/fjJpmSuZneY0wb67tz2FfSZa66pw3vwjMzyjfJo2w7aZh2zCpfc29LymKzLtUkX3MVTet712w3M7FrQmpwuX3+ln1/hbkWMa0iQAoOKa97e7/LSRmHkeBOjNpYcAzF0nTG9rCmlfQn23RltdLAR0tvRMAAOx8V0ZQZTrfUVfdWD+X6F80xcvvr9Lvm5E2aEBf8FZ8LCPMO8L2D3S+M/jBcVgrU88I224atg2T2tfc+5KiyLzqD7Nu26tyu5H+QkOXW6Bc1V9+r5+V+TcwxTBYd7SfW+wvntI2uoL7NjGR9NMB+zSsRTJLL72z108NAADsRldmUHViUx1Zsu8Y1vIUEfafGZJGdKGTlbZU0wHbSklP6sucd2U23iozzvanGbqcIAUyLS3OSNvLve2mYdsw7Pvc8u9LUva8jf0D986wprqzHulPk73cmESd89P6hsu5/AyZx3RCspc//FzZarU7bCXb45J9rEY7/oFh5wQAAJg6V2ZQpWWdcrspo4LV1GyFHfAbasVapYIHvUgqYdpD4Vr9eNAaER85rNFa8DvlD2gd8Duwl1WNjUTXUCsxwlye7c9jWZWgBc4cvrzVrPlBwL1B6po5RPei/3Y/HDwi/7abhm3DpPY1/74kral+NhjRLrqNKy1/WP0Bas1WvE/eyqzKvXTHAdsU/Hv5XFuyHB2JDR2elvqYFkBlbLekRmv4yHbpx9Tf78Gj6eVT5FyZnKDFLHoezzd1xExxXNpQW5aco5GyyHH8/f5ntg706kDynPCHax+t7yYAANhZrtCgSlqrO73hoaN9TUrnIp36Y/1JgqG4Iw96vYfOWF+ZsC9W+Ln/5w9LnZ1e5FtWxV5X23K00Jt3VhspfTBybX8eQZ8fOQv95Sza6oQDD5yoywmHHe+tJxii2xxFL+e2JwzZhonta+59SbFU6aeAhvPu3/CHDx+oFO8PNleSeyySCpaxTQpbzYIW0uh6Z8+Zw7IrFkB5XuR3qtLK1vN0qHNqSF1UcEyD4esj83oHOzqVGYCOosi5Mjn+aIORbTgqHU/0qeqPEtkrixzHf63uxPpl5j4nAADAVLlq3/63vXTNpR+anwMAAAAAcrhiW6oAAAAAYBIIqgAAAACgAIIqAAAAACiAoAoAAAAACiCoAgAAAIACCKoAAAAAoACCKgAAAAAogKAKAAAAAAogqAIAAACAAgiqAAAAAKAAgioAAAAAKICgCgAAAAAKIKgCAAAAgAIIqgAAAACgAIIqAAAAACiAoAoAAAAACiCoAgAAAIACCKoAAAAAoACCKgAAAAAogKAKAAAAAAogqAIAAACAAgiqAAAAAKAAgioAAAAAKICgCgAAAAAKIKgCAAAAgAIIqgAAAACgAIIqAAAAACiAoAoAAAAACiCoAgAAAIACCKoAAAAAoACCKgAAAAAogKAKAAAAAAogqAIAAACAAgiqAAAAAKAAgioAAAAAKICgChNXa7ryvJYa5hfYYWpqup48z5PnNlULP15p+Z95nlor8TkAXA4NtTxPbrN3lmJHyTg+8025wbU08V0G7p8YSVDHuFfvDNMTVK205HmumvPmF0AgCAa4uORRU9NdkNNZl23bsp261hSU4VxJ7jFbtm2rsmTOh+20pQ9YkeA56283nEuNlvHSANgO8025i446p/1rqVNfM6eQtvocH4YH8qlzWesLhpqeoAoYZqki+3Rb5TkuOEPNH5BtSe1zy7GPG/vLUtfTQydiHw8335Sb9tIj6/MJqjXdCT40+2+cd/JDRqPlyWtNoIYvVfyAOvhbb0vqulqNfEZQjZ1n55+jklS7w5altjY4h4ArBkEVdpelilbdkqqTeOgELrO1uiPbrige+mIUy5VISyyww1zWc/xEXQ4vT6bKZa0vGIqgCrvOWt2RffLChFouAAAAgMF2VVDl55pG+wTkTTuKdNgP/2ItHcO+j6c5NVrRaZOpaIntNFKXzO9TO7hGOsCGy2gYubb9tCg/XSJz29P2L286Vcp27DWnkdLXEd2OzD5zwXytRizto1fGvWUY+7i4oIXEfqYbWt6JvifRY5rcL3P+wcsftE/D5s02aL5Gy5O36MiSVJ7zv2/9oX8cq2VJlqMFz6gDKcfZ/y7Y/0VHliw5i+H6/r+Mz2vZnbpjxzqQKPtI2k+wTQuO1d/maB0aNG8Kv/yrKkfKJdyW3rnUK4f+esyyNutxct7othj1J/VaENS3YH+qZUnlajBP/PoSv/YM3t/cMo99yDj3vOQ1ppeyGDsmYTkNuz4llz/Kfpl9qvJfF035621vf42yS86bLv9xTJZN+jqS1yl/e5PbHsostzHqsc/cVuPemOMeOugc9WXt52CZdcLcxsDg4+MvY8GxJJVVHbAcmef4iJLXHn85mcs077N5+lTlOC59Ocq/tzxj2ui1tjd/2jOBOU1WnY8z50nU0aHXOaXXYaNMc5d9YHBdSspcPnaEXRRUNXTY9mL9AdbblpzFYZWvoZa3IEfRvgTraodfzzflepEO/eH35WrKSec/PM6eC6dbldstq2rcmBacjtZ7y1qV2+kvodHy4t8fcyVnIX7RWGnJi3SAtW1bq56tqmP1pwlZjha8WW1EltctV43lHZbtrcb3z3KGByV5tyNPGS5tqC1L9h3GZSyl70/poNsv44r/ea15SIpsR+p+phha3sbADXbY90QKbiDGfh1zFTmcw5cfSNunvPOahs23XAnKR1I7KLPKL/tpILF+NdHBK2LHeVWuHC24TdW0proTLq/bKyen/n9mfD5KElZNzYOKnCu2Vt2uynPBjSlIXVl1u5G+QI7qJ3LMm2K5YvfO/bBcwmPhs3XkqHQ8tp6c1x3L0UJvXr+cy3OuXHdBpbPhvEPOu6AP1HpbUjusc2EaiP+AUi1FrmOn2yrPDb9JDzTw2Ptyn3vlqrz9G/3ldC05R1253iF1wvMrMW9DLa+qkhu5Pp3unYDjy3NdLKpclRc55vbptixnYcjxSDmO9ro05wcSMSsteWbZBOd6/EF2yD1uFOPW4/mmXGNb19tlVRMPh4PvoQPP0Tz3mYFsHYnWiXDdKS/RBh+fZVXC65LawTVo8ula/nVeGfemSRt8XKRRy9+Ss3hEujeY7nRbKlfluq4WSmci+5O8lg67v6UZ9tyV5zqXVoft01J1LnFm5pRSlyZxzcZltYuCqmVVjLz55ZOuuippJuMhSpIararKXVersXmXVQkfbO92ZLXXjYerZVWOuepajg4blb/rrkbyk9dUP9uWLFsHgm3YW7Kk9kbkArumeiVY93xTh8pS+3TkAnyiruNuV5ZzOLiw1NQ8WDbW46e8pV9Qu3KPxZd3pi1Z9oH+xWKpYjzsLuuU25VKMwNuRPm3I18ZLmvD3C4FnX27rk5F1mF1ziRywNfqTvyzcD9L6e1mUr7yrt1SSgzcsFwJp9+rkjnYw4m6KmFZ5lh+KLFPI8wbM+58mfzjrPZ6vF7fm17/J2tNdSf+MLJWP6O2LJX2RT5MVWTeDJbk3Wv2zcl73enKjczrT2PJ6kTLNTjvyrOjH6eVw3Ks+Dq0VPEfeg+aDzR55Tv2+c+9ttZ714Dw2mhJ7vEgQE25Ps3PqKSuvAcjJbxUSZz/o8txXSysrfVo3Vg6JbcrlfcPOLorh+VYxnzhtTI2Yf/6G7t2n6jLOd2Wyod6Lw+G3eNGM149btztyOq6Oh7Z1uXKutoq65DxMDzsHpol331mAEvyonVCa6o7xjbmPj5bbKWlarkr91j4csfXvzdN3rDjMmr5d6PnfXBuWFYnco0I61dZs+G8Y97fBj535bzOhfsXO9+WKkHwPIYtuWbjcttFQVUgml4SpB5lP0Q1NFuWut5DGZ2Y/e/NEdIkSScekpe4QRo3f0k631E3sg0XOl3/jUzKW5W0AEKS1i52pPAhLWi56VxMbvGFTsrJnTKS24VOV7JKiTS9aDO0n1KVnKZn/oBsK2V/E9uRvwyXT5oX35oO2Fbi+HQ7FyL/ioqnE1TLGhgY5invtYsd/+1sauvBBXW6/pvatNaPPMsPmfs0yrxR486XKTjO7knj+J3YVEdS6Zas0p2gWFqG/0Y493qLzJvQ0WbWqIjDrjvmeRiUn3ncx9XYX5baZ2IPWBpwrucy0rHPce7FHmrCa2P6taznxKY6Sr6tLsw8HkXLKo25v1rTZielXCL842jO1y/zngHX33ir/7B73IjMcstVj4N7wFnzhYR//YwH3yn7ZNxD0+W/z2Qy901KbGPu47PFxh6ldWzDjsuo5W8uLzg3uh0Nqknj3t8GPXflu84F51FKPffXPbotuWbjsts9QVX48DQXSfkZ9vZofkalQTf14PtJWqs7vTQQz4vn7e4tRfuGRP6izcv7SrLUVed8/6OiwlzjqvrN9kPfvuwrKSXZMGmUMjQvvsGbHPNinna8/IBwIZbGaLaYmXKV91Kllxrkfx99uPNT3/wUBX/e6EU71/ID5j6NMm/UuPNl2leK9Ynq/6WkI01ckL++aMvrpbjkTVsqMm+GtBv+ONediatpphTtZ9X/8/t1jCnnsR/n3MtvWZVeGpa//t2bGhMcxzxGvP6a15dtFWxDrw9U729BRapnzCj3mbGNcHy2VLAdnc3JBMqTsC3lP/79bdBzV67r3MTPoy26ZuOy2yVBVU3No0HT8yi5y8PeLg37fly934cJcs+DB/ULnWjfEPMv3sw/MfNNHXEsPz99lHSQ4C3zUCOV4Zoe8vppI1lvchJ6qRCj9dnJXd5B351+jn28ZcrP8+/3mQj7M+Refopx5x13vkznO7E+UebfKOXd57/9HaaXtjTGdheZN78xrzsTF7zl7fWzMv/G3LY8x37Mc280Qb+9Xr+4fB3TJy9fvR1fcBzzmNj1d4R1jivYhl4fKPNvlPtOlqH7WYzfQrENZZXL8O0Yt/VkbFtc/qFC97eM565c17kR5Cv7Lbpm47LbJUFVOv/H9wYJ0rcy0wIGfJ8ygMLowlzsaKrZkNzxrAEdglS5ycixrCAtZ/h2jFaGfr+XsmZXBqQT5OLPP0iu8o4Jc+wzUlHC/OogvWf05feNO++482XKPM7FJfrcBPVhoJXZ8VvIisw7guHXncnz01vG6Is1yNjHfvi5N66wz2ai7myjxLrz1NucMo+jWXcHHZuVWZV76VUDrr9RiZTESR7DnNtQyIB1pNxnUqVdN410+9zHZ4tlbkdMMh2usX+rtnIC5Z/DZO5v8eeugedSyMyiiUgv0+Fln+8YYtrskqAqiPqjFTRogRks6IxYriZHS2o1Bn+/6L+hHrXDdKMV7xvgP4AFfTWWTvkjYpn9B+abavXezPqdgM1RpGrNI+OlUgRvmKIXi3zLyrsdo5ahP2BFec5vaTBzp1MFud3Ri2KjlSM9LUd515qteH+p4IHFT78M60koCCjDtIwcy8807rzjzpcp/ThLNTVbkRSKrBtT6udhi2Q1ssyg1ScylZ9bHr2BNtRKSfNIu9HmnTdpwMNBwrjXnWLSbsbhy4jYaFzyW3HHT5fLcezHPffyStRbo2/DSmsbhxfOV2+LSD+OaXV3WZWgZTzWajfflDtXjgwCMOD6G/x7+VxbshwdiSxnoscwHNQgpU+LeT/MJ+0cHbCfqfeZNJaco0a5L/oDbIT3ofzHZ2ut1Y+njEwYKc/g5Wtsf1Zafl/HLTGJ8s9hzPubWc9iz115rnNZdTitTHOWfXpdKnrNxuU2ZUFVWt6rn2O/XInn3XtHpeN5+jacqMsJh/2M5NIqfKuS8X3JXR0zbSGyjV44NGjY1Bv20YlP4y2WtBFpgl6rO700mHCaIzo+vB9UquCtTWT/8i4r93aMWIbL5/wOGbk7VwcjXvXypT1/6Nfh/TrylHcpXufmSvERl2L7FAwnGx3hbOjys4w777jzZQvz0eN9IhZUOhcfASu8MXmxvmXpn4ctDv1lHpHuXVW06vjTRM/5WW2k9Yvq3Wi93u+A5J43oX/z9LyU31gxjH3dKaB3M/a8SEAR9D2S0d/gYCffi4kMQ4/92OdefqXIssPrRpiSkzlwwBbJU2+LWVall540pO4G/T0VLZ9gWOjEiIAp19/ePS5oYd/KY5i6rZ6nQ51TYxy7jHM0Yz+z7jMJXVerZ0uRcq+q3F7v/7SENNrx2VLp1/mqwnMhuK9Ht3P/xmR+jiBL0fLPJX2/h9/fBj135bjOKajDxrUuvUzzlv3WXLNxeV21b//bXrrm0g/NzzGFak1XC7ZnDJ0LALuR/ztxpbP2ZN6C44rFvRNjW2kFAxXRDwpT11KFbEbqGQDsZvMHZCtnijAAbAF/ePuUkWFxRSKomkKNVvJ3kRqtBf9HCSfWzA4AO9iJuhxaFgBsg1rTTfR1qjVdf/TTxI/C40pFUDWFLnSU6FtWLblapfkZAABgotYudhK/teb3zRoylDuuKPSpAgAAAIACaKkCAAAAgAIIqgAAAACgAIIqAAAAACiAoAoAAAAACiCoAgAAAIACCKoAAAAAoICpC6oarfA3AlpqmF8CQIZa0+W6AQAAtsRU/U5VoxX8yK3Dr1f31dR0F+RY/r+67qqcerx0ak1XC+EEPV25x/jRulxWWvLmylI3u+5Na93s1Y32uuzK4J+ObrQ8VctS+7StypL57YTMN+UuOupswTr8fe1oPeePZMfOmxzlkxDWm6gBdcjXUMurKj5XxrmatvyMa0CmjGUk1znCdilY7v6NIWUWv3b1tY1jlLbuQOpxyVruiGUDAMAIpqilqqHZstT1HhrwQLIDzTfleq6a8+YXk9V1V2XbdvyBYb4p1/O0YHtatW3Zkb/1dnRu5GI5OtKsmZ/uDuVDg+vofFOHUp9qh2u0PHmt6WsfWqs7sm1bq27X/GqImpquJ2+uJPeYcd51HC14nlor5jxhS1pVpeBc7v2d7shZzCrDbnwdx1zJWciYNouxDNuWbUeCpZWWPK8qnc53DWm0vIxALUN73VhuWdWUa2Z4jev/rcotVeVllKe5XNu8PgIAMEFTFFRhNA21Fh3JXZWd8mZ8uZLxhhkZumq3u7KcI4mHvenXVbdryb4jO2Cs3WHL6nY1angxshN1OfbkW6m2U6O1IMdqaz0amASWK36QVp4zgoaVlhYcS+3TKQ/+SxXZx1x1y1W5w4L6E3Udd7tSeXZCaY41NQ+WpfZ64piY1xA/KPRbM4tYrqyrrcH10bemupNRngAAbDOCql2q0aqq3HV13HxAw9g6J8+oLUvO3ZN5XN05OvK8rizncMaDeEOHHUttzzO/gClo0Wufzk4xXKsfl9uN1qPswKUnCJayj1Hf2oOeuippZiJBxl6VLKnbuWB+kbC3FKSRDmjFymdZG23JKu01v0i1VvfPy+FBGAAAW2cqgqowLaYsyXIW5Hle/I3tSisYvCL8S7617KUg9ab1O6wnP4/O31ArutxESk2Q5hOdxm3K37Lgu0VHliw/fcfcbnP5ie+DZfSWmZefKtk+m2yhyjZsW7Kma6mx0oqXeSTlsT+wSDCtsTRF3nBnT+evs7ViLC8sF+P4p6UCmetI37dhllU53ZbK1dR1JKXUD7MO9crKmDaYLr7dyXqtsA4P2f9hNh/01FVZsynz1pqHVFZbGw+a3yTLPrb+4LtqWVLZT9PqHduU/XabtV7KamIfEusxy8Ksl/mOsVkvkssdTe0OW5ba2sgKjiRJa3rIi7QmzR+QbUntc1lhmM8PltKP0dYJApwcwdxyxU7p37Qdgm20D4x4nQQAYHKmIqjy+zasq53Sd8jP34/3XVh1JWcx5cGsdEju/o1gusib5HLV71Qd5ul3LTlHXbneIXXC5aal36wclu1F8/zX1bYcLbQavdQU+5irbqTPQi+1J+inEOs/MVZ/iBQrsyqrq85584sMebdlvinXnO60VE3tP+EHkrPnIv0fumVVYwGi/0DtDx7QP35ZfSrKc5HlHXPVtRwdcV15Bzu9PmNpqUCNlrGOYN/yPHQnLFW03pbKc2bgZ5hvyvUW5HSi/TrW1S5XU4JkS87iEenesEz9wM11XS2UzkTKxZKzGF2vX37VktvvM3e6rfJcSt0f5kRdZ9pS+aC5bTUdsC113VMpLS81NQ8qduxi5b9UCbY72r8l3oJjH+3vdyLtLVBruvLmympH+vSsup3+BHnrb0JDh43+hskyHs1ev1lHw9p11i52pLA1aV9JVp7z9cSmOpJKtwyut35g19HmhNJ7/XS8sqo5A9Xigv6zOVrHQhc6XckqKV/bFgAAkzcVQVWm+aYOlZMjUK3VHf/B13xAtDo6k/omta313udrqp9tS5Ylucf7yw0eOmNvQ5cqxoPgsk65Xak0M+SNqZ/ukxiJ6kRdzul2ZNCAIDBL6RM1OXm3RWrc7chqr8enW6pkduTvuquRdKawXG0dCAOelcNB35P4g/ZyJQhszTS7aHpUeDwsyb23Xz6JVKC0dKwRUqnS9B4yBzywh2UVf3O/rEoQDB42gp5utK4tnZLblSyrE6mX0vJJN95SsXJYjtWN7X8v6DPrfg7LJ1O2LViH92BaDVxT3Ykfu7D8S/siH2ayJC+y32nmmzoS9DWKpsat1SvBfPnrb9KyKsa55ZfxpFLnLoNe36zs9MOkfkt67y8W+C+rEgTHqZkCE1VT051Q6nKvdXQyrZAAAAwy1UGV33ne00MpD2XL54wHeCn7DXJ7I/4Acr6jrqTOxXw39Wj61YJjDX9jOn9AdtaD6tLG9vYPyL0t2W+P/bfuppRlnu+oG3ngbuwvJ8teSqZHBcz0qAudrjTkjbxfR1ydMtKxYi0FIwuC58wH9iD9Mi2d68RD8rpSeX90z8yyWtNmZ0B9DfjldyYRlIz91j5l27LWEROk7PnngJ+mO6w1JTTsHBuaTpe7/g4QTS0M0nXzBYVFDa67WeJlZgREQat9Zt+sVCmj/6W8yFmuhK15QXA14KXCSGLBT9C6m7L+kSVG/0sOHAIAwKRMdVC1t5TyQySDdDaL36gjeqNdqX/zzmq1idlX0ohbPhojeBko77bMz6iUeKAroqaZkvnZ5O0tWZLlD2Mde2udmrKYX2+wgaMpLUJBWW2toPwSb+ODwH4sQWtiGCyGLcEnU4JDqd+PadGW13so99N08xme8jY0nS5v/U0TBoNzkRTGY26hEQ7zBrS1W0r9/cp7vs7PqJQoMzMg2vrAYbnST1EdOc00jRn8pGYTDOYPkpH2ggYAgO0x1UGV31JxmUTSkkZ+CAhawrZMSotDpq3elkxBa8wWu9Dp+j+4GntjPYkH0DXV7w36dZmpUEHfl60VlJ/5QNr7GyX9KyLSutO428lsCZb6I0yuFirHwYae42PX35qaR4MUzXHLKkW+wSSCfmrhb+7lPF8HtcxvuyBFddg2b48BLcMAAGyTqQ6q1i52kil+gcb+srTtDyD+w9JQJzbVyUpLCgaZSE1nyi1sccjxJjnvtgx48GvsH6/V50InmeLnC8pxAm+eB9WRwnp9s47oUKxp6oI6GWWVd6S3PLLLrwg/tdGyj/h90UYaQTKsM5Mz9Pjlrb85+emGBYQDfgwYyKTWPCLHautMr89QjvM1fIkz6vHYYmnpwNur3wfLTPEFAGA7TXVQ5XfKt+Qsxjsg15quqmWjA/+kBa0R0Qdn/2EpNlXGQ58/NLdljkA335Q7V44MWjDukOr9ASTKc2mdymtqumGZ5d2W/oOfOZz9uD/26afQlVU1hlDv/XjqqC2AaZZO+Wl65ohu8021EuUyujAN0Iod96AVq1w1+p34P8hsDfo9ohH4g0KYIyr6xyTz4TyHtfoZtS1rcF+mXqpbNOBpqJWSVlko+Ms8x1sj1l9T0NIX3a4gcCnKH2glfQRLfyRKyT1mtI4NOl9XWvKCH/KeRL0ZTUOtxE8c9M/RfmCYR5AuOqm+WOEIm3K1Ook+WAAAFDDdQVWQ3x8Ood7vU9LR+hamJPmCkdwifVqO6HhKn6rgzb85atZSpT/sc9gfZtFR53T20NKjCoei70TX4QWdwRVpxcu7LUsV2cEDbG+6/Rt+/4qx+KMb+kOo97fPHyJ8UilZ6evwFkvamEg5B8Gm6URdTjiEem+9wbDfkwgWpWBUtlW5MvqMHewUfGvv/+5P+jDqff4om9GBEma1kdKnqhf8eV7Kb5ANl3qO253R66+hH/wE8xyVjhfsU+ULRu083UmMquf3v0y/NmWer0Gfr0H7UkzK6H+x3wozzp2Jn6P5xK47XqQvHwEVAGAHuGrf/re9dM2lH5qfY2rU1HQXZHvGkNLbaaUVPPht70MWsB1qzeD3wiYWDAMAgN1m6luqcPn5/dcGjNAGAAAA7GK0VE09v6Uq7AqS+BHUCao1XR2+6MT6ddSabtBHJD2laafztz+rH03yh4mnyW7et+0QK7/gh5wbLS+7D2F3h/XtmW/KXXQyB94wf1AZAACMj6AK+a20Un7fiYdzAAAAXNkIqgAAAACgAPpUAQAAAEABBFUAAAAAUABBFQAAAAAUQFAFAAAAAAUQVAEAAABAAQRVAAAAAFAAQRUAAAAAFEBQBQAAAAAFvExXmR8BAAAAAPKipQoAAAAACniZXjI/AgAAAADkRUsVAAAAABRAUAUAAAAABRBUAQAAAEABBFUAAAAAUABBFQAAAAAUQFAFAAAAAAXw478AAAAAUAAtVQAAAABQAEEVAAAAABRAUAUAAAAABRBUAQAAAEABBFUAAAAAUMDL9JL5EQAAAAAgL1qqAAAAAKAAgioAAAAAKICgCgAAAAAKIKgCAAAAgAIIqgAAAACggJfpKvMjAAAAAEBetFQBAAAAQAEEVQAAAABQwNQEVY2WJ89rqRH8u9Z05XmumvPGhEW8q6HWhqeNLzbkmN/l1lDL8+S1wi0FAAAAsJtNTVC1LW64Tq+4xvwQAAAAALIRVEU98Akd+llbsx9almt+BwAAAAApdm9QtdKS53lq/c49ap7dkOd58r5xRp/91Rm999+sy/2W53/28P265+fDmZKpe7f9yqpajwTze542HmnpM0du630/1Ls+oc+2XG2E6/uWq9Zvf0QzkrS47i/zP34iMsPHdP83PHnfuF8fk6TXf0D3NM/0t/dbrh7+/JI+8Ppw+pqarifPXddn/8iV53lymzVJM/rAYlNn3GA+z5P7lfu19IGZyLoAAAAAFPUyvWR+tLuUf/6wSu2zOvsXz+jSq2b03t/4z/rM3SVd+NOWHj7flW7Yr4/82sfM2XzzTa39XxWVX9XRuT9pqfUn59R9VVkHf+M+ffaXzIkz7Nuv8nWbcv/jZ3TPp9f12HOWynd9XEu/JOnYn+mxF6U95f2qhdPPv1N7XyVd+puHdJ8cNX53RXVnRmo/rNYDLT3clm5420e08ul7/MAsZN2mWZ3SPXfacuprcv7dZ7Uy72hGbT38QEutr7Wlf75fH1n5jO7pBWQAAAAAitq9LVWBS3/5OVU+tqBPfPQePXxR0p49ap/8iD7ymwv6+G88pE1Je259pz5izqgZLX3IkaVn9PD/c0gf+c0FLfzmR/SRz53TJd0g58PR1qUBTtR16L1Vffz/vU9f+r1lfeJrm5Ju0MzbJelTevivL0mWrQPBgBu1O2xZekbu+n3SL9V1YN8e6W/uV/VDH9fCby3o4x+6R2cvSnt+6qDueVd0RW2d+def0peekKSq6j9f1p4XH9P9d1f08d9a0MLHKrrnTzalPbfp4G+OPwwHAAAAgLhd/+O/F79zX/B/rp67JEmb2nxw0//oCU8Xu5KukV4Rmcf3r7T3FkndC/qzL/Q/3fzdC7ooaY91Q3TibK//gD7xO/er9RVXG9/Y0Jm74ul3n/n6Y7okS3vf8QFJVb1zryU94+nsFyS9fUY3SGp7Kwq2WNLD2tjsSvpnum5fZEHdji48Ef5jv2ZukPR3nlZ6n0kPn7uorqR/9poR0hcBAAAADLTrW6qSfqTnvm5+tlVmdM+nV/Sxf3Wbrnvyz9T6/Kf81qKo331Ij/1AuuFnP6gP3HVQ9g3SM9/6z1qPTwUAAABgh7oCg6q8/lSbHUnWXr0z0n9q5jf26hZJl/7BCI5S/e965749UvecPvfRT2j50/frla96pTHNfXroby5JN5R1+Jds3aBNbfzBl/yvznfUlVS2lyL9p96r2RlL0j+qc76/lLgL6nQlvcHWUqT/1Hv33yJL0j8+81h0YgAAAAAFEFRl2tR9p111dYPe+3+f0f3/flWr//5+3f+r+7XnUlut3w/TCgfp6LkfSLJsffC3G2r8+3V94l3JtMH7HnlMlzQjx7lBeuKc7g9b0k40daZ9Sfqpj2j9i5/V6m+v6rNf/JQO3iJ13fv1O5ktbmtqnm3r0tW36SMnW/rsb69q9b6WPvULM9L3XN3/uwwYDwAAAEwKQdUAm5+r657PPaz2D2a0/xcqqvzCfu353jndv/RxLX/VnDrNmpbve1ibP7B0211VVd8hnflq25xIOn5G57r+/7a/8TuR38h6WMtHP6XWXz+jV5Tfq8pdFb339VL7Tz+jWn0t0s8q6eGlj+tTDzymZ64u6713VVR51y1S+6w+87G61iL9rAAAAAAUc9W+2be9dM0LPzQ/BwAAAADkQEsVAAAAABTwMu32X/8FAAAAgC1ESxUAAAAAFPAy7fZf/wUAAACALURLFQAAAAAUQJ8qAAAAACiAlioAAAAAKICgCgAAAAAKIKgCAAAAgAIIqgAAAACgAIIqAAAAACiA36kCAAAAgAJoqQIAAACAAvidKgAAAAAogJYqAAAAACiAoAoAAAAACiCoAgAAAIACCKoAAAAAoACCKgAAAAAogKAKO9Yb935Q1776ZvNjAAAAYEfhx38D1776Zr1x7wd14+vebn6Fy+SN5YreWK6YHwMAAAA7yhXfUnXtq2/WHQfv0wd+8QG941/+297///Rbft2cFAAAAAASrugf/73xdW/XB37xAUnSg2c/pj/6/M/pS//pLn2n3dJPv+XX9Y5/+W/NWQAAAAAg5optqbrxdW/XHQfv09Pf/aYePPsxPf3db0qSnv/+k/rvf/V7evDsx/TGvR/UG/d+0Jx18t50Uh/+6Df04YPLwQcf1c/84jf04Y9+VT9zgzEtAAAAgB3ligyqzIAqzdPf/aae/u43J9Cn50O67a5v+EHT3Z/T9ebXuCyue8dX/WPy0W/oPW9+t/l1JLD9ht7zJvM7AAAAoO+KC6qyAqq0FqlO0HpVyA13qnxd8P973qJ9bzS+x2V30+wnNbPH/BQAAADI54oKqrICqjsO3qef/tn/IzatJF177U36wfefND8eyfX73qJrJX3vuWclSbe8ccGcBJfRiy9KuuZW3f7OT5pfAQAAALlcMUHVoIDq2mtv0pf+012x6cMh1p9++i9in4/mV/WGm/dIelKPP/iXelrS1Te9VTcxiv2OcfU/PK7Nf5Je/i8+pLfeyG9iAQAAYHRX7ZudfemaF14wP99VRg2owu8UjAo4tps/p7ve9xa98tmv6At/fFJveP9xve166ak/v0tf+9tIC9ibTurD77hV+u4X9UdnG0F/nk/KfnVX3pd/Xn/9TDjhu3Xj2z6pt73pVl13jaSXLun5Z/9Kf/FfG3qq16L2Zl1324re9dZgmhe7eupbv6/Nmz6p218nPfXnP6ev/a2kq+7UTbO/pp9548267lV7dLWkF/+pq6c2juvr3/6j/rZtkRtf93bZQ4atv/F1b9fz339Szz//lPlVjPdXv9cbaCSv697xVd35Jkv67hf1hSdu112336yrv/+ovvyfjug5KXIM+mUWncc/TvFlPf+3n9aX/vzzwafv1mt/9pNybrtV173C/+TFH3X11LeOy33sj/Si7tSbKyt662uk7/31ks6e+3Jveb1688O/0n9Z/1U9K+nlr1vV7e98t2569R5dfZWkFy/pue9+VV9/eEnP/VN/VgAAAGy/K6Klyn7Lr48cUF177U169L/9O/OrEdysm970Fr1S0tN/f1I/1qP6u7/3A5+bykf1cnPyod6t1x9c1R32rfqJHzyuzScf1+b//JFeecPtek/lU0Hr18167Ts+qzvf7gdUL/zD49p85kd67VuPaL85Qsb1H9Lb7Fv1Ez96Uk89+bg2v/us/tfVlmZu/4Te+catb7F5/vmn1PnuNwf+hQGV+bn5N2pAZfrxt4/pL5+V9Orb5ez/kPn1GPxjdfCtt+q6l1/S9777uDaf7UovtzTz9gXd9Z5PSvqy2m2/Prx25v16ZWTu69/4Zr1S0vce/6IfUL3ppCoH36cZa49+/I+Pa/PJJ/Wc9ui6m+/UnXN/QMsnAADAZXZFBFWP/rd/N1ZA9XyR/lRXfVRvuEmSntTm+UclST8+/zd6WpKuf8vIAyO8/E2f1O2v26Pn/8en9YUH7tbXv3K3vv7Hv6Kvb0q65s1680/fLu05qrfusyRd0uMP/YoeaN2tr5/9BT3wxUf0vauNBV76lv7ij4NpvuJP9+CFrqQ9uuUNHzYmnrxw6PpBf2FAZX5u/hX3iP7HI4/oey9Jr/3pX9NP/oT5/Whebi/qna/bI/3T4/qz0+/W2bN36+t//PNaP/uonntJevkb3q/brpN+fOGv9PRLkl5za6Q+HNUbbtkj6Vk9cf6L0p4Vvfv2W/VyXdJTf/6J4HjdpS//4aflfV/SK96sn5mdRCAIAACAcV0RQVU0OMobUBVt/dC+2/X6qyU9+zf6u0vBZ5dOavNZSVfdrDfsu92YYbDXzdyqqyVd+5Of7A0F/uGPPqD3zPjfX/uqN0szbw/5VS8AAA9TSURBVNaNV0n6h2/oW3//7f7M3/+0/q7T/6ckqXuvntaHdNu7Tuo9la/qrg9/Qwd/0pIkXf0K/79XlOc+Ifdvu9JVN+ut71kZoyWx73X/3G/p+97f/L6e+GHki6cb+nZHkq7XTPlO6dK9+vZFSbpZM2F9uPnn/ADrmUfV7ip2TB/920f6y3rp8/rrx4KWrpvfF2vpAgAAwPa6IoKq0LYFVLpdt5Zv9f/3+vfpl3pBkN+nSpJufONHR3oQflnQ0vS973xZj34z+feX3/m2FLZGXXpG8V5yT+rFl2If6OVvOqm73v9h/eytN+vaF5/RU9/5ir713TD6uzI9943f17e/L11948/r9r1dvTBmcYTH6oUfRPpJSZKe1LP/0JUkveIVN0h6Uk898W29KOnGf3G3Xh5J/Xvib+/Vj6UBx1TSsxf1vCRd8woF3bYAAABwGVwxQdX2BVSS9nxIbwiCpx9fuqQXjL8XJek1P6Vbw9+vGsUPHtXjjy0l/jaf9lMMJUnXWEZLy+16xTXRfx/Vz77VTyl7/OG79eU/vluP/vmCLv7jj6ITXXle+rz+8s//Si9oj2Zu/7BueNGcIN3Lr0kPaV75qjuNT27W9a/xWwGf/0HQkth+RI9fkvS//ZRm9gSpfy9+W3/3uJF6uueGZBB+/S26VpIudRVtEAMAAMD2uiKCqjfu/aBufN3bUweemHhAJenl+94SpGw9oj8++W49EPv7pD8ogq7XzE/m7wvzdMf/navXvumjen20z89Vd2pm/4quk6T/+YzfcnH97bKjw4Pf+Kt6c2ygiut17R5J+pF+dCl4eL/qo3r9zVdg2p/pySU9+veXpGverNffGP/quX/0W5l03a26Phwc4ieWZb8+3kHuqYtBWt5P/Vr8WN24rDeXJL30rJ56IgyC79XfbV6SrrpZM29/t2b2SC9857/oqbBl8e++HfS7+jnd/qZ395d11Uf1M7cFaYZPPeK3agEAAOCyuCKCqvAHfM2gaSsCKulOlYPR8763+cfJlK3IKICvff2dfjCUwwt/+R/8gQmuuVXvnHtEBw+e1Lve94Du/OUVveuNQcT0zOeDFD5Lbz74gO58/0m96/1fVfXgT+nF70eX9qie/p786e74E73nfSd1xy99UvsSTSFXoif11J99WZtpw5R/JxhY4ifeojsO/4ne874HdOcv3qlrjTzBH3t/pG91jWP1/q+qevB2XXeV9Nzf/gd92x+3XZL07He+rRck3fiGN+uVelbn//vn+l9eWtJfPPasXtQe3fSOz+iuSnjc/eHeX+w+qm/85Rf70wMAAGDbXRFBVfg7R2/c+0Ep+GHfrQmoJF33fr3+NfJHb7tg9qnx/fh88HD+6rfoJ28yv83w0uf1161VPfpkVz/+X3v02tfdqpmbbtZP/OBxfWvji8FvKz2iJ/70M/40kq67/lbd9Kquvv3wkrznowv7sr79lT/S491LevEV1+umm26WNj+vR9pBS8yV7lJDj2486adpxj5f0iMPP6qnL0lX77leN73O0guPHZf7pJk2+Xk99sCSvuY9rudeDI7V9Zb+1/cf17e+tqQvPxr+llXgqS/q/HPS1VdLeu5v9EQk4JKk5/6iri997RE91b2kl7/mVs3cfLOufamrp7zP60sPHNH3jP5yAAAA2F5XxI//StJPv+XX9dNv+XU9//0nde2rb9bz339y8gHVjtX/Idsn/uvP6c++Y36/M91x8L7ekOoAAADATnXFBFUKWqhKr3u7rr32pivoQf1mvfLNn9H7b79VL3/x2/raH/5Kv7/ODhcGvwAAAMBOdkUFVVeC17/vEe1/zff1vX94Ti9Kuva1t+q1PyFJl/TUny/oa9HfOgIAAABQ2BXRp+pK8vw/fl8vXnO9brr5Vs3cfKte+8pLev4fHte3vtYgoAIAAAC2AC1VAAAAAFAALVUAAAAAUABBFQAAAAAUQFAFAAAAAAUQVAEAAABAAQRVAAAAAFAAQRUAAAAAFEBQBQAAAAAFEFQBAAAAQAEEVQAAAABQAEEVAAAAABRAUAUAAAAABRBUAQAAAEABBFUAAAAAUABBFQAAAAAUQFAFAAAAAAUQVAEAAABAAQRVAAAAAFAAQRUAAAAAFEBQBQAAAAAFEFQBAAAAQAEEVQAAAABQAEEVAAAAABRAUAUAAAAABRBUAQAAAEABBFUAAAAAUABBFQAAAAAUQFAFAAAAAAUQVAEAAABAAQRVAAAAAFAAQRUAAAAAFEBQBQAAAAAFEFQBAAAAQAEEVQAAAABQAEEVAAAAABRAUAUAAAAABRBUAQAAAEABBFUAAAAAUABBFQAAAAAUQFAFAAAAAAUQVAEAAABAAQRVAAAAAFAAQRUAAAAAFEBQBQAAAAAFEFQBAAAAQAEEVQAAAABQwNQEVY2WJ8+L/H3L1ZnmPfrA680pt8C7GmpteNr4YkOO+R0AAACAK9rUBFW+Z3TugZZaDzysx773Cs04da18+h7NmJMVcVdD93/FlffFRv+zG67TK66JTgQAAAAAvikLqp7Thd9a0MJvfVzV967o4WekPT91QB+bZGvVa2e0959b0tWRzx74hA79rK3ZDy3LjXwMAAAAAFMWVEWt688udCWVNPPzkuabcj1PbrPWn8T8bKUlz/PU+p171Dy70UsjXP837+1/v+jIkqRy1Z92RZIaanmevFak9QoAAAAApjuompF9kyXpH9X5qvndYOX3fFCl9lm1/uScnvknS7d9dEmr75L0zbNqfa2tS5L0zDm1Hmjp7DfNuQEAAACgb0qDqttU/Xef0cHXS3rinNafML8f7NJ//wNVPraghd/8iD53ritpRnvfI+kLn9HC1zv6kSQ9d0ELv7Wgz3zBnBsAAAAA+qYsqCqr6nnyvHU17r5Ne7qP6f5jCyP3c7r4nft6/792sSNJ2mNFJgAAAACAnKYsqApH/2tp/feWVXWqWhkx9Q8AAAAAJmnKgqpw9L8FLX96XY+ZX0t6xSv/We//3/v2vf6gEwAAAACwRaYsqBrghKfNS9Ket35ErftWtXpfS596zw3mVMN9dVMdSbrFUfO3m1r91+YEAAAAANC3e4IqfUqf+YNzeuaSpfJ7Kqr8jPTQF1x1zcmGeeI+nfrqpi5dMyPnLkd7X2VOAAAAAAB9V+2bnX3pmhdeMD8HAAAAAOSwi1qqAAAAAGD7EVQBAAAAQAEEVQAAAABQAEEVAAAAABRAUAUAAAAABRBUAQAAAEABBFUAAAAAUABBFQAAAAAUQFAFAAAAAAUQVAEAAABAAQRVAAAAAFAAQRUAAAAAFEBQBQAAAAAFTE9QtdKS53ny3KZq5neBRmvw95hWDbU8T26TIwsAAICdZ3qCqpDl6AgP11tvvinXc9WcN78AAAAAEDVlQVVX7XZXlnOEh/0ryrIqti2nvmZ+AQAAAFx2UxZUSZ2TZ9SWJefuhvkVAAAAAGy7qQuqpGVVTrelclWtFfO7NH5/HK/315IZjtWabuR7s1+WOb8XrLempuvJa5lLS/btqjXd4N/GslLmNTVawXTzTbmZ2zjJbQmWtejIkiVn0f8+1p9p4LZkT9Nouqnl32iZ5Wv2oTL/3ZszcWyS0wAAAABbawqDKklLFa23pfJc8gE9Zr4p16uq5K7Ktm3Ztq31dlnVyIN9relqweloPfjetlfldsIFNNQy5rdPt/vLH4XlaMGb1Ua4nGOuuuVqviCgdEjuUel4bxvX1bYcLaQFM3kM3JY11Z3gM3XlHvOn6aXerbTkLTrqnI6Ul4xtSUxja9WzVXWsyEaoF8BVS65WI/umuarKxpQJKy155rE55krOQmpwCQAAAGyV6QyqJC1X1tVWWdUBD9CNux1ZXVfHI31xwvkOBcHM3pIltTe03JtiTfVKXWuSND+jkrryHoz05VmqqLLU/2d+XbnHKv31nKjrTFuy7APDAyOrozNOsE2S31p3zFXXcnQ4V2udadxtqal5sCy11yNlsKb6vdFt8afpuquxclqrO1o349GVw3KsttbT9i02oam/jlg/qxN1OafbUvkQfe4AAACwbaY2qJKWdcrtDniAbmi2LLXPRh/YJemCOl3JKu31/9XpSlktRic21ZElZ3FIi1geXU8PnYh/dMHfEPlbMkAs6Auc2FRHUumWlO0eZtxtmT8g2+rKPWlsTXRb5g/ItqTOxeSgEhc68VCpsb8sdTu6EPu0v7xMwXbEgt3Q0obasmTfMUa5AAAAAGOY4qBKWqsfl9u15BxNSYObn1FJUnku3ufG8xYUzUJbqzuyT7dlOQsp/YOWVbFX5XbLqvb6+/TnveLsK8X6WfX/Iul6+0qy1FXnfHzWpJpmSpI6m0bQm8O+ksxEQgAAAOBymeqgKpp6lvjtqqC1ox3p1xP7q0RaW5Yq8b5KscEUgj5Gtq1Vt6vyXDgYwpo2BzanbA+/RWibtuV8J9bPyvzbtiHPz3eGpAcCAAAA22fKgyq/H81x1//tqkOl6Bd+ml95/yiJe2F/npJmUlIKw35BYeqgJKk0Y7SS+WmHE1WeTaYfrsyqbLYIbfW2BOmQA1PrMtPvajpgR9uX1vSQ1x2wbwMM2o6gXFJTAwEAAIAtMP1BVSQN0IrlhK2pftYfet3sL9Vo9Vuiov8vSbU7bFnqaPOEP3pgKzavH6R0O34voOVzbcloJWu0coxcNzJjQI75pty5stQ+o3rQN2ri25IauPj92CxnwUiDrKnZCtMm06epNY/E0i4laa1+xh9sxBzCfm7YVvvD6lvOQnKo97myuu7xXrkAAAAAW21XBFW9AMq0VOkPsx3pA3Socyoy8EO/v5TnecHw6v2R8Uqxef0hvHtpbksVrQYBRDjN7Dk7OcpdUe11rXYO9bdj0ZHc1UQK42S3pR8ceZHffwr7oMX7qi2odK4/IMha3emlSobTHNFxrbpm0t6yKr2Uy3DaWW3Y6xq62WnHNhjGfdvSEAEAAABJV+2bnX3pmhdeMD/HDtFoeapqPR5ATala09WC7Wk1NoR6Gv/3wXTaHnP4egAAAGD77JKWKux8QZ+qPKP9pfUXAwAAAHYogipMXKPlJn47rNFa8H/oN9riNt+Ua/54M/2iAAAAMGVI/9vhpjH9r9Z0tWCOStF1U9L+/DQ/c1iKNml/AAAAmCIEVQAAAABQAOl/AAAAAFAAQRUAAAAAFEBQBQAAAAAFEFQBAAAAQAEEVQAAAABQAEEVAAAAABRAUAUAAAAABRBUAQAAAEAB/z9KfS/kM8zZjwAAAABJRU5ErkJggg==;" parent="1" vertex="1">
                    <mxGeometry x="219.9999999999999" y="60" width="781.58" height="766" as="geometry"/>
                </mxCell>
                <mxCell id="qnNC03m3wt7iX0uT-l6i-15" value="Giocatore" style="swimlane;fontStyle=1;align=center;verticalAlign=top;childLayout=stackLayout;horizontal=1;startSize=26;horizontalStack=0;resizeParent=1;resizeParentMax=0;resizeLast=0;collapsible=1;marginBottom=0;whiteSpace=wrap;html=1;fontFamily=Helvetica;fontSize=11;fontColor=default;labelBackgroundColor=default;" parent="1" vertex="1">
                    <mxGeometry x="-570" y="145" width="190" height="224" as="geometry"/>
                </mxCell>
                <mxCell id="qnNC03m3wt7iX0uT-l6i-16" value="&lt;span style=&quot;font-size: 12px; background-color: rgb(251, 251, 251);&quot;&gt;- nominativo: String {readOnly}&lt;/span&gt;" style="text;strokeColor=none;fillColor=none;align=left;verticalAlign=top;spacingLeft=4;spacingRight=4;overflow=hidden;rotatable=0;points=[[0,0.5],[1,0.5]];portConstraint=eastwest;whiteSpace=wrap;html=1;fontFamily=Helvetica;fontSize=11;fontColor=default;labelBackgroundColor=default;" parent="qnNC03m3wt7iX0uT-l6i-15" vertex="1">
                    <mxGeometry y="26" width="190" height="26" as="geometry"/>
                </mxCell>
                <mxCell id="qnNC03m3wt7iX0uT-l6i-148" value="&lt;span style=&quot;font-size: 12px; background-color: rgb(251, 251, 251);&quot;&gt;- nickname: String&lt;/span&gt;" style="text;strokeColor=none;fillColor=none;align=left;verticalAlign=top;spacingLeft=4;spacingRight=4;overflow=hidden;rotatable=0;points=[[0,0.5],[1,0.5]];portConstraint=eastwest;whiteSpace=wrap;html=1;fontFamily=Helvetica;fontSize=11;fontColor=default;labelBackgroundColor=default;" parent="qnNC03m3wt7iX0uT-l6i-15" vertex="1">
                    <mxGeometry y="52" width="190" height="26" as="geometry"/>
                </mxCell>
                <mxCell id="qnNC03m3wt7iX0uT-l6i-152" value="&lt;span style=&quot;font-size: 12px; background-color: rgb(251, 251, 251);&quot;&gt;- dado: Dado&lt;/span&gt;" style="text;strokeColor=none;fillColor=none;align=left;verticalAlign=top;spacingLeft=4;spacingRight=4;overflow=hidden;rotatable=0;points=[[0,0.5],[1,0.5]];portConstraint=eastwest;whiteSpace=wrap;html=1;fontFamily=Helvetica;fontSize=11;fontColor=default;labelBackgroundColor=default;" parent="qnNC03m3wt7iX0uT-l6i-15" vertex="1">
                    <mxGeometry y="78" width="190" height="26" as="geometry"/>
                </mxCell>
                <mxCell id="6" value="- conteggioGiocatori: int" style="text;strokeColor=none;fillColor=none;align=left;verticalAlign=top;spacingLeft=4;spacingRight=4;overflow=hidden;rotatable=0;points=[[0,0.5],[1,0.5]];portConstraint=eastwest;whiteSpace=wrap;html=1;fontFamily=Helvetica;fontSize=11;fontColor=default;labelBackgroundColor=default;" vertex="1" parent="qnNC03m3wt7iX0uT-l6i-15">
                    <mxGeometry y="104" width="190" height="26" as="geometry"/>
                </mxCell>
                <mxCell id="qnNC03m3wt7iX0uT-l6i-17" value="" style="line;strokeWidth=1;fillColor=none;align=left;verticalAlign=middle;spacingTop=-1;spacingLeft=3;spacingRight=3;rotatable=0;labelPosition=right;points=[];portConstraint=eastwest;strokeColor=inherit;fontFamily=Helvetica;fontSize=11;fontColor=default;labelBackgroundColor=default;" parent="qnNC03m3wt7iX0uT-l6i-15" vertex="1">
                    <mxGeometry y="130" width="190" height="8" as="geometry"/>
                </mxCell>
                <mxCell id="5" value="+ Giocatore(): void" style="text;strokeColor=none;fillColor=none;align=left;verticalAlign=top;spacingLeft=4;spacingRight=4;overflow=hidden;rotatable=0;points=[[0,0.5],[1,0.5]];portConstraint=eastwest;whiteSpace=wrap;html=1;fontFamily=Helvetica;fontSize=11;fontColor=default;labelBackgroundColor=default;" vertex="1" parent="qnNC03m3wt7iX0uT-l6i-15">
                    <mxGeometry y="138" width="190" height="26" as="geometry"/>
                </mxCell>
                <mxCell id="qnNC03m3wt7iX0uT-l6i-18" value="+ Giocatore(String, String): void" style="text;strokeColor=none;fillColor=none;align=left;verticalAlign=top;spacingLeft=4;spacingRight=4;overflow=hidden;rotatable=0;points=[[0,0.5],[1,0.5]];portConstraint=eastwest;whiteSpace=wrap;html=1;fontFamily=Helvetica;fontSize=11;fontColor=default;labelBackgroundColor=default;" parent="qnNC03m3wt7iX0uT-l6i-15" vertex="1">
                    <mxGeometry y="164" width="190" height="26" as="geometry"/>
                </mxCell>
                <mxCell id="16" value="" style="line;strokeWidth=1;fillColor=none;align=left;verticalAlign=middle;spacingTop=-1;spacingLeft=3;spacingRight=3;rotatable=0;labelPosition=right;points=[];portConstraint=eastwest;strokeColor=inherit;fontFamily=Helvetica;fontSize=11;fontColor=default;labelBackgroundColor=default;" vertex="1" parent="qnNC03m3wt7iX0uT-l6i-15">
                    <mxGeometry y="190" width="190" height="8" as="geometry"/>
                </mxCell>
                <mxCell id="15" style="text;strokeColor=none;fillColor=none;align=left;verticalAlign=top;spacingLeft=4;spacingRight=4;overflow=hidden;rotatable=0;points=[[0,0.5],[1,0.5]];portConstraint=eastwest;whiteSpace=wrap;html=1;fontFamily=Helvetica;fontSize=11;fontColor=default;labelBackgroundColor=default;" vertex="1" parent="qnNC03m3wt7iX0uT-l6i-15">
                    <mxGeometry y="198" width="190" height="26" as="geometry"/>
                </mxCell>
                <mxCell id="qnNC03m3wt7iX0uT-l6i-156" value="[1..1]" style="edgeStyle=none;shape=connector;rounded=0;orthogonalLoop=1;jettySize=auto;html=1;exitX=0.5;exitY=0;exitDx=0;exitDy=0;entryX=0.5;entryY=0;entryDx=0;entryDy=0;strokeColor=default;align=center;verticalAlign=middle;fontFamily=Helvetica;fontSize=11;fontColor=default;labelBackgroundColor=default;endArrow=open;endFill=0;" parent="1" edge="1">
                    <mxGeometry x="0.737" y="10" relative="1" as="geometry">
                        <Array as="points">
                            <mxPoint x="-137" y="115"/>
                            <mxPoint x="-472" y="115"/>
                        </Array>
                        <mxPoint as="offset"/>
                        <mxPoint x="-142" y="145" as="sourcePoint"/>
                        <mxPoint x="-472" y="145" as="targetPoint"/>
                    </mxGeometry>
                </mxCell>
                <mxCell id="qnNC03m3wt7iX0uT-l6i-157" value="[0..1]" style="edgeLabel;html=1;align=center;verticalAlign=middle;resizable=0;points=[];fontFamily=Helvetica;fontSize=11;fontColor=default;labelBackgroundColor=default;" parent="qnNC03m3wt7iX0uT-l6i-156" connectable="0" vertex="1">
                    <mxGeometry x="-0.8203" y="3" relative="1" as="geometry">
                        <mxPoint y="7" as="offset"/>
                    </mxGeometry>
                </mxCell>
                <mxCell id="qnNC03m3wt7iX0uT-l6i-20" value="&lt;span style=&quot;font-size: 12px; background-color: rgb(251, 251, 251);&quot;&gt;Partita_A_Dadi&lt;/span&gt;" style="swimlane;fontStyle=1;align=center;verticalAlign=top;childLayout=stackLayout;horizontal=1;startSize=26;horizontalStack=0;resizeParent=1;resizeParentMax=0;resizeLast=0;collapsible=1;marginBottom=0;whiteSpace=wrap;html=1;fontFamily=Helvetica;fontSize=11;fontColor=default;labelBackgroundColor=default;" parent="1" vertex="1">
                    <mxGeometry x="-300" y="145" width="290" height="302" as="geometry"/>
                </mxCell>
                <mxCell id="qnNC03m3wt7iX0uT-l6i-21" value="&lt;span style=&quot;font-size: 12px; background-color: rgb(251, 251, 251);&quot;&gt;- numero di turni: int {readOnly}&lt;/span&gt;" style="text;strokeColor=none;fillColor=none;align=left;verticalAlign=top;spacingLeft=4;spacingRight=4;overflow=hidden;rotatable=0;points=[[0,0.5],[1,0.5]];portConstraint=eastwest;whiteSpace=wrap;html=1;fontFamily=Helvetica;fontSize=11;fontColor=default;labelBackgroundColor=default;" parent="qnNC03m3wt7iX0uT-l6i-20" vertex="1">
                    <mxGeometry y="26" width="290" height="26" as="geometry"/>
                </mxCell>
                <mxCell id="10" value="- giocatore1: Giocatore {readOnly}" style="text;strokeColor=none;fillColor=none;align=left;verticalAlign=top;spacingLeft=4;spacingRight=4;overflow=hidden;rotatable=0;points=[[0,0.5],[1,0.5]];portConstraint=eastwest;whiteSpace=wrap;html=1;fontFamily=Helvetica;fontSize=11;fontColor=default;labelBackgroundColor=default;" vertex="1" parent="qnNC03m3wt7iX0uT-l6i-20">
                    <mxGeometry y="52" width="290" height="26" as="geometry"/>
                </mxCell>
                <mxCell id="qnNC03m3wt7iX0uT-l6i-149" value="&lt;span style=&quot;font-size: 12px; background-color: rgb(251, 251, 251);&quot;&gt;- punti giocatore 1: int&lt;/span&gt;" style="text;strokeColor=none;fillColor=none;align=left;verticalAlign=top;spacingLeft=4;spacingRight=4;overflow=hidden;rotatable=0;points=[[0,0.5],[1,0.5]];portConstraint=eastwest;whiteSpace=wrap;html=1;fontFamily=Helvetica;fontSize=11;fontColor=default;labelBackgroundColor=default;" parent="qnNC03m3wt7iX0uT-l6i-20" vertex="1">
                    <mxGeometry y="78" width="290" height="26" as="geometry"/>
                </mxCell>
                <mxCell id="11" value="- giocatore2: Giocatore {readOnly}" style="text;strokeColor=none;fillColor=none;align=left;verticalAlign=top;spacingLeft=4;spacingRight=4;overflow=hidden;rotatable=0;points=[[0,0.5],[1,0.5]];portConstraint=eastwest;whiteSpace=wrap;html=1;fontFamily=Helvetica;fontSize=11;fontColor=default;labelBackgroundColor=default;" vertex="1" parent="qnNC03m3wt7iX0uT-l6i-20">
                    <mxGeometry y="104" width="290" height="26" as="geometry"/>
                </mxCell>
                <mxCell id="qnNC03m3wt7iX0uT-l6i-150" value="&lt;span style=&quot;font-size: 12px; background-color: rgb(251, 251, 251);&quot;&gt;- punti giocatore 2: int&amp;nbsp;&lt;/span&gt;" style="text;strokeColor=none;fillColor=none;align=left;verticalAlign=top;spacingLeft=4;spacingRight=4;overflow=hidden;rotatable=0;points=[[0,0.5],[1,0.5]];portConstraint=eastwest;whiteSpace=wrap;html=1;fontFamily=Helvetica;fontSize=11;fontColor=default;labelBackgroundColor=default;" parent="qnNC03m3wt7iX0uT-l6i-20" vertex="1">
                    <mxGeometry y="130" width="290" height="26" as="geometry"/>
                </mxCell>
                <mxCell id="qnNC03m3wt7iX0uT-l6i-159" value="- dado: Dado {readOnly}" style="text;strokeColor=none;fillColor=none;align=left;verticalAlign=top;spacingLeft=4;spacingRight=4;overflow=hidden;rotatable=0;points=[[0,0.5],[1,0.5]];portConstraint=eastwest;whiteSpace=wrap;html=1;fontFamily=Helvetica;fontSize=11;fontColor=default;labelBackgroundColor=default;" parent="qnNC03m3wt7iX0uT-l6i-20" vertex="1">
                    <mxGeometry y="156" width="290" height="26" as="geometry"/>
                </mxCell>
                <mxCell id="12" value="- vincitore: Giocatore;" style="text;strokeColor=none;fillColor=none;align=left;verticalAlign=top;spacingLeft=4;spacingRight=4;overflow=hidden;rotatable=0;points=[[0,0.5],[1,0.5]];portConstraint=eastwest;whiteSpace=wrap;html=1;fontFamily=Helvetica;fontSize=11;fontColor=default;labelBackgroundColor=default;" vertex="1" parent="qnNC03m3wt7iX0uT-l6i-20">
                    <mxGeometry y="182" width="290" height="26" as="geometry"/>
                </mxCell>
                <mxCell id="qnNC03m3wt7iX0uT-l6i-22" value="" style="line;strokeWidth=1;fillColor=none;align=left;verticalAlign=middle;spacingTop=-1;spacingLeft=3;spacingRight=3;rotatable=0;labelPosition=right;points=[];portConstraint=eastwest;strokeColor=inherit;fontFamily=Helvetica;fontSize=11;fontColor=default;labelBackgroundColor=default;" parent="qnNC03m3wt7iX0uT-l6i-20" vertex="1">
                    <mxGeometry y="208" width="290" height="8" as="geometry"/>
                </mxCell>
                <mxCell id="qnNC03m3wt7iX0uT-l6i-23" value="- Partida_A_Dadi(int): void" style="text;strokeColor=none;fillColor=none;align=left;verticalAlign=top;spacingLeft=4;spacingRight=4;overflow=hidden;rotatable=0;points=[[0,0.5],[1,0.5]];portConstraint=eastwest;whiteSpace=wrap;html=1;fontFamily=Helvetica;fontSize=11;fontColor=default;labelBackgroundColor=default;" parent="qnNC03m3wt7iX0uT-l6i-20" vertex="1">
                    <mxGeometry y="216" width="290" height="26" as="geometry"/>
                </mxCell>
                <mxCell id="qnNC03m3wt7iX0uT-l6i-155" value="+ iniziaPartita(Giocatore, Giocatore, int, Dado): Giocatore" style="text;strokeColor=none;fillColor=none;align=left;verticalAlign=top;spacingLeft=4;spacingRight=4;overflow=hidden;rotatable=0;points=[[0,0.5],[1,0.5]];portConstraint=eastwest;whiteSpace=wrap;html=1;fontFamily=Helvetica;fontSize=11;fontColor=default;labelBackgroundColor=default;" parent="qnNC03m3wt7iX0uT-l6i-20" vertex="1">
                    <mxGeometry y="242" width="290" height="26" as="geometry"/>
                </mxCell>
                <mxCell id="qnNC03m3wt7iX0uT-l6i-128" value="" style="line;strokeWidth=1;fillColor=none;align=left;verticalAlign=middle;spacingTop=-1;spacingLeft=3;spacingRight=3;rotatable=0;labelPosition=right;points=[];portConstraint=eastwest;strokeColor=inherit;fontFamily=Helvetica;fontSize=11;fontColor=default;labelBackgroundColor=default;" parent="qnNC03m3wt7iX0uT-l6i-20" vertex="1">
                    <mxGeometry y="268" width="290" height="8" as="geometry"/>
                </mxCell>
                <mxCell id="14" style="text;strokeColor=none;fillColor=none;align=left;verticalAlign=top;spacingLeft=4;spacingRight=4;overflow=hidden;rotatable=0;points=[[0,0.5],[1,0.5]];portConstraint=eastwest;whiteSpace=wrap;html=1;fontFamily=Helvetica;fontSize=11;fontColor=default;labelBackgroundColor=default;" vertex="1" parent="qnNC03m3wt7iX0uT-l6i-20">
                    <mxGeometry y="276" width="290" height="26" as="geometry"/>
                </mxCell>
                <mxCell id="qnNC03m3wt7iX0uT-l6i-24" value="&lt;span style=&quot;font-size: 12px; background-color: rgb(251, 251, 251);&quot;&gt;Dado&lt;/span&gt;" style="swimlane;fontStyle=1;align=center;verticalAlign=top;childLayout=stackLayout;horizontal=1;startSize=26;horizontalStack=0;resizeParent=1;resizeParentMax=0;resizeLast=0;collapsible=1;marginBottom=0;whiteSpace=wrap;html=1;fontFamily=Helvetica;fontSize=11;fontColor=default;labelBackgroundColor=default;" parent="1" vertex="1">
                    <mxGeometry x="-850" y="180.46" width="230" height="172" as="geometry"/>
                </mxCell>
                <mxCell id="qnNC03m3wt7iX0uT-l6i-25" value="&lt;span style=&quot;font-size: 12px; background-color: rgb(251, 251, 251);&quot;&gt;- minimo: int&lt;/span&gt;&lt;span style=&quot;background-color: light-dark(rgb(251, 251, 251), rgb(21, 21, 21)); color: light-dark(rgb(0, 0, 0), rgb(255, 255, 255)); font-size: 12px;&quot;&gt;&amp;nbsp;= 1&lt;/span&gt;" style="text;strokeColor=none;fillColor=none;align=left;verticalAlign=top;spacingLeft=4;spacingRight=4;overflow=hidden;rotatable=0;points=[[0,0.5],[1,0.5]];portConstraint=eastwest;whiteSpace=wrap;html=1;fontFamily=Helvetica;fontSize=11;fontColor=default;labelBackgroundColor=default;" parent="qnNC03m3wt7iX0uT-l6i-24" vertex="1">
                    <mxGeometry y="26" width="230" height="26" as="geometry"/>
                </mxCell>
                <mxCell id="qnNC03m3wt7iX0uT-l6i-28" value="&lt;span style=&quot;color: rgb(0, 0, 0); font-family: Helvetica; font-size: 12px; font-style: normal; font-variant-ligatures: normal; font-variant-caps: normal; font-weight: 400; letter-spacing: normal; orphans: 2; text-align: left; text-indent: 0px; text-transform: none; widows: 2; word-spacing: 0px; -webkit-text-stroke-width: 0px; white-space: normal; background-color: rgb(251, 251, 251); text-decoration-thickness: initial; text-decoration-style: initial; text-decoration-color: initial; float: none; display: inline !important;&quot;&gt;- massimo: int = 6&lt;/span&gt;" style="text;strokeColor=none;fillColor=none;align=left;verticalAlign=top;spacingLeft=4;spacingRight=4;overflow=hidden;rotatable=0;points=[[0,0.5],[1,0.5]];portConstraint=eastwest;whiteSpace=wrap;html=1;fontFamily=Helvetica;fontSize=11;fontColor=default;labelBackgroundColor=default;" parent="qnNC03m3wt7iX0uT-l6i-24" vertex="1">
                    <mxGeometry y="52" width="230" height="26" as="geometry"/>
                </mxCell>
                <mxCell id="7" value="- generator: Random = n {readOnly}" style="text;strokeColor=none;fillColor=none;align=left;verticalAlign=top;spacingLeft=4;spacingRight=4;overflow=hidden;rotatable=0;points=[[0,0.5],[1,0.5]];portConstraint=eastwest;whiteSpace=wrap;html=1;fontFamily=Helvetica;fontSize=11;fontColor=default;labelBackgroundColor=default;" vertex="1" parent="qnNC03m3wt7iX0uT-l6i-24">
                    <mxGeometry y="78" width="230" height="26" as="geometry"/>
                </mxCell>
                <mxCell id="qnNC03m3wt7iX0uT-l6i-26" value="" style="line;strokeWidth=1;fillColor=none;align=left;verticalAlign=middle;spacingTop=-1;spacingLeft=3;spacingRight=3;rotatable=0;labelPosition=right;points=[];portConstraint=eastwest;strokeColor=inherit;fontFamily=Helvetica;fontSize=11;fontColor=default;labelBackgroundColor=default;" parent="qnNC03m3wt7iX0uT-l6i-24" vertex="1">
                    <mxGeometry y="104" width="230" height="8" as="geometry"/>
                </mxCell>
                <mxCell id="qnNC03m3wt7iX0uT-l6i-153" value="+ Dado(int, int): void" style="text;strokeColor=none;fillColor=none;align=left;verticalAlign=top;spacingLeft=4;spacingRight=4;overflow=hidden;rotatable=0;points=[[0,0.5],[1,0.5]];portConstraint=eastwest;whiteSpace=wrap;html=1;fontFamily=Helvetica;fontSize=11;fontColor=default;labelBackgroundColor=default;" parent="qnNC03m3wt7iX0uT-l6i-24" vertex="1">
                    <mxGeometry y="112" width="230" height="26" as="geometry"/>
                </mxCell>
                <mxCell id="22" value="" style="line;strokeWidth=1;fillColor=none;align=left;verticalAlign=middle;spacingTop=-1;spacingLeft=3;spacingRight=3;rotatable=0;labelPosition=right;points=[];portConstraint=eastwest;strokeColor=inherit;fontFamily=Helvetica;fontSize=11;fontColor=default;labelBackgroundColor=default;" vertex="1" parent="qnNC03m3wt7iX0uT-l6i-24">
                    <mxGeometry y="138" width="230" height="8" as="geometry"/>
                </mxCell>
                <mxCell id="18" style="text;strokeColor=none;fillColor=none;align=left;verticalAlign=top;spacingLeft=4;spacingRight=4;overflow=hidden;rotatable=0;points=[[0,0.5],[1,0.5]];portConstraint=eastwest;whiteSpace=wrap;html=1;fontFamily=Helvetica;fontSize=11;fontColor=default;labelBackgroundColor=default;" vertex="1" parent="qnNC03m3wt7iX0uT-l6i-24">
                    <mxGeometry y="146" width="230" height="26" as="geometry"/>
                </mxCell>
                <mxCell id="qnNC03m3wt7iX0uT-l6i-146" value="[1..N]" style="endArrow=open;html=1;endSize=6;startArrow=diamondThin;startSize=12;startFill=0;align=left;verticalAlign=bottom;rounded=0;strokeColor=default;fontFamily=Helvetica;fontSize=11;fontColor=default;labelBackgroundColor=default;exitX=0;exitY=0.5;exitDx=0;exitDy=0;entryX=1;entryY=0.5;entryDx=0;entryDy=0;" parent="1" target="qnNC03m3wt7iX0uT-l6i-28" edge="1">
                    <mxGeometry x="0.2" y="25" relative="1" as="geometry">
                        <mxPoint x="-570" y="245.45999999999978" as="sourcePoint"/>
                        <mxPoint x="-600" y="340.46" as="targetPoint"/>
                        <mxPoint as="offset"/>
                    </mxGeometry>
                </mxCell>
                <mxCell id="qnNC03m3wt7iX0uT-l6i-147" value="[1..1]" style="edgeLabel;html=1;align=center;verticalAlign=middle;resizable=0;points=[];fontFamily=Helvetica;fontSize=11;fontColor=default;labelBackgroundColor=default;" parent="qnNC03m3wt7iX0uT-l6i-146" connectable="0" vertex="1">
                    <mxGeometry x="0.5603" y="1" relative="1" as="geometry">
                        <mxPoint y="-17" as="offset"/>
                    </mxGeometry>
                </mxCell>
                <mxCell id="qnNC03m3wt7iX0uT-l6i-7" value="[1..1]" style="rounded=0;orthogonalLoop=1;jettySize=auto;html=1;exitX=0;exitY=0.5;exitDx=0;exitDy=0;endArrow=open;endFill=0;" parent="1" edge="1">
                    <mxGeometry x="0.5" y="11" relative="1" as="geometry">
                        <mxPoint x="-300" y="185" as="sourcePoint"/>
                        <mxPoint x="-380" y="185" as="targetPoint"/>
                        <mxPoint as="offset"/>
                    </mxGeometry>
                </mxCell>
                <mxCell id="2" value="[1..N]" style="edgeLabel;html=1;align=center;verticalAlign=middle;resizable=0;points=[];" vertex="1" connectable="0" parent="qnNC03m3wt7iX0uT-l6i-7">
                    <mxGeometry x="-0.6011" y="-2" relative="1" as="geometry">
                        <mxPoint x="-1" y="13" as="offset"/>
                    </mxGeometry>
                </mxCell>
                <mxCell id="4" value="&lt;font style=&quot;font-size: 10px;&quot;&gt;giocatore1&lt;/font&gt;" style="edgeLabel;html=1;align=center;verticalAlign=middle;resizable=0;points=[];" vertex="1" connectable="0" parent="qnNC03m3wt7iX0uT-l6i-7">
                    <mxGeometry x="0.8197" y="-4" relative="1" as="geometry">
                        <mxPoint x="23" y="-16" as="offset"/>
                    </mxGeometry>
                </mxCell>
                <mxCell id="qnNC03m3wt7iX0uT-l6i-160" style="edgeStyle=none;shape=connector;rounded=0;orthogonalLoop=1;jettySize=auto;html=1;exitX=0;exitY=0.5;exitDx=0;exitDy=0;strokeColor=default;align=center;verticalAlign=middle;fontFamily=Helvetica;fontSize=11;fontColor=default;labelBackgroundColor=default;endArrow=open;endFill=0;entryX=0.5;entryY=1;entryDx=0;entryDy=0;" parent="1" target="qnNC03m3wt7iX0uT-l6i-24" edge="1">
                    <mxGeometry relative="1" as="geometry">
                        <Array as="points">
                            <mxPoint x="-360" y="436"/>
                            <mxPoint x="-735" y="435"/>
                        </Array>
                        <mxPoint x="-300" y="405" as="sourcePoint"/>
                        <mxPoint x="-768" y="415" as="targetPoint"/>
                    </mxGeometry>
                </mxCell>
                <mxCell id="qnNC03m3wt7iX0uT-l6i-161" value="[1..1]" style="edgeLabel;html=1;align=center;verticalAlign=middle;resizable=0;points=[];fontFamily=Helvetica;fontSize=11;fontColor=default;labelBackgroundColor=default;" parent="qnNC03m3wt7iX0uT-l6i-160" connectable="0" vertex="1">
                    <mxGeometry x="0.9437" relative="1" as="geometry">
                        <mxPoint x="-22" y="-1" as="offset"/>
                    </mxGeometry>
                </mxCell>
                <mxCell id="qnNC03m3wt7iX0uT-l6i-162" value="[1..1]" style="edgeLabel;html=1;align=center;verticalAlign=middle;resizable=0;points=[];fontFamily=Helvetica;fontSize=11;fontColor=default;labelBackgroundColor=default;" parent="qnNC03m3wt7iX0uT-l6i-160" connectable="0" vertex="1">
                    <mxGeometry x="-0.9354" y="-1" relative="1" as="geometry">
                        <mxPoint x="-18" y="-2" as="offset"/>
                    </mxGeometry>
                </mxCell>
                <mxCell id="3" value="&lt;font style=&quot;line-height: 110%; font-size: 10px;&quot;&gt;giocatore2&lt;/font&gt;" style="text;html=1;align=center;verticalAlign=middle;resizable=0;points=[];autosize=1;strokeColor=none;fillColor=none;" vertex="1" parent="1">
                    <mxGeometry x="-542" y="110" width="70" height="30" as="geometry"/>
                </mxCell>
                <mxCell id="26" value="&lt;br&gt;import java.util.Random;&lt;br&gt;public class Dado &lt;br&gt;{&lt;br&gt;&amp;nbsp; &amp;nbsp; &lt;br&gt;&amp;nbsp; &amp;nbsp; /* Attributi */ &lt;br&gt;&amp;nbsp; &amp;nbsp; private Random generator = new Random();&lt;br&gt;&amp;nbsp; &amp;nbsp; &lt;br&gt;&amp;nbsp; &amp;nbsp; private int minimoValore = 1;&lt;br&gt;&amp;nbsp; &amp;nbsp; private int massimoValore = 6;&lt;br&gt;&amp;nbsp; &amp;nbsp; &lt;br&gt;&amp;nbsp; &amp;nbsp; /* Costruttori */&lt;br&gt;&amp;nbsp; &amp;nbsp; &lt;br&gt;&amp;nbsp; &amp;nbsp; public Dado(int minimoValore_attuale, int massimoValore_attuale) {&lt;br&gt;&amp;nbsp; &amp;nbsp; &amp;nbsp; &amp;nbsp; &lt;br&gt;&amp;nbsp; &amp;nbsp; &amp;nbsp; &amp;nbsp; if (!(minimoValore_attuale &amp;lt; 0 || massimoValore_attuale &amp;lt; minimoValore_attuale)) &lt;br&gt;&amp;nbsp; &amp;nbsp; &amp;nbsp; &amp;nbsp; { &amp;nbsp; &lt;br&gt;&amp;nbsp; &amp;nbsp; &amp;nbsp; &amp;nbsp; &amp;nbsp; &amp;nbsp; minimoValore = minimoValore_attuale;&lt;br&gt;&amp;nbsp; &amp;nbsp; &amp;nbsp; &amp;nbsp; &amp;nbsp; &amp;nbsp; massimoValore = massimoValore_attuale;&lt;br&gt;&amp;nbsp; &amp;nbsp; &amp;nbsp; &amp;nbsp; &amp;nbsp; &amp;nbsp; &lt;br&gt;&amp;nbsp; &amp;nbsp; &amp;nbsp; &amp;nbsp; &amp;nbsp; &amp;nbsp; System.out.print(&quot;Ho appena creato un dado con minimo valore &quot; + minimoValore);&lt;br&gt;&amp;nbsp; &amp;nbsp; &amp;nbsp; &amp;nbsp; &amp;nbsp; &amp;nbsp; System.out.println(&quot; e massimo valore &quot; + massimoValore);&lt;br&gt;&amp;nbsp; &amp;nbsp; &amp;nbsp; &amp;nbsp; }&lt;br&gt;&amp;nbsp; &amp;nbsp; }&lt;br&gt;&amp;nbsp; &amp;nbsp; &lt;br&gt;&amp;nbsp; &amp;nbsp; /* Metodi */&lt;br&gt;&amp;nbsp; &amp;nbsp; &lt;br&gt;&amp;nbsp; &amp;nbsp; public void stampa() {&lt;br&gt;&amp;nbsp; &amp;nbsp; &amp;nbsp; &amp;nbsp; System.out.println(&quot;Il dado ha minimo valore &quot; + minimoValore &lt;br&gt;&amp;nbsp; &amp;nbsp; &amp;nbsp; &amp;nbsp; &amp;nbsp; &amp;nbsp; &amp;nbsp; &amp;nbsp; + &quot; e massimo valore &quot; + massimoValore);&lt;br&gt;&amp;nbsp; &amp;nbsp; }&lt;br&gt;&amp;nbsp; &amp;nbsp; &lt;br&gt;&amp;nbsp; &amp;nbsp; @Override&lt;br&gt;&amp;nbsp; &amp;nbsp; public String toString() {&lt;br&gt;&amp;nbsp; &amp;nbsp; &amp;nbsp; &amp;nbsp; return &quot;(&quot; + minimoValore &lt;br&gt;&amp;nbsp; &amp;nbsp; &amp;nbsp; &amp;nbsp; &amp;nbsp; &amp;nbsp; &amp;nbsp; &amp;nbsp; + &quot;, &quot; + massimoValore + &quot;)&quot;;&lt;br&gt;&amp;nbsp; &amp;nbsp; }&lt;br&gt;&amp;nbsp; &amp;nbsp; &lt;br&gt;&amp;nbsp; &amp;nbsp; public int lancia() {&lt;br&gt;&amp;nbsp; &amp;nbsp; &amp;nbsp; &amp;nbsp; return (int) (generator.nextInt(minimoValore, massimoValore + 1));&lt;br&gt;&amp;nbsp; &amp;nbsp; }&lt;br&gt;}" style="text;html=1;align=left;verticalAlign=middle;resizable=0;points=[];autosize=1;strokeColor=none;fillColor=none;" vertex="1" parent="1">
                    <mxGeometry x="-830" y="452" width="500" height="620" as="geometry"/>
                </mxCell>
            </root>
        </mxGraphModel>
    </diagram>
</mxfile>